STARTFONT 2.1
FONT -FontForge-Monofett-Book-R-Normal--32-320-72-72-P-181-ISO10646-1
SIZE 32 72 72
FONTBOUNDINGBOX 21 36 0 -5
COMMENT "Generated by fontforge, http://fontforge.sourceforge.net"
COMMENT "Copyright (c) 2011 by vernon adams. All rights reserved."
STARTPROPERTIES 40
FOUNDRY "FontForge"
FAMILY_NAME "Monofett"
WEIGHT_NAME "Book"
SLANT "R"
SETWIDTH_NAME "Normal"
ADD_STYLE_NAME ""
PIXEL_SIZE 32
POINT_SIZE 320
RESOLUTION_X 72
RESOLUTION_Y 72
SPACING "P"
AVERAGE_WIDTH 181
CHARSET_REGISTRY "ISO10646"
CHARSET_ENCODING "1"
FONTNAME_REGISTRY ""
CHARSET_COLLECTIONS "ISO8859-2 ISO8859-9 ISO8859-4 ISO10646-1"
FONT_NAME "Monofett"
FACE_NAME "Monofett"
COPYRIGHT "Copyright (c) 2011 by vernon adams. All rights reserved."
FONT_VERSION "1.000"
FONT_ASCENT 26
FONT_DESCENT 6
UNDERLINE_POSITION -4
UNDERLINE_THICKNESS 1
X_HEIGHT 20
CAP_HEIGHT 20
RAW_ASCENT 799
RAW_DESCENT 200
NORM_SPACE 5
RELATIVE_WEIGHT 40
RELATIVE_SETWIDTH 50
SUPERSCRIPT_X 0
SUPERSCRIPT_Y 15
SUPERSCRIPT_SIZE 20
SUBSCRIPT_X 0
SUBSCRIPT_Y 4
SUBSCRIPT_SIZE 20
FIGURE_WIDTH 19
AVG_LOWERCASE_WIDTH 190
AVG_UPPERCASE_WIDTH 190
ENDPROPERTIES
CHARS 409
STARTCHAR uni000D
ENCODING 13
SWIDTH 144 0
DWIDTH 5 0
BBX 1 1 0 0
BITMAP
00
ENDCHAR
STARTCHAR space
ENCODING 32
SWIDTH 144 0
DWIDTH 5 0
BBX 1 1 0 0
BITMAP
00
ENDCHAR
STARTCHAR exclam
ENCODING 33
SWIDTH 424 0
DWIDTH 14 0
BBX 14 21 0 0
BITMAP
1FE0
3CF0
7CF8
FCF8
FCFC
FCFC
FCFC
FCFC
FCFC
FDFC
FDFC
FFFC
FCFC
FCFC
FFFC
FFFC
FFF8
FFF8
7FF0
3FE0
0FC0
ENDCHAR
STARTCHAR quotedbl
ENCODING 34
SWIDTH 424 0
DWIDTH 14 0
BBX 14 21 0 0
BITMAP
1FE0
3970
7978
F978
F97C
FFFC
FFFC
FFFC
FFFC
FFFC
FFFC
FFFC
FFFC
FFFC
FFFC
FFFC
FFF8
FFF8
7FF0
3FE0
0FC0
ENDCHAR
STARTCHAR numbersign
ENCODING 35
SWIDTH 482 0
DWIDTH 15 0
BBX 16 21 0 0
BITMAP
1FF0
3FFC
7FFE
FC9E
FD9E
F81F
FDBF
FDBF
F93F
F93F
F01F
F93F
F93F
FFFF
FFFF
FFFF
FFFE
FFFE
7FFC
3FF8
0FF0
ENDCHAR
STARTCHAR dollar
ENCODING 36
SWIDTH 578 0
DWIDTH 19 0
BBX 19 21 0 0
BITMAP
1FFE00
3FBF80
7C07C0
F803C0
F9B3C0
F9BFE0
F9BFE0
F807E0
FC03E0
FFB3E0
FFB3E0
F9B3E0
F803E0
FC07E0
FFBFE0
FFBFE0
FFFFC0
FFFFC0
7FFF80
3FFF00
0FFE00
ENDCHAR
STARTCHAR percent
ENCODING 37
SWIDTH 578 0
DWIDTH 19 0
BBX 19 21 0 0
BITMAP
1FFE00
3FFF80
71CFC0
E4DFC0
EC9FC0
E09FE0
F19FE0
FFBFE0
FF31E0
FF20E0
FF6CE0
FE64E0
FE60E0
FFFFE0
FFFFE0
FFFFE0
FFFFC0
FFFFC0
7FFF80
3FFF00
0FFE00
ENDCHAR
STARTCHAR ampersand
ENCODING 38
SWIDTH 578 0
DWIDTH 19 0
BBX 19 21 0 0
BITMAP
1FFE00
3E0780
7C0FC0
FDFFC0
FDFFC0
FDFBE0
FC7BE0
FE01E0
FCFBE0
FDFBE0
FDFBE0
FDF3E0
FC03E0
FE07E0
FFFFE0
FFFFE0
FFFFC0
FFFFC0
7FFF80
3FFF00
0FFE00
ENDCHAR
STARTCHAR quotesingle
ENCODING 39
SWIDTH 424 0
DWIDTH 14 0
BBX 14 21 0 0
BITMAP
1FE0
3CF0
7CF8
FCF8
FCFC
FFFC
FFFC
FFFC
FFFC
FFFC
FFFC
FFFC
FFFC
FFFC
FFFC
FFFC
FFF8
FFF8
7FF0
3FE0
0FC0
ENDCHAR
STARTCHAR parenleft
ENCODING 40
SWIDTH 483 0
DWIDTH 15 0
BBX 16 21 0 0
BITMAP
1FF0
3C3C
783E
F9FE
F9FE
F9FF
F9FF
F9FF
F9FF
F9FF
F9FF
F9FF
F9FF
F9FF
F83F
FC3F
FFFE
FFFE
7FFC
3FF8
0FF0
ENDCHAR
STARTCHAR parenright
ENCODING 41
SWIDTH 483 0
DWIDTH 15 0
BBX 16 21 0 0
BITMAP
1FF0
3C7C
7C3E
FFBE
FFBE
FFBF
FFBF
FFBF
FFBF
FFBF
FFBF
FFBF
FFBF
FFBF
FC3F
FC7F
FFFE
FFFE
7FFC
3FF8
0FF0
ENDCHAR
STARTCHAR asterisk
ENCODING 42
SWIDTH 428 0
DWIDTH 14 0
BBX 14 21 0 0
BITMAP
1FE0
3930
7938
FC78
F01C
F45C
F93C
F93C
FFFC
FFFC
FFFC
FFFC
FFFC
FFFC
FFFC
FFFC
FFFC
FFF8
7FF8
3FF0
0FC0
ENDCHAR
STARTCHAR plus
ENCODING 43
SWIDTH 428 0
DWIDTH 14 0
BBX 14 21 0 0
BITMAP
1FE0
3CF0
7CF8
FCF8
E01C
E01C
FCFC
FCFC
FCFC
FFFC
FFFC
FFFC
FFFC
FFFC
FFFC
FFFC
FFFC
FFF8
7FF8
3FF0
0FC0
ENDCHAR
STARTCHAR comma
ENCODING 44
SWIDTH 428 0
DWIDTH 14 0
BBX 14 21 0 0
BITMAP
1FE0
3FF0
7FF8
FFF8
FFFC
FFFC
FFFC
FFFC
FFFC
FFFC
FFFC
FFFC
FCFC
FCFC
FEFC
FDFC
FFFC
FFF8
7FF8
3FF0
0FC0
ENDCHAR
STARTCHAR hyphen
ENCODING 45
SWIDTH 428 0
DWIDTH 14 0
BBX 14 21 0 0
BITMAP
1FE0
3FF0
7FF8
FFF8
FFFC
F03C
F03C
FFFC
FFFC
FFFC
FFFC
FFFC
FFFC
FFFC
FFFC
FFFC
FFFC
FFF8
7FF8
3FF0
0FC0
ENDCHAR
STARTCHAR period
ENCODING 46
SWIDTH 428 0
DWIDTH 14 0
BBX 14 21 0 0
BITMAP
1FE0
3FF0
7FF8
FFF8
FFFC
FFFC
FFFC
FFFC
FFFC
FFFC
FFFC
FFFC
FCFC
FCFC
FFFC
FFFC
FFFC
FFF8
7FF8
3FF0
0FC0
ENDCHAR
STARTCHAR slash
ENCODING 47
SWIDTH 428 0
DWIDTH 14 0
BBX 14 21 0 0
BITMAP
1FE0
3E70
7E78
FEF8
FEFC
FCFC
FCFC
FCFC
FCFC
FDFC
FDFC
F9FC
F9FC
F9FC
FFFC
FFFC
FFFC
FFF8
7FF8
3FF0
0FC0
ENDCHAR
STARTCHAR zero
ENCODING 48
SWIDTH 578 0
DWIDTH 19 0
BBX 19 21 0 0
BITMAP
1FFE00
3C0380
7801C0
F9F9C0
F9F9C0
F9F9E0
F9F9E0
F9F9E0
F9F9E0
F9F9E0
F9F9E0
F9F9E0
F801E0
FC03E0
FFFFE0
FFFFE0
FFFFC0
FFFFC0
7FFF80
3FFF00
0FFE00
ENDCHAR
STARTCHAR one
ENCODING 49
SWIDTH 578 0
DWIDTH 19 0
BBX 19 21 0 0
BITMAP
1FFE00
3F1F80
7E1FC0
FF9FC0
FF9FC0
FF9FE0
FF9FE0
FF9FE0
FF9FE0
FF9FE0
FF9FE0
FF9FE0
FF9FE0
FF9FE0
FFFFE0
FFFFE0
FFFFC0
FFFFC0
7FFF80
3FFF00
0FFE00
ENDCHAR
STARTCHAR two
ENCODING 50
SWIDTH 578 0
DWIDTH 19 0
BBX 19 21 0 0
BITMAP
1FFE00
3C0780
7803C0
F9FBC0
FFFBC0
FFFBE0
FFFBE0
FC03E0
F8FFE0
F9FFE0
F9FFE0
F9FFE0
F803E0
FC03E0
FFFFE0
FFFFE0
FFFFC0
FFFFC0
7FFF80
3FFF00
0FFE00
ENDCHAR
STARTCHAR three
ENCODING 51
SWIDTH 578 0
DWIDTH 19 0
BBX 19 21 0 0
BITMAP
1FFE00
380780
7803C0
F3FBC0
FFFBC0
FFFBE0
FFF3E0
FE03E0
FFF3E0
FFFBE0
FFFBE0
F3FBE0
F803E0
F807E0
FFFFE0
FFFFE0
FFFFC0
FFFFC0
7FFF80
3FFF00
0FFE00
ENDCHAR
STARTCHAR four
ENCODING 52
SWIDTH 578 0
DWIDTH 19 0
BBX 19 21 0 0
BITMAP
1FFE00
3DE780
7DE7C0
FDE7C0
FDE7C0
FDE7E0
FDE7E0
FDE7E0
FDE7E0
FC01E0
FE01E0
FFE7E0
FFE7E0
FFE7E0
FFFFE0
FFFFE0
FFFFC0
FFFFC0
7FFF80
3FFF00
0FFE00
ENDCHAR
STARTCHAR five
ENCODING 53
SWIDTH 578 0
DWIDTH 19 0
BBX 19 21 0 0
BITMAP
1FFE00
3C0380
7803C0
F9FFC0
F9FFC0
F9FFE0
F803E0
F803E0
FFF9E0
FFF9E0
FFF9E0
FDF9E0
F803E0
FC03E0
FFFFE0
FFFFE0
FFFFC0
FFFFC0
7FFF80
3FFF00
0FFE00
ENDCHAR
STARTCHAR six
ENCODING 54
SWIDTH 578 0
DWIDTH 19 0
BBX 19 21 0 0
BITMAP
1FFE00
3C0380
7803C0
F9FFC0
F9FFC0
F9FFE0
F803E0
F801E0
F9F9E0
F9F9E0
F9F9E0
F9F9E0
F801E0
FC03E0
FFFFE0
FFFFE0
FFFFC0
FFFFC0
7FFF80
3FFF00
0FFE00
ENDCHAR
STARTCHAR seven
ENCODING 55
SWIDTH 578 0
DWIDTH 19 0
BBX 19 21 0 0
BITMAP
1FFE00
3E0780
7E07C0
FFE7C0
FFE7C0
FFCFE0
FFCFE0
FFDFE0
FF9FE0
FF9FE0
FFBFE0
FF3FE0
FF3FE0
FE7FE0
FFFFE0
FFFFE0
FFFFC0
FFFFC0
7FFF80
3FFF00
0FFE00
ENDCHAR
STARTCHAR eight
ENCODING 56
SWIDTH 578 0
DWIDTH 19 0
BBX 19 21 0 0
BITMAP
1FFE00
3C0380
7801C0
F9F9C0
F9F9C0
F9F9E0
F8F1E0
FC03E0
F9F9E0
F9F9E0
F9F9E0
F9F9E0
F801E0
FC03E0
FFFFE0
FFFFE0
FFFFC0
FFFFC0
7FFF80
3FFF00
0FFE00
ENDCHAR
STARTCHAR nine
ENCODING 57
SWIDTH 578 0
DWIDTH 19 0
BBX 19 21 0 0
BITMAP
1FFE00
3C0380
7803C0
FBF9C0
FBF9C0
FBF9E0
FBF9E0
F801E0
FC01E0
FFF9E0
FFF9E0
FFFBE0
FC03E0
FC03E0
FFFFE0
FFFFE0
FFFFC0
FFFFC0
7FFF80
3FFF00
0FFE00
ENDCHAR
STARTCHAR colon
ENCODING 58
SWIDTH 428 0
DWIDTH 14 0
BBX 14 21 0 0
BITMAP
1FE0
3FF0
7FF8
FFF8
FFFC
FFFC
FFFC
FCFC
FCFC
FFFC
FFFC
FFFC
FCFC
FCFC
FFFC
FFFC
FFFC
FFF8
7FF8
3FF0
0FC0
ENDCHAR
STARTCHAR semicolon
ENCODING 59
SWIDTH 428 0
DWIDTH 14 0
BBX 14 21 0 0
BITMAP
1FE0
3FF0
7FF8
FFF8
FFFC
FFFC
FFFC
FCFC
FCFC
FFFC
FFFC
FFFC
FCFC
FCFC
FEFC
FDFC
FFFC
FFF8
7FF8
3FF0
0FC0
ENDCHAR
STARTCHAR less
ENCODING 60
SWIDTH 482 0
DWIDTH 15 0
BBX 16 23 0 1
BITMAP
1FF0
3FF8
7FFC
FFFE
FFFE
FFFE
FF3F
FF7F
FEFF
FDFF
FBFF
F7FF
FBFF
FDFF
FEFF
FE7F
FF3F
FFFE
FFFE
7FFE
3FFC
1FF0
0100
ENDCHAR
STARTCHAR equal
ENCODING 61
SWIDTH 482 0
DWIDTH 15 0
BBX 16 23 0 1
BITMAP
1FF0
3FFC
7FFC
FFFE
FFFE
FFFE
FFFF
FFFF
FFFF
F81F
FFFF
FFFF
F81F
FFFF
FFFF
FFFF
FFFF
FFFE
FFFE
7FFE
3FFC
1FF0
0100
ENDCHAR
STARTCHAR greater
ENCODING 62
SWIDTH 482 0
DWIDTH 15 0
BBX 16 23 0 1
BITMAP
1FF0
3FFC
7FFC
FFFE
FFFE
FFFE
FDFF
FEFF
FE7F
FF3F
FF9F
FFDF
FF9F
FF3F
FF7F
FEFF
FDFF
FFFE
FFFE
7FFE
3FFC
1FF0
0100
ENDCHAR
STARTCHAR question
ENCODING 63
SWIDTH 578 0
DWIDTH 19 0
BBX 19 21 0 0
BITMAP
1FFE00
3E0780
7C13C0
FDFBC0
FFFBC0
FFFBE0
FFFBE0
FFC3E0
FF87E0
FFBFE0
FFBFE0
FFFFE0
FF9FE0
FF9FE0
FFFFE0
FFFFE0
FFFFC0
FFFFC0
7FFF80
3FFF00
0FFE00
ENDCHAR
STARTCHAR at
ENCODING 64
SWIDTH 578 0
DWIDTH 19 0
BBX 19 21 0 0
BITMAP
1FFE00
3C0380
71F9C0
E7FCC0
EE0EC0
EFE6E0
EFF6E0
EFF6E0
EE06E0
ECF6E0
ECF6E0
EE06E0
E7F0E0
F7FFE0
F03FE0
FE3FE0
FFFFC0
FFFFC0
7FFF80
3FFF00
0FFE00
ENDCHAR
STARTCHAR A
ENCODING 65
SWIDTH 578 0
DWIDTH 19 0
BBX 19 21 0 0
BITMAP
1FFE00
3E0780
7C03C0
FDF3C0
FDF3C0
FDF3E0
F9F3E0
F9FBE0
F803E0
F9FBE0
F9F9E0
F9F9E0
F9F9E0
FBF9E0
FFFFE0
FFFFE0
FFFFC0
FFFFC0
7FFF80
3FFF00
0FFE00
ENDCHAR
STARTCHAR B
ENCODING 66
SWIDTH 578 0
DWIDTH 19 0
BBX 19 21 0 0
BITMAP
1FFE00
380780
7803C0
FBF3C0
FBF3C0
FBFBE0
FBE3E0
F807E0
FBF3E0
FBFBE0
FBFBE0
FBF3E0
F803E0
F807E0
FFFFE0
FFFFE0
FFFFC0
FFFFC0
7FFF80
3FFF00
0FFE00
ENDCHAR
STARTCHAR C
ENCODING 67
SWIDTH 578 0
DWIDTH 19 0
BBX 19 21 0 0
BITMAP
1FFE00
3C0780
7807C0
F9FFC0
F9FFC0
F9FFE0
F9FFE0
F9FFE0
F9FFE0
F9FFE0
F9FFE0
F9FFE0
F807E0
FC07E0
FFFFE0
FFFFE0
FFFFC0
FFFFC0
7FFF80
3FFF00
0FFE00
ENDCHAR
STARTCHAR D
ENCODING 68
SWIDTH 578 0
DWIDTH 19 0
BBX 19 21 0 0
BITMAP
1FFE00
380380
7801C0
F9F9C0
F9F9C0
F9F9E0
F9F9E0
F9F9E0
F9F9E0
F9F9E0
F9F9E0
F9F9E0
F801E0
F803E0
FFFFE0
FFFFE0
FFFFC0
FFFFC0
7FFF80
3FFF00
0FFE00
ENDCHAR
STARTCHAR E
ENCODING 69
SWIDTH 578 0
DWIDTH 19 0
BBX 19 21 0 0
BITMAP
1FFE00
3C0380
7C03C0
FCFFC0
FCFFC0
FCFFE0
FCFFE0
FC07E0
FCFFE0
FCFFE0
FCFFE0
FCFFE0
FC03E0
FC03E0
FFFFE0
FFFFE0
FFFFC0
FFFFC0
7FFF80
3FFF00
0FFE00
ENDCHAR
STARTCHAR F
ENCODING 70
SWIDTH 578 0
DWIDTH 19 0
BBX 19 21 0 0
BITMAP
1FFE00
3C0380
7C03C0
FCFFC0
FCFFC0
FCFFE0
FC07E0
FC07E0
FCFFE0
FCFFE0
FCFFE0
FCFFE0
FCFFE0
FCFFE0
FFFFE0
FFFFE0
FFFFC0
FFFFC0
7FFF80
3FFF00
0FFE00
ENDCHAR
STARTCHAR G
ENCODING 71
SWIDTH 578 0
DWIDTH 19 0
BBX 19 21 0 0
BITMAP
1FFE00
3C0380
7C03C0
F9FFC0
F9FFC0
F9FFE0
F9FFE0
F9C1E0
F9C1E0
F9F9E0
F9F9E0
F9F9E0
FC01E0
FC03E0
FFFFE0
FFFFE0
FFFFC0
FFFFC0
7FFF80
3FFF00
0FFE00
ENDCHAR
STARTCHAR H
ENCODING 72
SWIDTH 578 0
DWIDTH 19 0
BBX 19 21 0 0
BITMAP
1FFE00
39F980
79F9C0
F9F9C0
F9F9C0
F9F9E0
F801E0
F801E0
F9F9E0
F9F9E0
F9F9E0
F9F9E0
F9F9E0
F9F9E0
FFFFE0
FFFFE0
FFFFC0
FFFFC0
7FFF80
3FFF00
0FFE00
ENDCHAR
STARTCHAR I
ENCODING 73
SWIDTH 578 0
DWIDTH 19 0
BBX 19 21 0 0
BITMAP
1FFE00
3C0180
7C01C0
FF9FC0
FF9FC0
FF9FE0
FF9FE0
FF9FE0
FF9FE0
FF9FE0
FF9FE0
FF9FE0
FC01E0
FC01E0
FFFFE0
FFFFE0
FFFFC0
FFFFC0
7FFF80
3FFF00
0FFE00
ENDCHAR
STARTCHAR J
ENCODING 74
SWIDTH 578 0
DWIDTH 19 0
BBX 19 21 0 0
BITMAP
1FFE00
3FEF80
7FEFC0
FFEFC0
FFEFC0
FFEFE0
FFEFE0
FFEFE0
FFEFE0
FFEFE0
FFEFE0
FFEFE0
FE0FE0
FE1FE0
FFFFE0
FFFFE0
FFFFC0
FFFFC0
7FFF80
3FFF00
0FFE00
ENDCHAR
STARTCHAR K
ENCODING 75
SWIDTH 578 0
DWIDTH 19 0
BBX 19 21 0 0
BITMAP
1FFE00
3CFD80
7CF9C0
FCE3C0
FCC7C0
FC8FE0
FC9FE0
FC3FE0
FC9FE0
FCCFE0
FCE7E0
FCF3E0
FCF9E0
FCF9E0
FFFFE0
FFFFE0
FFFFC0
FFFFC0
7FFF80
3FFF00
0FFE00
ENDCHAR
STARTCHAR L
ENCODING 76
SWIDTH 578 0
DWIDTH 19 0
BBX 19 21 0 0
BITMAP
1FFE00
3E7F80
7E7FC0
FE7FC0
FE7FC0
FE7FE0
FE7FE0
FE7FE0
FE7FE0
FE7FE0
FE7FE0
FE7FE0
FE07E0
FE07E0
FFFFE0
FFFFE0
FFFFC0
FFFFC0
7FFF80
3FFF00
0FFE00
ENDCHAR
STARTCHAR M
ENCODING 77
SWIDTH 578 0
DWIDTH 19 0
BBX 19 21 0 0
BITMAP
1FFE00
384180
7001C0
F39DC0
F39DC0
F39DE0
F39DE0
F39DE0
F39DE0
F3FDE0
F3FDE0
F3FDE0
F3FDE0
F3FDE0
FFFFE0
FFFFE0
FFFFC0
FFFFC0
7FFF80
3FFF00
0FFE00
ENDCHAR
STARTCHAR N
ENCODING 78
SWIDTH 578 0
DWIDTH 19 0
BBX 19 21 0 0
BITMAP
1FFE00
380380
7803C0
F9F9C0
F9F9C0
F9F9E0
F9F9E0
F9F9E0
F9F9E0
F9F9E0
F9F9E0
F9F9E0
F9F9E0
F9F9E0
FFFFE0
FFFFE0
FFFFC0
FFFFC0
7FFF80
3FFF00
0FFE00
ENDCHAR
STARTCHAR O
ENCODING 79
SWIDTH 578 0
DWIDTH 19 0
BBX 19 21 0 0
BITMAP
1FFE00
3C0380
7801C0
F9F9C0
F9F9C0
F9F9E0
F9F9E0
F9F9E0
F9F9E0
F9F9E0
F9F9E0
F9F9E0
F801E0
FC03E0
FFFFE0
FFFFE0
FFFFC0
FFFFC0
7FFF80
3FFF00
0FFE00
ENDCHAR
STARTCHAR P
ENCODING 80
SWIDTH 578 0
DWIDTH 19 0
BBX 19 21 0 0
BITMAP
1FFE00
3C0380
7C03C0
FCF9C0
FCF9C0
FCF9E0
FCF9E0
FCFBE0
FC03E0
FCFFE0
FCFFE0
FCFFE0
FCFFE0
FCFFE0
FFFFE0
FFFFE0
FFFFC0
FFFFC0
7FFF80
3FFF00
0FFE00
ENDCHAR
STARTCHAR Q
ENCODING 81
SWIDTH 578 0
DWIDTH 19 0
BBX 19 21 0 0
BITMAP
1FFE00
3C0380
7801C0
F9F9C0
F9F9C0
F9F9E0
F9F9E0
F9F9E0
F9F9E0
F9F9E0
F9F9E0
F9D9E0
F801E0
FC03E0
FFE7E0
FFE7E0
FFFFC0
FFFFC0
7FFF80
3FFF00
0FFE00
ENDCHAR
STARTCHAR R
ENCODING 82
SWIDTH 578 0
DWIDTH 19 0
BBX 19 21 0 0
BITMAP
1FFE00
380780
7803C0
F9F3C0
F9F3C0
F9F3E0
F9F3E0
F80FE0
F803E0
F9F3E0
F9F3E0
F9F3E0
F9F3E0
F9F3E0
FFFFE0
FFFFE0
FFFFC0
FFFFC0
7FFF80
3FFF00
0FFE00
ENDCHAR
STARTCHAR S
ENCODING 83
SWIDTH 578 0
DWIDTH 19 0
BBX 19 21 0 0
BITMAP
1FFE00
3C0380
7C03C0
F9FFC0
F9FFC0
F9FFE0
FCFFE0
FC03E0
FFFBE0
FFF9E0
FFF9E0
FFF9E0
FC03E0
FC03E0
FFFFE0
FFFFE0
FFFFC0
FFFFC0
7FFF80
3FFF00
0FFE00
ENDCHAR
STARTCHAR T
ENCODING 84
SWIDTH 578 0
DWIDTH 19 0
BBX 19 21 0 0
BITMAP
1FFE00
3C0180
7C01C0
FF9FC0
FF9FC0
FF9FE0
FF9FE0
FF9FE0
FF9FE0
FF9FE0
FF9FE0
FF9FE0
FF9FE0
FF9FE0
FFFFE0
FFFFE0
FFFFC0
FFFFC0
7FFF80
3FFF00
0FFE00
ENDCHAR
STARTCHAR U
ENCODING 85
SWIDTH 578 0
DWIDTH 19 0
BBX 19 21 0 0
BITMAP
1FFE00
39F980
79F9C0
F9F9C0
F9F9C0
F9F9E0
F9F9E0
F9F9E0
F9F9E0
F9F9E0
F9F9E0
F9F9E0
F801E0
FC03E0
FFFFE0
FFFFE0
FFFFC0
FFFFC0
7FFF80
3FFF00
0FFE00
ENDCHAR
STARTCHAR V
ENCODING 86
SWIDTH 578 0
DWIDTH 19 0
BBX 19 21 0 0
BITMAP
1FFE00
39F980
79F9C0
F9F3C0
FCF3C0
FCF3E0
FCF7E0
FCE7E0
FE67E0
FE67E0
FE6FE0
FF4FE0
FF0FE0
FF9FE0
FFFFE0
FFFFE0
FFFFC0
FFFFC0
7FFF80
3FFF00
0FFE00
ENDCHAR
STARTCHAR W
ENCODING 87
SWIDTH 578 0
DWIDTH 19 0
BBX 19 21 0 0
BITMAP
1FFF00
27FC80
779CC0
F79CC0
F31CC0
F31DE0
F35DE0
F35DE0
F349E0
F349E0
F249E0
FA69E0
F861E0
F8E3E0
FFFFE0
FFFFE0
FFFFC0
FFFFC0
7FFF80
3FFF00
0FFE00
ENDCHAR
STARTCHAR X
ENCODING 88
SWIDTH 578 0
DWIDTH 19 0
BBX 19 21 0 0
BITMAP
1FFE00
39F980
7DF9C0
FCF3C0
FE67C0
FE67E0
FF2FE0
FF9FE0
FF0FE0
FE67E0
FE67E0
FCF3E0
FDF9E0
F9F9E0
FFFFE0
FFFFE0
FFFFC0
FFFFC0
7FFF80
3FFF00
0FFE00
ENDCHAR
STARTCHAR Y
ENCODING 89
SWIDTH 578 0
DWIDTH 19 0
BBX 19 21 0 0
BITMAP
1FFE00
39F980
7CF3C0
FCF3C0
FE67C0
FE67E0
FF6FE0
FF4FE0
FF0FE0
FF9FE0
FF9FE0
FF9FE0
FF9FE0
FF9FE0
FFFFE0
FFFFE0
FFFFC0
FFFFC0
7FFF80
3FFF00
0FFE00
ENDCHAR
STARTCHAR Z
ENCODING 90
SWIDTH 578 0
DWIDTH 19 0
BBX 19 21 0 0
BITMAP
1FFE00
3C0780
7C07C0
FFE7C0
FFCFC0
FFCFE0
FF9FE0
FF9FE0
FF3FE0
FF7FE0
FE7FE0
FEFFE0
FC03E0
FC03E0
FFFFE0
FFFFE0
FFFFC0
FFFFC0
7FFF80
3FFF00
0FFE00
ENDCHAR
STARTCHAR bracketleft
ENCODING 91
SWIDTH 484 0
DWIDTH 16 0
BBX 16 21 0 0
BITMAP
1FF0
3E7C
7EFE
FEFE
FEFE
FEFF
FEFF
FEFF
FEFF
FEFF
FEFF
FEFF
FEFF
FEFF
FE7F
FFFF
FFFE
FFFE
7FFC
3FF8
0FF0
ENDCHAR
STARTCHAR backslash
ENCODING 92
SWIDTH 516 0
DWIDTH 17 0
BBX 17 21 0 0
BITMAP
1FF800
3EFE00
7E7F00
FE7F00
FE7F00
FE7F80
FF7F80
FF7F80
FF3F80
FF3F80
FF3F80
FF3F80
FFBF80
FFBF80
FFFF80
FFFF80
FFFF00
FFFF00
7FFE00
3FFC00
0FF800
ENDCHAR
STARTCHAR bracketright
ENCODING 93
SWIDTH 484 0
DWIDTH 16 0
BBX 16 21 0 0
BITMAP
1FF0
3C7C
7E7E
FE7E
FE7E
FE7F
FE7F
FE7F
FE7F
FE7F
FE7F
FE7F
FE7F
FE7F
FC7F
FFFF
FFFE
FFFE
7FFC
3FF8
0FF0
ENDCHAR
STARTCHAR asciicircum
ENCODING 94
SWIDTH 355 0
DWIDTH 11 0
BBX 11 11 0 8
BITMAP
0F00
3F80
3F80
3BC0
7DC0
75E0
FEE0
EEE0
FFE0
FFE0
7FE0
ENDCHAR
STARTCHAR underscore
ENCODING 95
SWIDTH 428 0
DWIDTH 14 0
BBX 14 21 0 0
BITMAP
1FE0
3FF0
7FF8
FFF8
FFFC
FFFC
FFFC
FFFC
FFFC
FFFC
FFFC
FFFC
FFFC
FFFC
E03C
E03C
FFFC
FFF8
7FF8
3FF0
0FC0
ENDCHAR
STARTCHAR grave
ENCODING 96
SWIDTH 308 0
DWIDTH 10 0
BBX 10 11 0 0
BITMAP
1C00
7F00
FF00
F780
F380
7B80
7BC0
39C0
3FC0
1F80
0F00
ENDCHAR
STARTCHAR a
ENCODING 97
SWIDTH 578 0
DWIDTH 19 0
BBX 19 21 0 0
BITMAP
1FFE00
3C0780
7C03C0
FFF3C0
FFF3C0
FFF3E0
FFF3E0
FC03E0
F803E0
FBF3E0
FBF3E0
FBF3E0
F803E0
FC03E0
FFFFE0
FFFFE0
FFFFC0
FFFFC0
7FFF80
3FFF00
0FFE00
ENDCHAR
STARTCHAR b
ENCODING 98
SWIDTH 578 0
DWIDTH 19 0
BBX 19 21 0 0
BITMAP
1FFE00
380780
7803C0
FBF3C0
FBF3C0
FBFBE0
FBE3E0
F807E0
FBF3E0
FBFBE0
FBFBE0
FBF3E0
F803E0
F807E0
FFFFE0
FFFFE0
FFFFC0
FFFFC0
7FFF80
3FFF00
0FFE00
ENDCHAR
STARTCHAR c
ENCODING 99
SWIDTH 578 0
DWIDTH 19 0
BBX 19 21 0 0
BITMAP
1FFE00
3C0780
7807C0
F9FFC0
F9FFC0
F9FFE0
F9FFE0
F9FFE0
F9FFE0
F9FFE0
F9FFE0
F9FFE0
F807E0
FC07E0
FFFFE0
FFFFE0
FFFFC0
FFFFC0
7FFF80
3FFF00
0FFE00
ENDCHAR
STARTCHAR d
ENCODING 100
SWIDTH 578 0
DWIDTH 19 0
BBX 19 21 0 0
BITMAP
1FFE00
380380
7801C0
F9F9C0
F9F9C0
F9F9E0
F9F9E0
F9F9E0
F9F9E0
F9F9E0
F9F9E0
F9F9E0
F801E0
F803E0
FFFFE0
FFFFE0
FFFFC0
FFFFC0
7FFF80
3FFF00
0FFE00
ENDCHAR
STARTCHAR e
ENCODING 101
SWIDTH 578 0
DWIDTH 19 0
BBX 19 21 0 0
BITMAP
1FFE00
3C0780
7803C0
FBF3C0
FBF3C0
FBF3E0
F803E0
FBFFE0
FBFFE0
FBFFE0
FBFFE0
F9FFE0
F807E0
FFFFE0
FFFFE0
FFFFE0
FFFFC0
FFFFC0
7FFF80
3FFF00
0FFE00
ENDCHAR
STARTCHAR f
ENCODING 102
SWIDTH 578 0
DWIDTH 19 0
BBX 19 21 0 0
BITMAP
1FFE00
3C0380
7C03C0
FCFFC0
FCFFC0
FCFFE0
FC07E0
FC07E0
FCFFE0
FCFFE0
FCFFE0
FCFFE0
FCFFE0
FCFFE0
FFFFE0
FFFFE0
FFFFC0
FFFFC0
7FFF80
3FFF00
0FFE00
ENDCHAR
STARTCHAR g
ENCODING 103
SWIDTH 578 0
DWIDTH 19 0
BBX 19 21 0 0
BITMAP
1FFE00
3C0380
7C03C0
F9FFC0
F9FFC0
F9FFE0
F9FFE0
F9C1E0
F9C1E0
F9F9E0
F9F9E0
F9F9E0
FC01E0
FC03E0
FFFFE0
FFFFE0
FFFFC0
FFFFC0
7FFF80
3FFF00
0FFE00
ENDCHAR
STARTCHAR h
ENCODING 104
SWIDTH 578 0
DWIDTH 19 0
BBX 19 21 0 0
BITMAP
1FFE00
39F980
79F9C0
F9F9C0
F9F9C0
F9F9E0
F801E0
F801E0
F9F9E0
F9F9E0
F9F9E0
F9F9E0
F9F9E0
F9F9E0
FFFFE0
FFFFE0
FFFFC0
FFFFC0
7FFF80
3FFF00
0FFE00
ENDCHAR
STARTCHAR i
ENCODING 105
SWIDTH 578 0
DWIDTH 19 0
BBX 19 21 0 0
BITMAP
1FFE00
3C0180
7C01C0
FF9FC0
FF9FC0
FF9FE0
FF9FE0
FF9FE0
FF9FE0
FF9FE0
FF9FE0
FF9FE0
FC01E0
FC01E0
FFFFE0
FFFFE0
FFFFC0
FFFFC0
7FFF80
3FFF00
0FFE00
ENDCHAR
STARTCHAR j
ENCODING 106
SWIDTH 578 0
DWIDTH 19 0
BBX 19 21 0 0
BITMAP
1FFE00
3FEF80
7FEFC0
FFEFC0
FFEFC0
FFEFE0
FFEFE0
FFEFE0
FFEFE0
FFEFE0
FFEFE0
FFEFE0
FE0FE0
FE1FE0
FFFFE0
FFFFE0
FFFFC0
FFFFC0
7FFF80
3FFF00
0FFE00
ENDCHAR
STARTCHAR k
ENCODING 107
SWIDTH 578 0
DWIDTH 19 0
BBX 19 21 0 0
BITMAP
1FFE00
3CFD80
7CF9C0
FCE3C0
FCC7C0
FC8FE0
FC9FE0
FC3FE0
FC9FE0
FCCFE0
FCE7E0
FCF3E0
FCF9E0
FCF9E0
FFFFE0
FFFFE0
FFFFC0
FFFFC0
7FFF80
3FFF00
0FFE00
ENDCHAR
STARTCHAR l
ENCODING 108
SWIDTH 578 0
DWIDTH 19 0
BBX 19 21 0 0
BITMAP
1FFE00
3E7F80
7E7FC0
FE7FC0
FE7FC0
FE7FE0
FE7FE0
FE7FE0
FE7FE0
FE7FE0
FE7FE0
FE7FE0
FE07E0
FE07E0
FFFFE0
FFFFE0
FFFFC0
FFFFC0
7FFF80
3FFF00
0FFE00
ENDCHAR
STARTCHAR m
ENCODING 109
SWIDTH 578 0
DWIDTH 19 0
BBX 19 21 0 0
BITMAP
1FFE00
384180
7001C0
F39DC0
F39DC0
F39DE0
F39DE0
F39DE0
F39DE0
F3FDE0
F3FDE0
F3FDE0
F3FDE0
F3FDE0
FFFFE0
FFFFE0
FFFFC0
FFFFC0
7FFF80
3FFF00
0FFE00
ENDCHAR
STARTCHAR n
ENCODING 110
SWIDTH 578 0
DWIDTH 19 0
BBX 19 21 0 0
BITMAP
1FFE00
380380
7803C0
F9F9C0
F9F9C0
F9F9E0
F9F9E0
F9F9E0
F9F9E0
F9F9E0
F9F9E0
F9F9E0
F9F9E0
F9F9E0
FFFFE0
FFFFE0
FFFFC0
FFFFC0
7FFF80
3FFF00
0FFE00
ENDCHAR
STARTCHAR o
ENCODING 111
SWIDTH 578 0
DWIDTH 19 0
BBX 19 21 0 0
BITMAP
1FFE00
3C0380
7801C0
F9F9C0
F9F9C0
F9F9E0
F9F9E0
F9F9E0
F9F9E0
F9F9E0
F9F9E0
F9F9E0
F801E0
FC03E0
FFFFE0
FFFFE0
FFFFC0
FFFFC0
7FFF80
3FFF00
0FFE00
ENDCHAR
STARTCHAR p
ENCODING 112
SWIDTH 578 0
DWIDTH 19 0
BBX 19 21 0 0
BITMAP
1FFE00
3C0380
7C03C0
FCF9C0
FCF9C0
FCF9E0
FCF9E0
FCFBE0
FC03E0
FCFFE0
FCFFE0
FCFFE0
FCFFE0
FCFFE0
FFFFE0
FFFFE0
FFFFC0
FFFFC0
7FFF80
3FFF00
0FFE00
ENDCHAR
STARTCHAR q
ENCODING 113
SWIDTH 578 0
DWIDTH 19 0
BBX 19 21 0 0
BITMAP
1FFE00
3C0380
7801C0
F9F9C0
F9F9C0
F9F9E0
F9F9E0
F9F9E0
F9F9E0
F9F9E0
F9F9E0
F9D9E0
F801E0
FC03E0
FFE7E0
FFE7E0
FFFFC0
FFFFC0
7FFF80
3FFF00
0FFE00
ENDCHAR
STARTCHAR r
ENCODING 114
SWIDTH 578 0
DWIDTH 19 0
BBX 19 21 0 0
BITMAP
1FFE00
380780
7803C0
F9F3C0
F9F3C0
F9F3E0
F9F3E0
F80FE0
F803E0
F9F3E0
F9F3E0
F9F3E0
F9F3E0
F9F3E0
FFFFE0
FFFFE0
FFFFC0
FFFFC0
7FFF80
3FFF00
0FFE00
ENDCHAR
STARTCHAR s
ENCODING 115
SWIDTH 578 0
DWIDTH 19 0
BBX 19 21 0 0
BITMAP
1FFE00
3C0380
7C03C0
F9FFC0
F9FFC0
F9FFE0
FCFFE0
FC03E0
FFFBE0
FFF9E0
FFF9E0
FFF9E0
FC03E0
FC03E0
FFFFE0
FFFFE0
FFFFC0
FFFFC0
7FFF80
3FFF00
0FFE00
ENDCHAR
STARTCHAR t
ENCODING 116
SWIDTH 578 0
DWIDTH 19 0
BBX 19 21 0 0
BITMAP
1FFE00
3C0180
7C01C0
FF9FC0
FF9FC0
FF9FE0
FF9FE0
FF9FE0
FF9FE0
FF9FE0
FF9FE0
FF9FE0
FF9FE0
FF9FE0
FFFFE0
FFFFE0
FFFFC0
FFFFC0
7FFF80
3FFF00
0FFE00
ENDCHAR
STARTCHAR u
ENCODING 117
SWIDTH 578 0
DWIDTH 19 0
BBX 19 21 0 0
BITMAP
1FFE00
39F980
79F9C0
F9F9C0
F9F9C0
F9F9E0
F9F9E0
F9F9E0
F9F9E0
F9F9E0
F9F9E0
F9F9E0
F801E0
FC03E0
FFFFE0
FFFFE0
FFFFC0
FFFFC0
7FFF80
3FFF00
0FFE00
ENDCHAR
STARTCHAR v
ENCODING 118
SWIDTH 578 0
DWIDTH 19 0
BBX 19 21 0 0
BITMAP
1FFE00
39F980
79F9C0
F9F3C0
FCF3C0
FCF3E0
FCF7E0
FCE7E0
FE67E0
FE67E0
FE6FE0
FF4FE0
FF0FE0
FF9FE0
FFFFE0
FFFFE0
FFFFC0
FFFFC0
7FFF80
3FFF00
0FFE00
ENDCHAR
STARTCHAR w
ENCODING 119
SWIDTH 578 0
DWIDTH 19 0
BBX 19 21 0 0
BITMAP
1FFF00
27FC80
779CC0
F79CC0
F31CC0
F31DE0
F35DE0
F35DE0
F349E0
F349E0
F249E0
FA69E0
F861E0
F8E3E0
FFFFE0
FFFFE0
FFFFC0
FFFFC0
7FFF80
3FFF00
0FFE00
ENDCHAR
STARTCHAR x
ENCODING 120
SWIDTH 578 0
DWIDTH 19 0
BBX 19 21 0 0
BITMAP
1FFE00
39F980
7DF9C0
FCF3C0
FE67C0
FE67E0
FF2FE0
FF9FE0
FF0FE0
FE67E0
FE67E0
FCF3E0
FDF9E0
F9F9E0
FFFFE0
FFFFE0
FFFFC0
FFFFC0
7FFF80
3FFF00
0FFE00
ENDCHAR
STARTCHAR y
ENCODING 121
SWIDTH 578 0
DWIDTH 19 0
BBX 19 21 0 0
BITMAP
1FFE00
39F980
7CF3C0
FCF3C0
FE67C0
FE67E0
FF6FE0
FF4FE0
FF0FE0
FF9FE0
FF9FE0
FF9FE0
FF9FE0
FF9FE0
FFFFE0
FFFFE0
FFFFC0
FFFFC0
7FFF80
3FFF00
0FFE00
ENDCHAR
STARTCHAR z
ENCODING 122
SWIDTH 578 0
DWIDTH 19 0
BBX 19 21 0 0
BITMAP
1FFE00
3C0780
7C07C0
FFE7C0
FFCFC0
FFCFE0
FF9FE0
FF9FE0
FF3FE0
FF7FE0
FE7FE0
FEFFE0
FC03E0
FC03E0
FFFFE0
FFFFE0
FFFFC0
FFFFC0
7FFF80
3FFF00
0FFE00
ENDCHAR
STARTCHAR braceleft
ENCODING 123
SWIDTH 484 0
DWIDTH 16 0
BBX 16 21 0 0
BITMAP
1FF0
3C3C
7DFE
FDFE
FDFE
FDFF
FDFF
E1FF
E1FF
FDFF
FDFF
FDFF
FDFF
FDFF
FC3F
FF3F
FFFE
FFFE
7FFC
3FF8
0FF0
ENDCHAR
STARTCHAR bar
ENCODING 124
SWIDTH 484 0
DWIDTH 16 0
BBX 16 21 0 0
BITMAP
1EF0
3EFC
7EFE
FEFE
FEFE
FEFF
FEFF
FEFF
FEFF
FEFF
FEFF
FEFF
FEFF
FEFF
FEFF
FFFF
FFFE
FFFE
7FFC
3FF8
0FF0
ENDCHAR
STARTCHAR braceright
ENCODING 125
SWIDTH 484 0
DWIDTH 16 0
BBX 16 21 0 0
BITMAP
1FF0
387C
7F3E
FF3E
FF3E
FF3F
FF3F
FF07
FF87
FF3F
FF3F
FF3F
FF3F
FF3F
F87F
F9FF
FFFE
FFFE
7FFC
3FF8
0FF0
ENDCHAR
STARTCHAR asciitilde
ENCODING 126
SWIDTH 578 0
DWIDTH 19 0
BBX 19 21 0 0
BITMAP
1FFE00
3FFF80
7FFFC0
FFFFC0
FFFBC0
F813E0
F903E0
FBFFE0
FFFFE0
FFFFE0
FFFFE0
FFFFE0
FFFFE0
FFFFE0
FFFFE0
FFFFE0
FFFFC0
FFFFC0
7FFF80
3FFF00
0FFE00
ENDCHAR
STARTCHAR uni00A0
ENCODING 160
SWIDTH 151 0
DWIDTH 5 0
BBX 1 1 0 0
BITMAP
00
ENDCHAR
STARTCHAR exclamdown
ENCODING 161
SWIDTH 424 0
DWIDTH 14 0
BBX 14 21 0 0
BITMAP
1FE0
3CF0
7CF8
FFF8
FCFC
FCFC
FCFC
FCFC
FCFC
FCFC
FCFC
FCFC
FCFC
FCFC
FFFC
FFFC
FFF8
FFF8
7FF0
3FE0
0FC0
ENDCHAR
STARTCHAR cent
ENCODING 162
SWIDTH 578 0
DWIDTH 19 0
BBX 19 21 0 0
BITMAP
1FFE00
3FBF80
7FBFC0
FC07C0
FDBFC0
FDBFE0
FDBFE0
FDBFE0
FDBFE0
FDBFE0
FDBFE0
FCB7E0
FC07E0
FFBFE0
FFBFE0
FFBFE0
FFFFC0
FFFFC0
7FFF80
3FFF00
0FFE00
ENDCHAR
STARTCHAR sterling
ENCODING 163
SWIDTH 578 0
DWIDTH 19 0
BBX 19 21 0 0
BITMAP
1FFE00
3F0F80
7E07C0
FEF7C0
FEF7C0
FEFFE0
FEFFE0
FC0FE0
FEFFE0
FEFFE0
FEFFE0
FEFFE0
FE07E0
FE07E0
FFFFE0
FFFFE0
FFFFC0
FFFFC0
7FFF80
3FFF00
0FFE00
ENDCHAR
STARTCHAR currency
ENCODING 164
SWIDTH 578 0
DWIDTH 19 0
BBX 19 21 0 0
BITMAP
1FFE00
3FFB80
7803C0
FC07C0
FDF3C0
FDF3E0
FDF3E0
FDF3E0
FCF3E0
FC07E0
F90BE0
FFFBE0
FFFFE0
FFFFE0
FFFFE0
FFFFE0
FFFFC0
FFFFC0
7FFF80
3FFF00
0FFE00
ENDCHAR
STARTCHAR yen
ENCODING 165
SWIDTH 578 0
DWIDTH 19 0
BBX 19 21 0 0
BITMAP
1FFE00
39F380
79F3C0
FCE7C0
FCE7C0
FECFE0
FE4FE0
FE5FE0
FF1FE0
FC07E0
FFBFE0
FC07E0
FFBFE0
FFBFE0
FFFFE0
FFFFE0
FFFFC0
FFFFC0
7FFF80
3FFF00
0FFE00
ENDCHAR
STARTCHAR brokenbar
ENCODING 166
SWIDTH 484 0
DWIDTH 16 0
BBX 16 21 0 0
BITMAP
1FF0
3E7C
7E7E
FE7E
FE7E
FE7F
FFFF
FFFF
FE7F
FE7F
FE7F
FE7F
FE7F
FE7F
FFFF
FFFF
FFFE
FFFE
7FFC
3FF8
0FF0
ENDCHAR
STARTCHAR section
ENCODING 167
SWIDTH 578 0
DWIDTH 19 0
BBX 19 21 0 0
BITMAP
1FFE00
3E0380
7CF3C0
FDFFC0
FDFFC0
FC1FE0
FE0FE0
FEEFE0
FEEFE0
FE0FE0
FF07E0
FFF3E0
FFF3E0
FFF3E0
F807E0
FFFFE0
FFFFC0
FFFFC0
7FFF80
3FFF00
0FFE00
ENDCHAR
STARTCHAR dieresis
ENCODING 168
SWIDTH 388 0
DWIDTH 12 0
BBX 12 8 0 1
BITMAP
1FC0
7FE0
FFF0
FFF0
E670
E670
FFF0
7FE0
ENDCHAR
STARTCHAR copyright
ENCODING 169
SWIDTH 578 0
DWIDTH 19 0
BBX 19 21 0 0
BITMAP
1FFE00
3E0F80
79F3C0
F3FDC0
E60EC0
EEFEE0
CEFF60
DEFF60
DEFF60
DEFF60
EEFF60
EEFEE0
F604E0
F3F9E0
FCE3E0
FF1FE0
FFFFC0
FFFFC0
7FFF80
3FFF00
0FFE00
ENDCHAR
STARTCHAR ordfeminine
ENCODING 170
SWIDTH 578 0
DWIDTH 19 0
BBX 19 21 0 0
BITMAP
1FFE00
3E0780
7E03C0
FFF3C0
FFF3C0
FFF3E0
FC03E0
FCF3E0
FDF3E0
FCF3E0
FC07E0
FE07E0
FFFFE0
FFFFE0
FFFFE0
FFFFE0
FFFFC0
FFFFC0
7FFF80
3FFF00
0FFE00
ENDCHAR
STARTCHAR guillemotleft
ENCODING 171
SWIDTH 578 0
DWIDTH 19 0
BBX 19 21 0 0
BITMAP
1FFE00
3FFF80
7FFFC0
FF77C0
FE6FC0
FECFE0
FDDFE0
F9BFE0
FB7FE0
FBBFE0
FD9FE0
FECFE0
FE6FE0
FF77E0
FFFFE0
FFFFE0
FFFFC0
FFFFC0
7FFF80
3FFF00
0FFE00
ENDCHAR
STARTCHAR uni00AD
ENCODING 173
SWIDTH 428 0
DWIDTH 14 0
BBX 14 21 0 0
BITMAP
1FE0
3FF0
7FF8
FFF8
FFFC
F03C
F03C
FFFC
FFFC
FFFC
FFFC
FFFC
FFFC
FFFC
FFFC
FFFC
FFFC
FFF8
7FF8
3FF0
0FC0
ENDCHAR
STARTCHAR registered
ENCODING 174
SWIDTH 578 0
DWIDTH 19 0
BBX 19 21 0 0
BITMAP
1FFE00
3E0F80
79F3C0
F3FDC0
E60EC0
EEF6E0
CEF760
DEF760
DE1F60
DEF760
EEF760
EEF6E0
F6F4E0
F3F9E0
FCE3E0
FF1FE0
FFFFC0
FFFFC0
7FFF80
3FFF00
0FFE00
ENDCHAR
STARTCHAR macron
ENCODING 175
SWIDTH 428 0
DWIDTH 14 0
BBX 14 9 0 0
BITMAP
1FE0
7FF0
7FF8
FFFC
F03C
F03C
FFF8
7FF8
3FF0
ENDCHAR
STARTCHAR degree
ENCODING 176
SWIDTH 428 0
DWIDTH 14 0
BBX 14 21 0 0
BITMAP
1FE0
3870
7038
F738
F73C
F07C
FCFC
FFFC
FFFC
FFFC
FFFC
FFFC
FFFC
FFFC
FFFC
FFFC
FFFC
FFF8
7FF8
3FF0
0FC0
ENDCHAR
STARTCHAR plusminus
ENCODING 177
SWIDTH 428 0
DWIDTH 14 0
BBX 14 21 0 0
BITMAP
1FE0
3CF0
7CF8
FCF8
E01C
E01C
FCFC
FCFC
FCFC
FFFC
F03C
F03C
FFFC
FFFC
FFFC
FFFC
FFFC
FFF8
7FF8
3FF0
0FC0
ENDCHAR
STARTCHAR uni00B2
ENCODING 178
SWIDTH 578 0
DWIDTH 19 0
BBX 19 21 0 0
BITMAP
1FFE00
3E0F80
7C07C0
FCE7C0
FF87C0
FE0FE0
FCFFE0
FCFFE0
FC0FE0
FFFFE0
FFFFE0
FFFFE0
FFFFE0
FFFFE0
FFFFE0
FFFFE0
FFFFC0
FFFFC0
7FFF80
3FFF00
0FFE00
ENDCHAR
STARTCHAR uni00B3
ENCODING 179
SWIDTH 578 0
DWIDTH 19 0
BBX 19 21 0 0
BITMAP
1FFE00
3E0780
7E03C0
FFF3C0
FF83C0
FF87E0
FFF3E0
FCF3E0
FE07E0
FFFFE0
FFFFE0
FFFFE0
FFFFE0
FFFFE0
FFFFE0
FFFFE0
FFFFC0
FFFFC0
7FFF80
3FFF00
0FFE00
ENDCHAR
STARTCHAR acute
ENCODING 180
SWIDTH 308 0
DWIDTH 10 0
BBX 10 11 0 0
BITMAP
1E00
3F80
7FC0
73C0
73C0
F780
F780
EF00
FE00
FE00
3C00
ENDCHAR
STARTCHAR uni00B5
ENCODING 181
SWIDTH 578 0
DWIDTH 19 0
BBX 19 21 0 0
BITMAP
1FFE00
3BFB80
7BFBC0
FBFBC0
FBFBC0
FBFBE0
FBFBE0
FBFBE0
FBFBE0
FBFBE0
FBFBE0
FBFBE0
F803E0
F807E0
FBFFE0
FBFFE0
FFFFC0
FFFFC0
7FFF80
3FFF00
0FFE00
ENDCHAR
STARTCHAR paragraph
ENCODING 182
SWIDTH 578 0
DWIDTH 19 0
BBX 19 21 0 0
BITMAP
1FFE00
3C0780
7817C0
F817C0
F817C0
F817E0
F817E0
FC17E0
FFD7E0
FFD7E0
FFD7E0
FFD7E0
FFD7E0
FFD7E0
FFFFE0
FFFFE0
FFFFC0
FFFFC0
7FFF80
3FFF00
0FFE00
ENDCHAR
STARTCHAR periodcentered
ENCODING 183
SWIDTH 428 0
DWIDTH 14 0
BBX 14 21 0 0
BITMAP
1FE0
3FF0
7FF8
FFF8
FFFC
FCFC
FCFC
FFFC
FFFC
FFFC
FFFC
FFFC
FFFC
FFFC
FFFC
FFFC
FFFC
FFF8
7FF8
3FF0
0FC0
ENDCHAR
STARTCHAR cedilla
ENCODING 184
SWIDTH 101 0
DWIDTH 3 0
BBX 3 5 0 -5
BITMAP
20
E0
80
E0
60
ENDCHAR
STARTCHAR uni00B9
ENCODING 185
SWIDTH 578 0
DWIDTH 19 0
BBX 19 21 0 0
BITMAP
1FFE00
3F1F80
7E1FC0
FF9FC0
FF9FC0
FF9FE0
FF9FE0
FF9FE0
FF9FE0
FFFFE0
FFFFE0
FFFFE0
FFFFE0
FFFFE0
FFFFE0
FFFFE0
FFFFC0
FFFFC0
7FFF80
3FFF00
0FFE00
ENDCHAR
STARTCHAR ordmasculine
ENCODING 186
SWIDTH 578 0
DWIDTH 19 0
BBX 19 21 0 0
BITMAP
1FFE00
3E0380
7C03C0
FDF9C0
FDF9C0
FDF9E0
FDF9E0
FDF9E0
FDF9E0
FDFBE0
FC03E0
FE07E0
FFFFE0
FFFFE0
FFFFE0
FFFFE0
FFFFC0
FFFFC0
7FFF80
3FFF00
0FFE00
ENDCHAR
STARTCHAR guillemotright
ENCODING 187
SWIDTH 578 0
DWIDTH 19 0
BBX 19 21 0 0
BITMAP
1FFE00
3FFF80
7FFFC0
F9BFC0
FDDFC0
FEEFE0
FF67E0
FF37E0
FFBBE0
FF37E0
FF67E0
FEEFE0
FDDFE0
F99FE0
FFFFE0
FFFFE0
FFFFC0
FFFFC0
7FFF80
3FFF00
0FFE00
ENDCHAR
STARTCHAR onequarter
ENCODING 188
SWIDTH 578 0
DWIDTH 19 0
BBX 19 21 0 0
BITMAP
1FFE00
239F80
43BFC0
F33FC0
F33FC0
F33FE0
F34CE0
F24CE0
F24CE0
FE4CE0
FECCE0
FCC020
FCE020
FCFCE0
FFFCE0
FFFFE0
FFFFC0
FFFFC0
7FFF80
3FFF00
0FFE00
ENDCHAR
STARTCHAR onehalf
ENCODING 189
SWIDTH 578 0
DWIDTH 19 0
BBX 19 21 0 0
BITMAP
1FFE00
239F80
43BFC0
F33FC0
F33FC0
F33BE0
F360E0
F24E60
F27E60
FE60E0
FEC3E0
FCCFE0
FCC0E0
FCE0E0
FFFFE0
FFFFE0
FFFFC0
FFFFC0
7FFF80
3FFF00
0FFE00
ENDCHAR
STARTCHAR threequarters
ENCODING 190
SWIDTH 578 0
DWIDTH 19 0
BBX 19 21 0 0
BITMAP
1FFE00
239F80
43BFC0
F33FC0
F33FC0
F33FE0
F34060
F24F60
F27F60
FE7060
FEFF60
FCCF60
FCC060
FCE0E0
FFFFE0
FFFFE0
FFFFC0
FFFFC0
7FFF80
3FFF00
0FFE00
ENDCHAR
STARTCHAR questiondown
ENCODING 191
SWIDTH 578 0
DWIDTH 19 0
BBX 19 21 0 0
BITMAP
1FFE00
3FDF80
7FFFC0
FFDFC0
FFDFC0
FFDFE0
FE1FE0
FDFFE0
FDFFE0
FDFFE0
FDFFE0
FDFBE0
FC03E0
FF0FE0
FFFFE0
FFFFE0
FFFFC0
FFFFC0
7FFF80
3FFF00
0FFE00
ENDCHAR
STARTCHAR Agrave
ENCODING 192
SWIDTH 578 0
DWIDTH 19 0
BBX 19 31 0 0
BITMAP
03C000
0FE000
1FE000
1EF000
1E7000
0F7000
0F7800
073800
07F800
03F000
1FFE00
3E0780
7C03C0
FDF3C0
FDF3C0
FDF3E0
F9F3E0
F9FBE0
F803E0
F9FBE0
F9F9E0
F9F9E0
F9F9E0
FBF9E0
FFFFE0
FFFFE0
FFFFC0
FFFFC0
7FFF80
3FFF00
0FFE00
ENDCHAR
STARTCHAR Aacute
ENCODING 193
SWIDTH 578 0
DWIDTH 19 0
BBX 19 31 0 0
BITMAP
007800
00FE00
01FF00
01CF00
01CF00
03DE00
039C00
03BC00
03F800
03F800
1FFE00
3E0780
7C03C0
FDF3C0
FDF3C0
FDF3E0
F9F3E0
F9FBE0
F803E0
F9FBE0
F9F9E0
F9F9E0
F9F9E0
FBF9E0
FFFFE0
FFFFE0
FFFFC0
FFFFC0
7FFF80
3FFF00
0FFE00
ENDCHAR
STARTCHAR Acircumflex
ENCODING 194
SWIDTH 578 0
DWIDTH 19 0
BBX 19 31 0 0
BITMAP
01F000
03F800
03FC00
07DC00
075C00
075E00
0E6E00
0EEE00
0FFE00
0FFE00
1FFE00
3E0780
7C03C0
FDF3C0
FDF3C0
FDF3E0
F9F3E0
F9FBE0
F803E0
F9FBE0
F9F9E0
F9F9E0
F9F9E0
FBF9E0
FFFFE0
FFFFE0
FFFFC0
FFFFC0
7FFF80
3FFF00
0FFE00
ENDCHAR
STARTCHAR Atilde
ENCODING 195
SWIDTH 578 0
DWIDTH 19 0
BBX 19 30 0 0
BITMAP
03F800
07FE00
0FFF00
1FFF00
1FFF80
1FFF80
1C2780
1C8700
0FFF00
1FFE00
3E0780
7C03C0
FDF3C0
FDF3C0
FDF3E0
F9F3E0
F9FBE0
F803E0
F9FBE0
F9F9E0
F9F9E0
F9F9E0
FBF9E0
FFFFE0
FFFFE0
FFFFC0
FFFFC0
7FFF80
3FFF00
0FFE00
ENDCHAR
STARTCHAR Adieresis
ENCODING 196
SWIDTH 578 0
DWIDTH 19 0
BBX 19 29 0 0
BITMAP
03F800
07FE00
0FFE00
0FFF00
1E6700
0E6700
0FFF00
07FE00
1FFE00
3E0780
7C03C0
FDF3C0
FDF3C0
FDF3E0
F9F3E0
F9FBE0
F803E0
F9FBE0
F9F9E0
F9F9E0
F9F9E0
FBF9E0
FFFFE0
FFFFE0
FFFFC0
FFFFC0
7FFF80
3FFF00
0FFE00
ENDCHAR
STARTCHAR Aring
ENCODING 197
SWIDTH 578 0
DWIDTH 19 0
BBX 19 30 0 0
BITMAP
01F000
03FC00
07FC00
0F0E00
0EEE00
0EEF00
0EEF00
0F1E00
0FFE00
1FFE00
3E0780
7C03C0
FDF3C0
FDF3C0
FDF3E0
F9F3E0
F9FBE0
F803E0
F9FBE0
F9F9E0
F9F9E0
F9F9E0
FBF9E0
FFFFE0
FFFFE0
FFFFC0
FFFFC0
7FFF80
3FFF00
0FFE00
ENDCHAR
STARTCHAR AE
ENCODING 198
SWIDTH 578 0
DWIDTH 19 0
BBX 19 21 0 0
BITMAP
1FFE00
3C0180
7801C0
F99FC0
F99FC0
FB9FE0
FB9FE0
FB81E0
F39FE0
F39FE0
F01FE0
F01FE0
F381E0
F381E0
FFFFE0
FFFFE0
FFFFC0
FFFFC0
7FFF80
3FFF00
0FFE00
ENDCHAR
STARTCHAR Ccedilla
ENCODING 199
SWIDTH 578 0
DWIDTH 19 0
BBX 19 21 0 0
BITMAP
1FFE00
3C0780
7807C0
F9FFC0
F9FFC0
F9FFE0
F9FFE0
F9FFE0
F9FFE0
F9FFE0
F9FFE0
F9FFE0
F807E0
FC07E0
FFBFE0
FE3FE0
FEFFC0
FE3FC0
7F3F80
3FFF00
0FFE00
ENDCHAR
STARTCHAR Egrave
ENCODING 200
SWIDTH 578 0
DWIDTH 19 0
BBX 19 31 0 0
BITMAP
03C000
0FE000
1FF000
1E7000
1E7000
0F7800
073800
07B800
03F800
03F800
1FFE00
3C0380
7C03C0
FCFFC0
FCFFC0
FCFFE0
FCFFE0
FC07E0
FCFFE0
FCFFE0
FCFFE0
FCFFE0
FC03E0
FC03E0
FFFFE0
FFFFE0
FFFFC0
FFFFC0
7FFF80
3FFF00
0FFE00
ENDCHAR
STARTCHAR Eacute
ENCODING 201
SWIDTH 578 0
DWIDTH 19 0
BBX 19 31 0 0
BITMAP
007800
00FE00
01FF00
01EF00
01CF00
01DE00
03DE00
039C00
03FC00
01F800
1FFE00
3C0380
7C03C0
FCFFC0
FCFFC0
FCFFE0
FCFFE0
FC07E0
FCFFE0
FCFFE0
FCFFE0
FCFFE0
FC03E0
FC03E0
FFFFE0
FFFFE0
FFFFC0
FFFFC0
7FFF80
3FFF00
0FFE00
ENDCHAR
STARTCHAR Ecircumflex
ENCODING 202
SWIDTH 578 0
DWIDTH 19 0
BBX 19 31 0 0
BITMAP
01F800
01F800
03FC00
03DC00
07DE00
076E00
0F6E00
0E6700
0FFF00
07FE00
1FFE00
3C0380
7C03C0
FCFFC0
FCFFC0
FCFFE0
FCFFE0
FC07E0
FCFFE0
FCFFE0
FCFFE0
FCFFE0
FC03E0
FC03E0
FFFFE0
FFFFE0
FFFFC0
FFFFC0
7FFF80
3FFF00
0FFE00
ENDCHAR
STARTCHAR Edieresis
ENCODING 203
SWIDTH 578 0
DWIDTH 19 0
BBX 19 29 0 0
BITMAP
01F800
07FE00
0FFF00
0FFF00
0E6700
0E6700
0FFF00
07FE00
1FFE00
3C0380
7C03C0
FCFFC0
FCFFC0
FCFFE0
FCFFE0
FC07E0
FCFFE0
FCFFE0
FCFFE0
FCFFE0
FC03E0
FC03E0
FFFFE0
FFFFE0
FFFFC0
FFFFC0
7FFF80
3FFF00
0FFE00
ENDCHAR
STARTCHAR Igrave
ENCODING 204
SWIDTH 578 0
DWIDTH 19 0
BBX 19 31 0 0
BITMAP
03C000
0FE000
0FF000
1E7000
0F7800
0F7800
073800
07B800
03F800
03F800
1FFE00
3C0180
7C01C0
FF9FC0
FF9FC0
FF9FE0
FF9FE0
FF9FE0
FF9FE0
FF9FE0
FF9FE0
FF9FE0
FC01E0
FC01E0
FFFFE0
FFFFE0
FFFFC0
FFFFC0
7FFF80
3FFF00
0FFE00
ENDCHAR
STARTCHAR Iacute
ENCODING 205
SWIDTH 578 0
DWIDTH 19 0
BBX 19 31 0 0
BITMAP
003800
00FE00
00FF00
01EF00
01CF00
01CE00
03DE00
03DC00
03FC00
01F800
1FFE00
3C0180
7C01C0
FF9FC0
FF9FC0
FF9FE0
FF9FE0
FF9FE0
FF9FE0
FF9FE0
FF9FE0
FF9FE0
FC01E0
FC01E0
FFFFE0
FFFFE0
FFFFC0
FFFFC0
7FFF80
3FFF00
0FFE00
ENDCHAR
STARTCHAR Icircumflex
ENCODING 206
SWIDTH 578 0
DWIDTH 19 0
BBX 19 31 0 0
BITMAP
01F800
01FC00
03FC00
03BC00
07AE00
076E00
076F00
0F6700
0FFF00
07FF00
1FFE00
3C0180
7C01C0
FF9FC0
FF9FC0
FF9FE0
FF9FE0
FF9FE0
FF9FE0
FF9FE0
FF9FE0
FF9FE0
FC01E0
FC01E0
FFFFE0
FFFFE0
FFFFC0
FFFFC0
7FFF80
3FFF00
0FFE00
ENDCHAR
STARTCHAR Idieresis
ENCODING 207
SWIDTH 578 0
DWIDTH 19 0
BBX 19 29 0 0
BITMAP
01FC00
07FE00
0FFF00
0FFF00
0E6700
0E6700
0FFF00
07FE00
1FFE00
3C0180
7C01C0
FF9FC0
FF9FC0
FF9FE0
FF9FE0
FF9FE0
FF9FE0
FF9FE0
FF9FE0
FF9FE0
FC01E0
FC01E0
FFFFE0
FFFFE0
FFFFC0
FFFFC0
7FFF80
3FFF00
0FFE00
ENDCHAR
STARTCHAR Eth
ENCODING 208
SWIDTH 578 0
DWIDTH 19 0
BBX 19 21 0 0
BITMAP
1FFE00
380380
7801C0
F9F9C0
F9F9C0
F9F9E0
F9F9E0
F0F9E0
F9F9E0
F9F9E0
F9F9E0
F9F9E0
F801E0
F803E0
FFFFE0
FFFFE0
FFFFC0
FFFFC0
7FFF80
3FFF00
0FFE00
ENDCHAR
STARTCHAR Ntilde
ENCODING 209
SWIDTH 578 0
DWIDTH 19 0
BBX 19 30 0 0
BITMAP
03F800
0FFE00
1FFE00
1FFF00
1FFF00
3FFF00
1C2700
1D8F00
1FFF00
1FFE00
380380
7803C0
F9F9C0
F9F9C0
F9F9E0
F9F9E0
F9F9E0
F9F9E0
F9F9E0
F9F9E0
F9F9E0
F9F9E0
F9F9E0
FFFFE0
FFFFE0
FFFFC0
FFFFC0
7FFF80
3FFF00
0FFE00
ENDCHAR
STARTCHAR Ograve
ENCODING 210
SWIDTH 578 0
DWIDTH 19 0
BBX 19 31 0 0
BITMAP
03C000
0FE000
1FF000
1E7000
1E7000
0F7800
0F3800
07B800
03F800
03F800
1FFE00
3C0380
7801C0
F9F9C0
F9F9C0
F9F9E0
F9F9E0
F9F9E0
F9F9E0
F9F9E0
F9F9E0
F9F9E0
F801E0
FC03E0
FFFFE0
FFFFE0
FFFFC0
FFFFC0
7FFF80
3FFF00
0FFE00
ENDCHAR
STARTCHAR Oacute
ENCODING 211
SWIDTH 578 0
DWIDTH 19 0
BBX 19 31 0 0
BITMAP
007800
00FE00
01FF00
01CF00
01CF00
03DE00
03DE00
03BC00
03FC00
03F800
1FFE00
3C0380
7801C0
F9F9C0
F9F9C0
F9F9E0
F9F9E0
F9F9E0
F9F9E0
F9F9E0
F9F9E0
F9F9E0
F801E0
FC03E0
FFFFE0
FFFFE0
FFFFC0
FFFFC0
7FFF80
3FFF00
0FFE00
ENDCHAR
STARTCHAR Ocircumflex
ENCODING 212
SWIDTH 578 0
DWIDTH 19 0
BBX 19 31 0 0
BITMAP
01F800
03F800
03FC00
03DC00
075E00
076E00
0F6E00
0E6F00
0FFF00
0FFE00
1FFE00
3C0380
7801C0
F9F9C0
F9F9C0
F9F9E0
F9F9E0
F9F9E0
F9F9E0
F9F9E0
F9F9E0
F9F9E0
F801E0
FC03E0
FFFFE0
FFFFE0
FFFFC0
FFFFC0
7FFF80
3FFF00
0FFE00
ENDCHAR
STARTCHAR Otilde
ENCODING 213
SWIDTH 578 0
DWIDTH 19 0
BBX 19 30 0 0
BITMAP
03FC00
07FE00
0FFF00
1FFF00
1FFF80
1FFF80
1E2780
1C8780
0FFF00
1FFE00
3C0380
7801C0
F9F9C0
F9F9C0
F9F9E0
F9F9E0
F9F9E0
F9F9E0
F9F9E0
F9F9E0
F9F9E0
F801E0
FC03E0
FFFFE0
FFFFE0
FFFFC0
FFFFC0
7FFF80
3FFF00
0FFE00
ENDCHAR
STARTCHAR Odieresis
ENCODING 214
SWIDTH 578 0
DWIDTH 19 0
BBX 19 29 0 0
BITMAP
01F800
07FE00
0FFF00
0FFF00
0E6700
0E6700
0FFF00
07FE00
1FFE00
3C0380
7801C0
F9F9C0
F9F9C0
F9F9E0
F9F9E0
F9F9E0
F9F9E0
F9F9E0
F9F9E0
F9F9E0
F801E0
FC03E0
FFFFE0
FFFFE0
FFFFC0
FFFFC0
7FFF80
3FFF00
0FFE00
ENDCHAR
STARTCHAR multiply
ENCODING 215
SWIDTH 578 0
DWIDTH 19 0
BBX 19 21 0 0
BITMAP
1FFE00
3FFF80
7FFFC0
FFFFC0
FEFFC0
FE67E0
FF0FE0
FF9FE0
FF4FE0
FE67E0
FFFFE0
FFFFE0
FFFFE0
FFFFE0
FFFFE0
FFFFE0
FFFFC0
FFFFC0
7FFF80
3FFF00
0FFE00
ENDCHAR
STARTCHAR Oslash
ENCODING 216
SWIDTH 578 0
DWIDTH 19 0
BBX 19 21 0 0
BITMAP
1FFE00
3C0380
7801C0
F9F1C0
F9E9C0
F9C9E0
F9D9E0
F999E0
F939E0
F979E0
FA79E0
F8F9E0
F801E0
FC03E0
FFFFE0
FFFFE0
FFFFC0
FFFFC0
7FFF80
3FFF00
0FFE00
ENDCHAR
STARTCHAR Ugrave
ENCODING 217
SWIDTH 578 0
DWIDTH 19 0
BBX 19 31 0 0
BITMAP
03C000
0FE000
1FF000
1E7000
1E7000
0F7800
073800
07B800
03F800
03F800
1FFE00
39F980
79F9C0
F9F9C0
F9F9C0
F9F9E0
F9F9E0
F9F9E0
F9F9E0
F9F9E0
F9F9E0
F9F9E0
F801E0
FC03E0
FFFFE0
FFFFE0
FFFFC0
FFFFC0
7FFF80
3FFF00
0FFE00
ENDCHAR
STARTCHAR Uacute
ENCODING 218
SWIDTH 578 0
DWIDTH 19 0
BBX 19 31 0 0
BITMAP
007800
00FE00
01FF00
01EF00
01CF00
01DE00
03DE00
039C00
03FC00
01F800
1FFE00
39F980
79F9C0
F9F9C0
F9F9C0
F9F9E0
F9F9E0
F9F9E0
F9F9E0
F9F9E0
F9F9E0
F9F9E0
F801E0
FC03E0
FFFFE0
FFFFE0
FFFFC0
FFFFC0
7FFF80
3FFF00
0FFE00
ENDCHAR
STARTCHAR Ucircumflex
ENCODING 219
SWIDTH 578 0
DWIDTH 19 0
BBX 19 31 0 0
BITMAP
01F800
01F800
03FC00
03DC00
07DE00
076E00
0F6E00
0E6700
0FFF00
07FE00
1FFE00
39F980
79F9C0
F9F9C0
F9F9C0
F9F9E0
F9F9E0
F9F9E0
F9F9E0
F9F9E0
F9F9E0
F9F9E0
F801E0
FC03E0
FFFFE0
FFFFE0
FFFFC0
FFFFC0
7FFF80
3FFF00
0FFE00
ENDCHAR
STARTCHAR Udieresis
ENCODING 220
SWIDTH 578 0
DWIDTH 19 0
BBX 19 29 0 0
BITMAP
01F800
07FE00
0FFF00
0FFF00
0E6700
0E6700
0FFF00
07FE00
1FFE00
39F980
79F9C0
F9F9C0
F9F9C0
F9F9E0
F9F9E0
F9F9E0
F9F9E0
F9F9E0
F9F9E0
F9F9E0
F801E0
FC03E0
FFFFE0
FFFFE0
FFFFC0
FFFFC0
7FFF80
3FFF00
0FFE00
ENDCHAR
STARTCHAR Yacute
ENCODING 221
SWIDTH 578 0
DWIDTH 19 0
BBX 19 31 0 0
BITMAP
003800
00FE00
01FF00
01EF00
01CF00
01DE00
03DE00
03BC00
03FC00
03F800
1FFE00
39F980
7CF3C0
FCF3C0
FE67C0
FE67E0
FF6FE0
FF4FE0
FF0FE0
FF9FE0
FF9FE0
FF9FE0
FF9FE0
FF9FE0
FFFFE0
FFFFE0
FFFFC0
FFFFC0
7FFF80
3FFF00
0FFE00
ENDCHAR
STARTCHAR Thorn
ENCODING 222
SWIDTH 578 0
DWIDTH 19 0
BBX 19 21 0 0
BITMAP
1FFE00
3CFF80
7CFFC0
FC07C0
FC03C0
FCFBE0
FCF9E0
FCF9E0
FCFBE0
FC03E0
FCFFE0
FCFFE0
FCFFE0
FCFFE0
FFFFE0
FFFFE0
FFFFC0
FFFFC0
7FFF80
3FFF00
0FFE00
ENDCHAR
STARTCHAR germandbls
ENCODING 223
SWIDTH 578 0
DWIDTH 19 0
BBX 19 21 0 0
BITMAP
1FFE00
3C0780
7803C0
F9F3C0
F9F3C0
F9F3E0
F9E7E0
F9E3E0
F9F9E0
F9F9E0
F9F9E0
F9F9E0
F981E0
F983E0
FFFFE0
FFFFE0
FFFFC0
FFFFC0
7FFF80
3FFF00
0FFE00
ENDCHAR
STARTCHAR agrave
ENCODING 224
SWIDTH 578 0
DWIDTH 19 0
BBX 19 31 0 0
BITMAP
03C000
0FE000
1FF000
1E7000
1E7000
0F7800
073800
07B800
03F800
03F800
1FFE00
3C0780
7C03C0
FFF3C0
FFF3C0
FFF3E0
FFF3E0
FC03E0
F803E0
FBF3E0
FBF3E0
FBF3E0
F803E0
FC03E0
FFFFE0
FFFFE0
FFFFC0
FFFFC0
7FFF80
3FFF00
0FFE00
ENDCHAR
STARTCHAR aacute
ENCODING 225
SWIDTH 578 0
DWIDTH 19 0
BBX 19 31 0 0
BITMAP
007800
00FE00
01FF00
01EF00
01CF00
01DE00
03DE00
039C00
03FC00
01F800
1FFE00
3C0780
7C03C0
FFF3C0
FFF3C0
FFF3E0
FFF3E0
FC03E0
F803E0
FBF3E0
FBF3E0
FBF3E0
F803E0
FC03E0
FFFFE0
FFFFE0
FFFFC0
FFFFC0
7FFF80
3FFF00
0FFE00
ENDCHAR
STARTCHAR acircumflex
ENCODING 226
SWIDTH 578 0
DWIDTH 19 0
BBX 19 31 0 0
BITMAP
01F800
01F800
03FC00
03DC00
07DE00
076E00
0F6E00
0E6700
0FFF00
0FFE00
1FFE00
3C0780
7C03C0
FFF3C0
FFF3C0
FFF3E0
FFF3E0
FC03E0
F803E0
FBF3E0
FBF3E0
FBF3E0
F803E0
FC03E0
FFFFE0
FFFFE0
FFFFC0
FFFFC0
7FFF80
3FFF00
0FFE00
ENDCHAR
STARTCHAR atilde
ENCODING 227
SWIDTH 578 0
DWIDTH 19 0
BBX 19 30 0 0
BITMAP
03FC00
07FE00
0FFF00
0FFF80
1FFF80
1FFF80
1E2780
1C8780
0FFF00
1FFE00
3C0780
7C03C0
FFF3C0
FFF3C0
FFF3E0
FFF3E0
FC03E0
F803E0
FBF3E0
FBF3E0
FBF3E0
F803E0
FC03E0
FFFFE0
FFFFE0
FFFFC0
FFFFC0
7FFF80
3FFF00
0FFE00
ENDCHAR
STARTCHAR adieresis
ENCODING 228
SWIDTH 578 0
DWIDTH 19 0
BBX 19 29 0 0
BITMAP
01F800
07FE00
0FFF00
0FFF00
0E6700
0E6700
0FFF00
07FE00
1FFE00
3C0780
7C03C0
FFF3C0
FFF3C0
FFF3E0
FFF3E0
FC03E0
F803E0
FBF3E0
FBF3E0
FBF3E0
F803E0
FC03E0
FFFFE0
FFFFE0
FFFFC0
FFFFC0
7FFF80
3FFF00
0FFE00
ENDCHAR
STARTCHAR aring
ENCODING 229
SWIDTH 578 0
DWIDTH 19 0
BBX 19 30 0 0
BITMAP
01F000
03FC00
07FE00
0F0E00
0EEF00
0EEF00
0E6F00
0F0F00
0FFE00
1FFE00
3C0780
7C03C0
FFF3C0
FFF3C0
FFF3E0
FFF3E0
FC03E0
F803E0
FBF3E0
FBF3E0
FBF3E0
F803E0
FC03E0
FFFFE0
FFFFE0
FFFFC0
FFFFC0
7FFF80
3FFF00
0FFE00
ENDCHAR
STARTCHAR ae
ENCODING 230
SWIDTH 578 0
DWIDTH 19 0
BBX 19 21 0 0
BITMAP
1FFE00
3C0180
7801C0
F99FC0
F99FC0
FB9FE0
FB9FE0
FB81E0
F39FE0
F39FE0
F01FE0
F01FE0
F381E0
F381E0
FFFFE0
FFFFE0
FFFFC0
FFFFC0
7FFF80
3FFF00
0FFE00
ENDCHAR
STARTCHAR ccedilla
ENCODING 231
SWIDTH 578 0
DWIDTH 19 0
BBX 19 21 0 0
BITMAP
1FFE00
3C0780
7807C0
F9FFC0
F9FFC0
F9FFE0
F9FFE0
F9FFE0
F9FFE0
F9FFE0
F9FFE0
F9FFE0
F807E0
FC07E0
FFBFE0
FE3FE0
FEFFC0
FE3FC0
7F3F80
3FFF00
0FFE00
ENDCHAR
STARTCHAR egrave
ENCODING 232
SWIDTH 578 0
DWIDTH 19 0
BBX 19 31 0 0
BITMAP
03C000
0FE000
1FF000
1E7000
1E7000
0F7800
0F7800
07B800
03F800
03F800
1FFE00
3C0780
7803C0
FBF3C0
FBF3C0
FBF3E0
F803E0
FBFFE0
FBFFE0
FBFFE0
FBFFE0
F9FFE0
F807E0
FFFFE0
FFFFE0
FFFFE0
FFFFC0
FFFFC0
7FFF80
3FFF00
0FFE00
ENDCHAR
STARTCHAR eacute
ENCODING 233
SWIDTH 578 0
DWIDTH 19 0
BBX 19 31 0 0
BITMAP
007800
01FE00
01FE00
01CF00
03DE00
03DE00
039C00
03BC00
03F800
03F800
1FFE00
3C0780
7803C0
FBF3C0
FBF3C0
FBF3E0
F803E0
FBFFE0
FBFFE0
FBFFE0
FBFFE0
F9FFE0
F807E0
FFFFE0
FFFFE0
FFFFE0
FFFFC0
FFFFC0
7FFF80
3FFF00
0FFE00
ENDCHAR
STARTCHAR ecircumflex
ENCODING 234
SWIDTH 578 0
DWIDTH 19 0
BBX 19 31 0 0
BITMAP
01F000
03F800
07F800
077C00
075C00
0E5C00
0EDE00
0EEE00
0FFE00
0FFE00
1FFE00
3C0780
7803C0
FBF3C0
FBF3C0
FBF3E0
F803E0
FBFFE0
FBFFE0
FBFFE0
FBFFE0
F9FFE0
F807E0
FFFFE0
FFFFE0
FFFFE0
FFFFC0
FFFFC0
7FFF80
3FFF00
0FFE00
ENDCHAR
STARTCHAR edieresis
ENCODING 235
SWIDTH 578 0
DWIDTH 19 0
BBX 19 29 0 0
BITMAP
03F800
0FFC00
1FFE00
1FFE00
1CCE00
1CCE00
1FFE00
0FFC00
1FFE00
3C0780
7803C0
FBF3C0
FBF3C0
FBF3E0
F803E0
FBFFE0
FBFFE0
FBFFE0
FBFFE0
F9FFE0
F807E0
FFFFE0
FFFFE0
FFFFE0
FFFFC0
FFFFC0
7FFF80
3FFF00
0FFE00
ENDCHAR
STARTCHAR igrave
ENCODING 236
SWIDTH 578 0
DWIDTH 19 0
BBX 19 31 0 0
BITMAP
03C000
0FE000
1FF000
1E7000
1E7000
0F7800
073800
07B800
03F800
03F800
1FFE00
3C0180
7C01C0
FF9FC0
FF9FC0
FF9FE0
FF9FE0
FF9FE0
FF9FE0
FF9FE0
FF9FE0
FF9FE0
FC01E0
FC01E0
FFFFE0
FFFFE0
FFFFC0
FFFFC0
7FFF80
3FFF00
0FFE00
ENDCHAR
STARTCHAR iacute
ENCODING 237
SWIDTH 578 0
DWIDTH 19 0
BBX 19 31 0 0
BITMAP
003800
00FE00
00FF00
01EF00
01CF00
01DE00
03DE00
039C00
03FC00
01F800
1FFE00
3C0180
7C01C0
FF9FC0
FF9FC0
FF9FE0
FF9FE0
FF9FE0
FF9FE0
FF9FE0
FF9FE0
FF9FE0
FC01E0
FC01E0
FFFFE0
FFFFE0
FFFFC0
FFFFC0
7FFF80
3FFF00
0FFE00
ENDCHAR
STARTCHAR icircumflex
ENCODING 238
SWIDTH 578 0
DWIDTH 19 0
BBX 19 31 0 0
BITMAP
01F800
01F800
03FC00
03BC00
07BE00
076E00
076E00
0E6700
0FFF00
07FE00
1FFE00
3C0180
7C01C0
FF9FC0
FF9FC0
FF9FE0
FF9FE0
FF9FE0
FF9FE0
FF9FE0
FF9FE0
FF9FE0
FC01E0
FC01E0
FFFFE0
FFFFE0
FFFFC0
FFFFC0
7FFF80
3FFF00
0FFE00
ENDCHAR
STARTCHAR idieresis
ENCODING 239
SWIDTH 578 0
DWIDTH 19 0
BBX 19 29 0 0
BITMAP
01FC00
07FE00
0FFF00
0FFF00
0E6700
0E6700
0FFF00
07FE00
1FFE00
3C0180
7C01C0
FF9FC0
FF9FC0
FF9FE0
FF9FE0
FF9FE0
FF9FE0
FF9FE0
FF9FE0
FF9FE0
FC01E0
FC01E0
FFFFE0
FFFFE0
FFFFC0
FFFFC0
7FFF80
3FFF00
0FFE00
ENDCHAR
STARTCHAR eth
ENCODING 240
SWIDTH 578 0
DWIDTH 19 0
BBX 19 21 0 0
BITMAP
1FFE00
380380
7801C0
F9F9C0
F9F9C0
F9F9E0
F9F9E0
F0F9E0
F9F9E0
F9F9E0
F9F9E0
F9F9E0
F801E0
F803E0
FFFFE0
FFFFE0
FFFFC0
FFFFC0
7FFF80
3FFF00
0FFE00
ENDCHAR
STARTCHAR ntilde
ENCODING 241
SWIDTH 578 0
DWIDTH 19 0
BBX 19 31 0 0
BITMAP
03F800
0FFC00
1FFE00
1FFF00
1FFF00
3FFF00
1C2700
1D8F00
1FFF00
0FFE00
1FFE00
380380
7803C0
F9F9C0
F9F9C0
F9F9E0
F9F9E0
F9F9E0
F9F9E0
F9F9E0
F9F9E0
F9F9E0
F9F9E0
F9F9E0
FFFFE0
FFFFE0
FFFFC0
FFFFC0
7FFF80
3FFF00
0FFE00
ENDCHAR
STARTCHAR oacute
ENCODING 243
SWIDTH 578 0
DWIDTH 19 0
BBX 19 31 0 0
BITMAP
007800
00FE00
01FE00
01CF00
03DE00
03DE00
039C00
03BC00
03F800
03F800
1FFE00
3C0380
7801C0
F9F9C0
F9F9C0
F9F9E0
F9F9E0
F9F9E0
F9F9E0
F9F9E0
F9F9E0
F9F9E0
F801E0
FC03E0
FFFFE0
FFFFE0
FFFFC0
FFFFC0
7FFF80
3FFF00
0FFE00
ENDCHAR
STARTCHAR ocircumflex
ENCODING 244
SWIDTH 578 0
DWIDTH 19 0
BBX 19 31 0 0
BITMAP
01F800
01F800
03FC00
03DC00
07DE00
076E00
0F6E00
0E6700
0FFF00
0FFE00
1FFE00
3C0380
7801C0
F9F9C0
F9F9C0
F9F9E0
F9F9E0
F9F9E0
F9F9E0
F9F9E0
F9F9E0
F9F9E0
F801E0
FC03E0
FFFFE0
FFFFE0
FFFFC0
FFFFC0
7FFF80
3FFF00
0FFE00
ENDCHAR
STARTCHAR otilde
ENCODING 245
SWIDTH 578 0
DWIDTH 19 0
BBX 19 30 0 0
BITMAP
03F800
07FE00
0FFF00
1FFF00
1FFF80
1FFF80
1C2780
1C8700
0FFF00
1FFE00
3C0380
7801C0
F9F9C0
F9F9C0
F9F9E0
F9F9E0
F9F9E0
F9F9E0
F9F9E0
F9F9E0
F9F9E0
F801E0
FC03E0
FFFFE0
FFFFE0
FFFFC0
FFFFC0
7FFF80
3FFF00
0FFE00
ENDCHAR
STARTCHAR odieresis
ENCODING 246
SWIDTH 578 0
DWIDTH 19 0
BBX 19 29 0 0
BITMAP
01F800
07FE00
0FFF00
0FFF00
0E6700
0E6700
0FFF00
07FE00
1FFE00
3C0380
7801C0
F9F9C0
F9F9C0
F9F9E0
F9F9E0
F9F9E0
F9F9E0
F9F9E0
F9F9E0
F9F9E0
F801E0
FC03E0
FFFFE0
FFFFE0
FFFFC0
FFFFC0
7FFF80
3FFF00
0FFE00
ENDCHAR
STARTCHAR divide
ENCODING 247
SWIDTH 428 0
DWIDTH 14 0
BBX 14 21 0 0
BITMAP
1FE0
3FF0
7CF8
FCF8
FFFC
F03C
F03C
FFFC
FCFC
FFFC
FFFC
FFFC
FFFC
FFFC
FFFC
FFFC
FFFC
FFF8
7FF8
3FF0
0FC0
ENDCHAR
STARTCHAR oslash
ENCODING 248
SWIDTH 578 0
DWIDTH 19 0
BBX 19 21 0 0
BITMAP
1FFE00
3C0380
7801C0
F9F1C0
F9E9C0
F9C9E0
F9D9E0
F999E0
F939E0
F979E0
FA79E0
F8F9E0
F801E0
FC03E0
FFFFE0
FFFFE0
FFFFC0
FFFFC0
7FFF80
3FFF00
0FFE00
ENDCHAR
STARTCHAR ugrave
ENCODING 249
SWIDTH 578 0
DWIDTH 19 0
BBX 19 31 0 0
BITMAP
03C000
0FE000
1FF000
1E7000
1E7000
0F7800
073800
07B800
03F800
03F800
1FFE00
39F980
79F9C0
F9F9C0
F9F9C0
F9F9E0
F9F9E0
F9F9E0
F9F9E0
F9F9E0
F9F9E0
F9F9E0
F801E0
FC03E0
FFFFE0
FFFFE0
FFFFC0
FFFFC0
7FFF80
3FFF00
0FFE00
ENDCHAR
STARTCHAR uacute
ENCODING 250
SWIDTH 578 0
DWIDTH 19 0
BBX 19 31 0 0
BITMAP
003800
00FE00
00FF00
01EF00
01CF00
01DE00
03DE00
039C00
03FC00
01F800
1FFE00
39F980
79F9C0
F9F9C0
F9F9C0
F9F9E0
F9F9E0
F9F9E0
F9F9E0
F9F9E0
F9F9E0
F9F9E0
F801E0
FC03E0
FFFFE0
FFFFE0
FFFFC0
FFFFC0
7FFF80
3FFF00
0FFE00
ENDCHAR
STARTCHAR ucircumflex
ENCODING 251
SWIDTH 578 0
DWIDTH 19 0
BBX 19 31 0 0
BITMAP
01F800
01F800
03FC00
03BC00
07BE00
076E00
076E00
0E6700
0FFF00
07FE00
1FFE00
39F980
79F9C0
F9F9C0
F9F9C0
F9F9E0
F9F9E0
F9F9E0
F9F9E0
F9F9E0
F9F9E0
F9F9E0
F801E0
FC03E0
FFFFE0
FFFFE0
FFFFC0
FFFFC0
7FFF80
3FFF00
0FFE00
ENDCHAR
STARTCHAR udieresis
ENCODING 252
SWIDTH 578 0
DWIDTH 19 0
BBX 19 29 0 0
BITMAP
01FC00
07FE00
0FFF00
0FFF00
0E6700
0E6700
0FFF00
07FE00
1FFE00
39F980
79F9C0
F9F9C0
F9F9C0
F9F9E0
F9F9E0
F9F9E0
F9F9E0
F9F9E0
F9F9E0
F9F9E0
F801E0
FC03E0
FFFFE0
FFFFE0
FFFFC0
FFFFC0
7FFF80
3FFF00
0FFE00
ENDCHAR
STARTCHAR yacute
ENCODING 253
SWIDTH 578 0
DWIDTH 19 0
BBX 19 31 0 0
BITMAP
003800
00FE00
01FF00
01EF00
01CF00
01DE00
03DE00
03BC00
03FC00
03F800
1FFE00
39F980
7CF3C0
FCF3C0
FE67C0
FE67E0
FF6FE0
FF4FE0
FF0FE0
FF9FE0
FF9FE0
FF9FE0
FF9FE0
FF9FE0
FFFFE0
FFFFE0
FFFFC0
FFFFC0
7FFF80
3FFF00
0FFE00
ENDCHAR
STARTCHAR thorn
ENCODING 254
SWIDTH 578 0
DWIDTH 19 0
BBX 19 21 0 0
BITMAP
1FFE00
3CFF80
7CFFC0
FC07C0
FC03C0
FCFBE0
FCF9E0
FCF9E0
FCFBE0
FC03E0
FCFFE0
FCFFE0
FCFFE0
FCFFE0
FFFFE0
FFFFE0
FFFFC0
FFFFC0
7FFF80
3FFF00
0FFE00
ENDCHAR
STARTCHAR ydieresis
ENCODING 255
SWIDTH 578 0
DWIDTH 19 0
BBX 19 29 0 0
BITMAP
01F800
07FE00
0FFF00
0FFF00
0E6700
0E6700
0FFF00
07FE00
1FFE00
39F980
7CF3C0
FCF3C0
FE67C0
FE67E0
FF6FE0
FF4FE0
FF0FE0
FF9FE0
FF9FE0
FF9FE0
FF9FE0
FF9FE0
FFFFE0
FFFFE0
FFFFC0
FFFFC0
7FFF80
3FFF00
0FFE00
ENDCHAR
STARTCHAR Amacron
ENCODING 256
SWIDTH 578 0
DWIDTH 19 0
BBX 19 29 0 0
BITMAP
03FC00
0FFE00
1FFF00
1FFF00
1E0F80
1E0F80
1FFF00
0FFF00
1FFE00
3E0780
7C03C0
FDF3C0
FDF3C0
FDF3E0
F9F3E0
F9FBE0
F803E0
F9FBE0
F9F9E0
F9F9E0
F9F9E0
FBF9E0
FFFFE0
FFFFE0
FFFFC0
FFFFC0
7FFF80
3FFF00
0FFE00
ENDCHAR
STARTCHAR amacron
ENCODING 257
SWIDTH 578 0
DWIDTH 19 0
BBX 19 29 0 0
BITMAP
03FC00
07FF00
0FFF00
1FFF80
1E0780
1E0780
1FFF80
0FFF00
1FFE00
3C0780
7C03C0
FFF3C0
FFF3C0
FFF3E0
FFF3E0
FC03E0
F803E0
FBF3E0
FBF3E0
FBF3E0
F803E0
FC03E0
FFFFE0
FFFFE0
FFFFC0
FFFFC0
7FFF80
3FFF00
0FFE00
ENDCHAR
STARTCHAR Abreve
ENCODING 258
SWIDTH 578 0
DWIDTH 19 0
BBX 19 29 0 0
BITMAP
03FC00
0FFE00
1FFF00
1FFF00
1EE780
1E6F80
1F0F00
0FFF00
1FFE00
3E0780
7C03C0
FDF3C0
FDF3C0
FDF3E0
F9F3E0
F9FBE0
F803E0
F9FBE0
F9F9E0
F9F9E0
F9F9E0
FBF9E0
FFFFE0
FFFFE0
FFFFC0
FFFFC0
7FFF80
3FFF00
0FFE00
ENDCHAR
STARTCHAR abreve
ENCODING 259
SWIDTH 578 0
DWIDTH 19 0
BBX 19 29 0 0
BITMAP
03FC00
07FF00
0FFF00
1FFF80
1E7780
1E6780
1F0F80
0FFF00
1FFE00
3C0780
7C03C0
FFF3C0
FFF3C0
FFF3E0
FFF3E0
FC03E0
F803E0
FBF3E0
FBF3E0
FBF3E0
F803E0
FC03E0
FFFFE0
FFFFE0
FFFFC0
FFFFC0
7FFF80
3FFF00
0FFE00
ENDCHAR
STARTCHAR Aogonek
ENCODING 260
SWIDTH 578 0
DWIDTH 19 0
BBX 19 21 0 0
BITMAP
1FFE00
3E0780
7C03C0
FDF3C0
FDF3C0
FDF3E0
F9F3E0
F9FBE0
F803E0
F9FBE0
F9F9E0
F9F9E0
F9F9E0
FBFDE0
FFFBE0
FFF7E0
FFE7C0
FFF3C0
7FF180
3FFF00
0FFE00
ENDCHAR
STARTCHAR aogonek
ENCODING 261
SWIDTH 578 0
DWIDTH 19 0
BBX 19 21 0 0
BITMAP
1FFE00
3C0780
7C03C0
FFF3C0
FFF3C0
FFF3E0
FFF3E0
FC03E0
F803E0
FBF3E0
FBF3E0
FBF3E0
F803E0
FC03E0
FFFFE0
FF3FE0
FF7FC0
FF1FC0
7F9F80
3FFF00
0FFE00
ENDCHAR
STARTCHAR Cacute
ENCODING 262
SWIDTH 578 0
DWIDTH 19 0
BBX 19 31 0 0
BITMAP
003800
00FE00
00FF00
01EF00
01CF00
01CE00
03DE00
03DC00
03FC00
01F800
1FFE00
3C0780
7807C0
F9FFC0
F9FFC0
F9FFE0
F9FFE0
F9FFE0
F9FFE0
F9FFE0
F9FFE0
F9FFE0
F807E0
FC07E0
FFFFE0
FFFFE0
FFFFC0
FFFFC0
7FFF80
3FFF00
0FFE00
ENDCHAR
STARTCHAR cacute
ENCODING 263
SWIDTH 578 0
DWIDTH 19 0
BBX 19 31 0 0
BITMAP
007800
00FE00
01FF00
01EF00
01CF00
01DE00
03DE00
039C00
03FC00
01F800
1FFE00
3C0780
7807C0
F9FFC0
F9FFC0
F9FFE0
F9FFE0
F9FFE0
F9FFE0
F9FFE0
F9FFE0
F9FFE0
F807E0
FC07E0
FFFFE0
FFFFE0
FFFFC0
FFFFC0
7FFF80
3FFF00
0FFE00
ENDCHAR
STARTCHAR Ccircumflex
ENCODING 264
SWIDTH 578 0
DWIDTH 19 0
BBX 19 31 0 0
BITMAP
01F000
03F800
03FC00
07DC00
075C00
074E00
0F6E00
0EEE00
0FFE00
0FFE00
1FFE00
3C0780
7807C0
F9FFC0
F9FFC0
F9FFE0
F9FFE0
F9FFE0
F9FFE0
F9FFE0
F9FFE0
F9FFE0
F807E0
FC07E0
FFFFE0
FFFFE0
FFFFC0
FFFFC0
7FFF80
3FFF00
0FFE00
ENDCHAR
STARTCHAR ccircumflex
ENCODING 265
SWIDTH 578 0
DWIDTH 19 0
BBX 19 31 0 0
BITMAP
01F000
03F800
03FC00
07DC00
075C00
075E00
0E6E00
0EEE00
0FFE00
0FFE00
1FFE00
3C0780
7807C0
F9FFC0
F9FFC0
F9FFE0
F9FFE0
F9FFE0
F9FFE0
F9FFE0
F9FFE0
F9FFE0
F807E0
FC07E0
FFFFE0
FFFFE0
FFFFC0
FFFFC0
7FFF80
3FFF00
0FFE00
ENDCHAR
STARTCHAR Cdotaccent
ENCODING 266
SWIDTH 578 0
DWIDTH 19 0
BBX 19 29 0 0
BITMAP
07F800
1FFC00
1FFE00
3FFF00
3F3F00
3F3F00
3FFF00
1FFE00
1FFE00
3C0780
7807C0
F9FFC0
F9FFC0
F9FFE0
F9FFE0
F9FFE0
F9FFE0
F9FFE0
F9FFE0
F9FFE0
F807E0
FC07E0
FFFFE0
FFFFE0
FFFFC0
FFFFC0
7FFF80
3FFF00
0FFE00
ENDCHAR
STARTCHAR cdotaccent
ENCODING 267
SWIDTH 578 0
DWIDTH 19 0
BBX 19 29 0 0
BITMAP
07F800
0FFE00
1FFF00
1FFF00
3F3F00
3F3F00
1FFF00
1FFF00
1FFE00
3C0780
7807C0
F9FFC0
F9FFC0
F9FFE0
F9FFE0
F9FFE0
F9FFE0
F9FFE0
F9FFE0
F9FFE0
F807E0
FC07E0
FFFFE0
FFFFE0
FFFFC0
FFFFC0
7FFF80
3FFF00
0FFE00
ENDCHAR
STARTCHAR Ccaron
ENCODING 268
SWIDTH 578 0
DWIDTH 19 0
BBX 19 31 0 0
BITMAP
001000
0FFC00
1FFE00
1CCE00
1EDE00
0EDE00
0F5C00
0F7C00
0F3C00
07F800
1FFE00
3C0780
7807C0
F9FFC0
F9FFC0
F9FFE0
F9FFE0
F9FFE0
F9FFE0
F9FFE0
F9FFE0
F9FFE0
F807E0
FC07E0
FFFFE0
FFFFE0
FFFFC0
FFFFC0
7FFF80
3FFF00
0FFE00
ENDCHAR
STARTCHAR ccaron
ENCODING 269
SWIDTH 578 0
DWIDTH 19 0
BBX 19 31 0 0
BITMAP
001000
0FFC00
0FFE00
0EEE00
0ECE00
0E5E00
0F5E00
0F7C00
07BC00
07FC00
1FFE00
3C0780
7807C0
F9FFC0
F9FFC0
F9FFE0
F9FFE0
F9FFE0
F9FFE0
F9FFE0
F9FFE0
F9FFE0
F807E0
FC07E0
FFFFE0
FFFFE0
FFFFC0
FFFFC0
7FFF80
3FFF00
0FFE00
ENDCHAR
STARTCHAR Dcaron
ENCODING 270
SWIDTH 578 0
DWIDTH 19 0
BBX 19 31 0 0
BITMAP
001000
0FFC00
0FFE00
1EEE00
0ECE00
0EDE00
0F5C00
0F7C00
07BC00
07FC00
1FFE00
380380
7801C0
F9F9C0
F9F9C0
F9F9E0
F9F9E0
F9F9E0
F9F9E0
F9F9E0
F9F9E0
F9F9E0
F801E0
F803E0
FFFFE0
FFFFE0
FFFFC0
FFFFC0
7FFF80
3FFF00
0FFE00
ENDCHAR
STARTCHAR dcaron
ENCODING 271
SWIDTH 578 0
DWIDTH 19 0
BBX 19 21 0 0
BITMAP
1FFF00
300880
7004C0
F7E5C0
F7E5C0
F7E7E0
F7E7E0
F7E7E0
F7E7E0
F7E7E0
F7E7E0
F7E7E0
F007E0
F00FE0
FFFFE0
FFFFE0
FFFFC0
FFFFC0
7FFF80
3FFF00
0FFE00
ENDCHAR
STARTCHAR Dcroat
ENCODING 272
SWIDTH 578 0
DWIDTH 19 0
BBX 19 21 0 0
BITMAP
1FFE00
380380
7801C0
F9F9C0
F9F9C0
F9F9E0
E079E0
E079E0
F9F9E0
F9F9E0
F9F9E0
F9F9E0
F801E0
F803E0
FFFFE0
FFFFE0
FFFFC0
FFFFC0
7FFF80
3FFF00
0FFE00
ENDCHAR
STARTCHAR dcroat
ENCODING 273
SWIDTH 578 0
DWIDTH 19 0
BBX 19 21 0 0
BITMAP
1FFE00
380380
7801C0
F9F9C0
F9F9C0
F9F9E0
E079E0
E079E0
F9F9E0
F9F9E0
F9F9E0
F9F9E0
F801E0
F803E0
FFFFE0
FFFFE0
FFFFC0
FFFFC0
7FFF80
3FFF00
0FFE00
ENDCHAR
STARTCHAR Emacron
ENCODING 274
SWIDTH 578 0
DWIDTH 19 0
BBX 19 29 0 0
BITMAP
03FC00
07FF00
0FFF00
1FFF80
1E0780
1E0780
1FFF80
0FFF00
1FFE00
3C0380
7C03C0
FCFFC0
FCFFC0
FCFFE0
FCFFE0
FC07E0
FCFFE0
FCFFE0
FCFFE0
FCFFE0
FC03E0
FC03E0
FFFFE0
FFFFE0
FFFFC0
FFFFC0
7FFF80
3FFF00
0FFE00
ENDCHAR
STARTCHAR emacron
ENCODING 275
SWIDTH 578 0
DWIDTH 19 0
BBX 19 29 0 0
BITMAP
07F800
0FFE00
1FFF00
3FFF00
3C0F00
3C0F00
1FFF00
1FFE00
1FFE00
3C0780
7803C0
FBF3C0
FBF3C0
FBF3E0
F803E0
FBFFE0
FBFFE0
FBFFE0
FBFFE0
F9FFE0
F807E0
FFFFE0
FFFFE0
FFFFE0
FFFFC0
FFFFC0
7FFF80
3FFF00
0FFE00
ENDCHAR
STARTCHAR Ebreve
ENCODING 276
SWIDTH 578 0
DWIDTH 19 0
BBX 19 29 0 0
BITMAP
03FC00
07FF00
0FFF00
1FFF80
1E7780
1E6780
1F0F80
0FFF00
1FFE00
3C0380
7C03C0
FCFFC0
FCFFC0
FCFFE0
FCFFE0
FC07E0
FCFFE0
FCFFE0
FCFFE0
FCFFE0
FC03E0
FC03E0
FFFFE0
FFFFE0
FFFFC0
FFFFC0
7FFF80
3FFF00
0FFE00
ENDCHAR
STARTCHAR ebreve
ENCODING 277
SWIDTH 578 0
DWIDTH 19 0
BBX 19 29 0 0
BITMAP
07F800
0FFE00
1FFF00
3FFF00
3CEF00
3ECF00
1E1F00
1FFE00
1FFE00
3C0780
7803C0
FBF3C0
FBF3C0
FBF3E0
F803E0
FBFFE0
FBFFE0
FBFFE0
FBFFE0
F9FFE0
F807E0
FFFFE0
FFFFE0
FFFFE0
FFFFC0
FFFFC0
7FFF80
3FFF00
0FFE00
ENDCHAR
STARTCHAR Edotaccent
ENCODING 278
SWIDTH 578 0
DWIDTH 19 0
BBX 19 30 0 0
BITMAP
03FC00
07FF00
0FFF00
1FFF80
1F9F80
1F9F80
1FFF80
0FFF00
0FFF00
1FFE00
3C0380
7C03C0
FCFFC0
FCFFC0
FCFFE0
FCFFE0
FC07E0
FCFFE0
FCFFE0
FCFFE0
FCFFE0
FC03E0
FC03E0
FFFFE0
FFFFE0
FFFFC0
FFFFC0
7FFF80
3FFF00
0FFE00
ENDCHAR
STARTCHAR edotaccent
ENCODING 279
SWIDTH 578 0
DWIDTH 19 0
BBX 19 29 0 0
BITMAP
07F800
0FFE00
1FFF00
3FFF00
3F3F00
3F3F00
1FFF00
1FFF00
1FFE00
3C0780
7803C0
FBF3C0
FBF3C0
FBF3E0
F803E0
FBFFE0
FBFFE0
FBFFE0
FBFFE0
F9FFE0
F807E0
FFFFE0
FFFFE0
FFFFE0
FFFFC0
FFFFC0
7FFF80
3FFF00
0FFE00
ENDCHAR
STARTCHAR Eogonek
ENCODING 280
SWIDTH 578 0
DWIDTH 19 0
BBX 19 21 0 0
BITMAP
1FFE00
3C0380
7C03C0
FCFFC0
FCFFC0
FCFFE0
FCFFE0
FC07E0
FCFFE0
FCFFE0
FCFFE0
FCFFE0
FC03E0
FC03E0
FFFBE0
FFE7E0
FFEFC0
FFE7C0
7FF380
3FFF00
0FFE00
ENDCHAR
STARTCHAR eogonek
ENCODING 281
SWIDTH 578 0
DWIDTH 19 0
BBX 19 21 0 0
BITMAP
1FFE00
3C0780
7803C0
FBF3C0
FBF3C0
FBF3E0
F803E0
FBFFE0
FBFFE0
FBFFE0
FBFFE0
F9FFE0
F807E0
FFFFE0
FF9FE0
FF3FE0
FF3FC0
FF8FC0
7FFF80
3FFF00
0FFE00
ENDCHAR
STARTCHAR Ecaron
ENCODING 282
SWIDTH 578 0
DWIDTH 19 0
BBX 19 31 0 0
BITMAP
000800
07FE00
0FFF00
0E7700
0F6F00
076F00
07AE00
07BE00
039E00
03FC00
1FFE00
3C0380
7C03C0
FCFFC0
FCFFC0
FCFFE0
FCFFE0
FC07E0
FCFFE0
FCFFE0
FCFFE0
FCFFE0
FC03E0
FC03E0
FFFFE0
FFFFE0
FFFFC0
FFFFC0
7FFF80
3FFF00
0FFE00
ENDCHAR
STARTCHAR ecaron
ENCODING 283
SWIDTH 578 0
DWIDTH 19 0
BBX 19 31 0 0
BITMAP
001000
0FFC00
0FFE00
1EEE00
0ECE00
0EDE00
0F5C00
0F7C00
07BC00
07FC00
1FFE00
3C0780
7803C0
FBF3C0
FBF3C0
FBF3E0
F803E0
FBFFE0
FBFFE0
FBFFE0
FBFFE0
F9FFE0
F807E0
FFFFE0
FFFFE0
FFFFE0
FFFFC0
FFFFC0
7FFF80
3FFF00
0FFE00
ENDCHAR
STARTCHAR Gcircumflex
ENCODING 284
SWIDTH 578 0
DWIDTH 19 0
BBX 19 31 0 0
BITMAP
01F000
03F800
03F800
07DC00
075C00
0F5E00
0E6E00
0EEE00
0FFE00
0FFE00
1FFE00
3C0380
7C03C0
F9FFC0
F9FFC0
F9FFE0
F9FFE0
F9C1E0
F9C1E0
F9F9E0
F9F9E0
F9F9E0
FC01E0
FC03E0
FFFFE0
FFFFE0
FFFFC0
FFFFC0
7FFF80
3FFF00
0FFE00
ENDCHAR
STARTCHAR gcircumflex
ENCODING 285
SWIDTH 578 0
DWIDTH 19 0
BBX 19 31 0 0
BITMAP
01F000
03F800
03F800
07DC00
075C00
0F5E00
0E6E00
0EEE00
0FFE00
0FFE00
1FFE00
3C0380
7C03C0
F9FFC0
F9FFC0
F9FFE0
F9FFE0
F9C1E0
F9C1E0
F9F9E0
F9F9E0
F9F9E0
FC01E0
FC03E0
FFFFE0
FFFFE0
FFFFC0
FFFFC0
7FFF80
3FFF00
0FFE00
ENDCHAR
STARTCHAR Gbreve
ENCODING 286
SWIDTH 578 0
DWIDTH 19 0
BBX 19 30 0 0
BITMAP
03FC00
0FFE00
1FFF00
1FFF00
1EEF00
1E4F00
1F0F00
0FFF00
07FE00
1FFE00
3C0380
7C03C0
F9FFC0
F9FFC0
F9FFE0
F9FFE0
F9C1E0
F9C1E0
F9F9E0
F9F9E0
F9F9E0
FC01E0
FC03E0
FFFFE0
FFFFE0
FFFFC0
FFFFC0
7FFF80
3FFF00
0FFE00
ENDCHAR
STARTCHAR gbreve
ENCODING 287
SWIDTH 578 0
DWIDTH 19 0
BBX 19 29 0 0
BITMAP
07F800
0FFE00
1FFF00
3FFF00
3CEF00
3ECF00
1E1F00
1FFE00
1FFE00
3C0380
7C03C0
F9FFC0
F9FFC0
F9FFE0
F9FFE0
F9C1E0
F9C1E0
F9F9E0
F9F9E0
F9F9E0
FC01E0
FC03E0
FFFFE0
FFFFE0
FFFFC0
FFFFC0
7FFF80
3FFF00
0FFE00
ENDCHAR
STARTCHAR Gdotaccent
ENCODING 288
SWIDTH 578 0
DWIDTH 19 0
BBX 19 29 0 0
BITMAP
07F800
0FFE00
1FFF00
3FFF00
3F3F00
3F3F00
1FFF00
1FFF00
1FFE00
3C0380
7C03C0
F9FFC0
F9FFC0
F9FFE0
F9FFE0
F9C1E0
F9C1E0
F9F9E0
F9F9E0
F9F9E0
FC01E0
FC03E0
FFFFE0
FFFFE0
FFFFC0
FFFFC0
7FFF80
3FFF00
0FFE00
ENDCHAR
STARTCHAR gdotaccent
ENCODING 289
SWIDTH 578 0
DWIDTH 19 0
BBX 19 29 0 0
BITMAP
07F800
0FFE00
1FFF00
3FFF00
3F3F00
3F3F00
1FFF00
1FFF00
1FFE00
3C0380
7C03C0
F9FFC0
F9FFC0
F9FFE0
F9FFE0
F9C1E0
F9C1E0
F9F9E0
F9F9E0
F9F9E0
FC01E0
FC03E0
FFFFE0
FFFFE0
FFFFC0
FFFFC0
7FFF80
3FFF00
0FFE00
ENDCHAR
STARTCHAR Gcommaaccent
ENCODING 290
SWIDTH 578 0
DWIDTH 19 0
BBX 19 21 0 0
BITMAP
1FFE00
3C0380
7C03C0
F9FFC0
F9FFC0
F9FFE0
F9FFE0
F9C1E0
F9C1E0
F9F9E0
F9F9E0
F9F9E0
FC01E0
FC03E0
FFFFE0
FF9FE0
FF9FC0
FFDFC0
7FDF80
3FFF00
0FFE00
ENDCHAR
STARTCHAR gcommaaccent
ENCODING 291
SWIDTH 578 0
DWIDTH 19 0
BBX 19 21 0 0
BITMAP
1FFE00
3C0380
7C03C0
F9FFC0
F9FFC0
F9FFE0
F9FFE0
F9C1E0
F9C1E0
F9F9E0
F9F9E0
F9F9E0
FC01E0
FC03E0
FFFFE0
FF9FE0
FF9FC0
FFDFC0
7FDF80
3FFF00
0FFE00
ENDCHAR
STARTCHAR Hcircumflex
ENCODING 292
SWIDTH 578 0
DWIDTH 19 0
BBX 19 31 0 0
BITMAP
01F000
03F800
03FC00
07DC00
075C00
0F5E00
0E6E00
0EEE00
0FFE00
0FFE00
1FFE00
39F980
79F9C0
F9F9C0
F9F9C0
F9F9E0
F801E0
F801E0
F9F9E0
F9F9E0
F9F9E0
F9F9E0
F9F9E0
F9F9E0
FFFFE0
FFFFE0
FFFFC0
FFFFC0
7FFF80
3FFF00
0FFE00
ENDCHAR
STARTCHAR hcircumflex
ENCODING 293
SWIDTH 578 0
DWIDTH 19 0
BBX 19 31 0 0
BITMAP
01F000
03F800
03FC00
07DC00
075E00
074E00
0F6E00
0EEF00
0FFE00
0FFE00
1FFE00
39F980
79F9C0
F9F9C0
F9F9C0
F9F9E0
F801E0
F801E0
F9F9E0
F9F9E0
F9F9E0
F9F9E0
F9F9E0
F9F9E0
FFFFE0
FFFFE0
FFFFC0
FFFFC0
7FFF80
3FFF00
0FFE00
ENDCHAR
STARTCHAR Hbar
ENCODING 294
SWIDTH 578 0
DWIDTH 19 0
BBX 19 30 0 0
BITMAP
03FC00
0FFE00
1FFF00
1FFF00
1C0F00
1C0F00
1FFF00
0FFF00
07FE00
1FFE00
39F980
79F9C0
F9F9C0
F9F9C0
F9F9E0
F801E0
F801E0
F9F9E0
F9F9E0
F9F9E0
F9F9E0
F9F9E0
F9F9E0
FFFFE0
FFFFE0
FFFFC0
FFFFC0
7FFF80
3FFF00
0FFE00
ENDCHAR
STARTCHAR hbar
ENCODING 295
SWIDTH 578 0
DWIDTH 19 0
BBX 19 21 0 0
BITMAP
1FFE00
39F980
79F9C0
F000C0
F000C0
F9F9E0
F801E0
F801E0
F9F9E0
F9F9E0
F9F9E0
F9F9E0
F9F9E0
F9F9E0
FFFFE0
FFFFE0
FFFFC0
FFFFC0
7FFF80
3FFF00
0FFE00
ENDCHAR
STARTCHAR Itilde
ENCODING 296
SWIDTH 578 0
DWIDTH 19 0
BBX 19 30 0 0
BITMAP
01FC00
07FE00
0FFF00
0FFF80
1FFF80
1FFF80
1E1780
0CC780
0FFF00
1FFF00
3C0180
7C01C0
FF9FC0
FF9FC0
FF9FE0
FF9FE0
FF9FE0
FF9FE0
FF9FE0
FF9FE0
FF9FE0
FC01E0
FC01E0
FFFFE0
FFFFE0
FFFFC0
FFFFC0
7FFF80
3FFF00
0FFE00
ENDCHAR
STARTCHAR itilde
ENCODING 297
SWIDTH 578 0
DWIDTH 19 0
BBX 19 30 0 0
BITMAP
03FC00
07FE00
0FFF00
0FFF80
1FFF80
1FFF80
1E3780
1CC780
0FFF00
1FFE00
3C0180
7C01C0
FF9FC0
FF9FC0
FF9FE0
FF9FE0
FF9FE0
FF9FE0
FF9FE0
FF9FE0
FF9FE0
FC01E0
FC01E0
FFFFE0
FFFFE0
FFFFC0
FFFFC0
7FFF80
3FFF00
0FFE00
ENDCHAR
STARTCHAR Imacron
ENCODING 298
SWIDTH 578 0
DWIDTH 19 0
BBX 19 29 0 0
BITMAP
03FC00
0FFE00
0FFF00
1FFF80
1E0780
1E0780
1FFF80
0FFF00
1FFE00
3C0180
7C01C0
FF9FC0
FF9FC0
FF9FE0
FF9FE0
FF9FE0
FF9FE0
FF9FE0
FF9FE0
FF9FE0
FC01E0
FC01E0
FFFFE0
FFFFE0
FFFFC0
FFFFC0
7FFF80
3FFF00
0FFE00
ENDCHAR
STARTCHAR imacron
ENCODING 299
SWIDTH 578 0
DWIDTH 19 0
BBX 19 29 0 0
BITMAP
03FC00
0FFE00
0FFF00
1FFF80
1E0780
1E0780
1FFF00
0FFF00
1FFE00
3C0180
7C01C0
FF9FC0
FF9FC0
FF9FE0
FF9FE0
FF9FE0
FF9FE0
FF9FE0
FF9FE0
FF9FE0
FC01E0
FC01E0
FFFFE0
FFFFE0
FFFFC0
FFFFC0
7FFF80
3FFF00
0FFE00
ENDCHAR
STARTCHAR Ibreve
ENCODING 300
SWIDTH 578 0
DWIDTH 19 0
BBX 19 29 0 0
BITMAP
03FC00
07FF00
0FFF00
1FFF80
1E7780
1E6780
0F0F80
0FFF00
1FFE00
3C0180
7C01C0
FF9FC0
FF9FC0
FF9FE0
FF9FE0
FF9FE0
FF9FE0
FF9FE0
FF9FE0
FF9FE0
FC01E0
FC01E0
FFFFE0
FFFFE0
FFFFC0
FFFFC0
7FFF80
3FFF00
0FFE00
ENDCHAR
STARTCHAR ibreve
ENCODING 301
SWIDTH 578 0
DWIDTH 19 0
BBX 19 29 0 0
BITMAP
03FC00
07FF00
0FFF00
1FFF80
1E7780
1E6780
0F0F80
0FFF00
1FFE00
3C0180
7C01C0
FF9FC0
FF9FC0
FF9FE0
FF9FE0
FF9FE0
FF9FE0
FF9FE0
FF9FE0
FF9FE0
FC01E0
FC01E0
FFFFE0
FFFFE0
FFFFC0
FFFFC0
7FFF80
3FFF00
0FFE00
ENDCHAR
STARTCHAR Iogonek
ENCODING 302
SWIDTH 578 0
DWIDTH 19 0
BBX 19 21 0 0
BITMAP
1FFE00
3C0180
7C01C0
FF9FC0
FF9FC0
FF9FE0
FF9FE0
FF9FE0
FF9FE0
FF9FE0
FF9FE0
FF9FE0
FC01E0
FC01E0
FFFBE0
FFE7E0
FFE7C0
FFE3C0
7FF180
3FFF00
0FFE00
ENDCHAR
STARTCHAR iogonek
ENCODING 303
SWIDTH 578 0
DWIDTH 19 0
BBX 19 21 0 0
BITMAP
1FFE00
3C0180
7C01C0
FF9FC0
FF9FC0
FF9FE0
FF9FE0
FF9FE0
FF9FE0
FF9FE0
FF9FE0
FF9FE0
FC01E0
FC05E0
FFFBE0
FFE7E0
FFE7C0
FFE3C0
7FF180
3FFF00
0FFE00
ENDCHAR
STARTCHAR Idotaccent
ENCODING 304
SWIDTH 578 0
DWIDTH 19 0
BBX 19 29 0 0
BITMAP
03FC00
0FFE00
1FFF00
1FFF00
1F9F80
1F9F00
1FFF00
1FFF00
1FFE00
3C0180
7C01C0
FF9FC0
FF9FC0
FF9FE0
FF9FE0
FF9FE0
FF9FE0
FF9FE0
FF9FE0
FF9FE0
FC01E0
FC01E0
FFFFE0
FFFFE0
FFFFC0
FFFFC0
7FFF80
3FFF00
0FFE00
ENDCHAR
STARTCHAR dotlessi
ENCODING 305
SWIDTH 578 0
DWIDTH 19 0
BBX 19 21 0 0
BITMAP
1FFE00
3C0180
7C01C0
FF9FC0
FF9FC0
FF9FE0
FF9FE0
FF9FE0
FF9FE0
FF9FE0
FF9FE0
FF9FE0
FC01E0
FC01E0
FFFFE0
FFFFE0
FFFFC0
FFFFC0
7FFF80
3FFF00
0FFE00
ENDCHAR
STARTCHAR IJ
ENCODING 306
SWIDTH 578 0
DWIDTH 19 0
BBX 19 21 0 0
BITMAP
1FFE00
207D80
607DC0
F9FDC0
F9FDC0
F9FDE0
F9FDE0
F9FDE0
F9FDE0
F9FDE0
F9FDE0
F9FDE0
E041E0
E041E0
FFFFE0
FFFFE0
FFFFC0
FFFFC0
7FFF80
3FFF00
0FFE00
ENDCHAR
STARTCHAR ij
ENCODING 307
SWIDTH 578 0
DWIDTH 19 0
BBX 19 21 0 0
BITMAP
1FFE00
207D80
607DC0
F9FDC0
F9FDC0
F9FDE0
F9FDE0
F9FDE0
F9FDE0
F9FDE0
F9FDE0
F9FDE0
E041E0
E041E0
FFFFE0
FFFFE0
FFFFC0
FFFFC0
7FFF80
3FFF00
0FFE00
ENDCHAR
STARTCHAR Jcircumflex
ENCODING 308
SWIDTH 578 0
DWIDTH 19 0
BBX 19 31 0 0
BITMAP
01F800
03F800
03FC00
03DC00
075E00
076E00
0F6E00
0E6F00
0FFF00
0FFE00
1FFE00
3FEF80
7FEFC0
FFEFC0
FFEFC0
FFEFE0
FFEFE0
FFEFE0
FFEFE0
FFEFE0
FFEFE0
FFEFE0
FE0FE0
FE1FE0
FFFFE0
FFFFE0
FFFFC0
FFFFC0
7FFF80
3FFF00
0FFE00
ENDCHAR
STARTCHAR jcircumflex
ENCODING 309
SWIDTH 578 0
DWIDTH 19 0
BBX 19 31 0 0
BITMAP
01F800
03F800
03FC00
03DC00
075E00
076E00
0F6E00
0E6F00
0FFF00
0FFE00
1FFE00
3FEF80
7FEFC0
FFEFC0
FFEFC0
FFEFE0
FFEFE0
FFEFE0
FFEFE0
FFEFE0
FFEFE0
FFEFE0
FE0FE0
FE1FE0
FFFFE0
FFFFE0
FFFFC0
FFFFC0
7FFF80
3FFF00
0FFE00
ENDCHAR
STARTCHAR Kcommaaccent
ENCODING 310
SWIDTH 578 0
DWIDTH 19 0
BBX 19 21 0 0
BITMAP
1FFE00
3CFD80
7CF9C0
FCE3C0
FCC7C0
FC8FE0
FC9FE0
FC3FE0
FC9FE0
FCCFE0
FCE7E0
FCF3E0
FCF9E0
FCF9E0
FFFFE0
FF9FE0
FF9FC0
FFDFC0
7FDF80
3FFF00
0FFE00
ENDCHAR
STARTCHAR kcommaaccent
ENCODING 311
SWIDTH 578 0
DWIDTH 19 0
BBX 19 21 0 0
BITMAP
1FFE00
3CFD80
7CF9C0
FCE3C0
FCC7C0
FC8FE0
FC9FE0
FC3FE0
FC9FE0
FCCFE0
FCE7E0
FCF3E0
FCF9E0
FCF9E0
FFFFE0
FF9FE0
FF9FC0
FFDFC0
7FDF80
3FFF00
0FFE00
ENDCHAR
STARTCHAR kgreenlandic
ENCODING 312
SWIDTH 578 0
DWIDTH 19 0
BBX 19 21 0 0
BITMAP
1FFE00
3CFD80
7CF9C0
FCE3C0
FCC7C0
FC8FE0
FC9FE0
FC3FE0
FC9FE0
FCCFE0
FCE7E0
FCF3E0
FCF9E0
FCF9E0
FFFFE0
FFFFE0
FFFFC0
FFFFC0
7FFF80
3FFF00
0FFE00
ENDCHAR
STARTCHAR Lacute
ENCODING 313
SWIDTH 578 0
DWIDTH 19 0
BBX 19 31 0 0
BITMAP
00F000
03F800
03FC00
079C00
073C00
073C00
077800
0F7000
0FF000
07E000
1FFE00
3E7F80
7E7FC0
FE7FC0
FE7FC0
FE7FE0
FE7FE0
FE7FE0
FE7FE0
FE7FE0
FE7FE0
FE7FE0
FE07E0
FE07E0
FFFFE0
FFFFE0
FFFFC0
FFFFC0
7FFF80
3FFF00
0FFE00
ENDCHAR
STARTCHAR lacute
ENCODING 314
SWIDTH 578 0
DWIDTH 19 0
BBX 19 31 0 0
BITMAP
00F000
03F800
03FC00
079C00
073C00
073C00
077800
0F7000
0FF000
07E000
1FFE00
3E7F80
7E7FC0
FE7FC0
FE7FC0
FE7FE0
FE7FE0
FE7FE0
FE7FE0
FE7FE0
FE7FE0
FE7FE0
FE07E0
FE07E0
FFFFE0
FFFFE0
FFFFC0
FFFFC0
7FFF80
3FFF00
0FFE00
ENDCHAR
STARTCHAR Lcommaaccent
ENCODING 315
SWIDTH 578 0
DWIDTH 19 0
BBX 19 21 0 0
BITMAP
1FFE00
3E7F80
7E7FC0
FE7FC0
FE7FC0
FE7FE0
FE7FE0
FE7FE0
FE7FE0
FE7FE0
FE7FE0
FE7FE0
FE07E0
FE07E0
FFFFE0
FF9FE0
FF9FC0
FFDFC0
7FDF80
3FFF00
0FFE00
ENDCHAR
STARTCHAR lcommaaccent
ENCODING 316
SWIDTH 578 0
DWIDTH 19 0
BBX 19 21 0 0
BITMAP
1FFE00
3E7F80
7E7FC0
FE7FC0
FE7FC0
FE7FE0
FE7FE0
FE7FE0
FE7FE0
FE7FE0
FE7FE0
FE7FE0
FE07E0
FE07E0
FFFFE0
FF9FE0
FF9FC0
FFDFC0
7FDF80
3FFF00
0FFE00
ENDCHAR
STARTCHAR Lcaron
ENCODING 317
SWIDTH 578 0
DWIDTH 19 0
BBX 19 21 0 0
BITMAP
1FFE00
3E6780
7E67C0
FE77C0
FE6FC0
FE7FE0
FE7FE0
FE7FE0
FE7FE0
FE7FE0
FE7FE0
FE7FE0
FE07E0
FE07E0
FFFFE0
FFFFE0
FFFFC0
FFFFC0
7FFF80
3FFF00
0FFE00
ENDCHAR
STARTCHAR lcaron
ENCODING 318
SWIDTH 578 0
DWIDTH 19 0
BBX 19 21 0 0
BITMAP
1FFE00
3E6780
7E67C0
FE77C0
FE6FC0
FE7FE0
FE7FE0
FE7FE0
FE7FE0
FE7FE0
FE7FE0
FE7FE0
FE07E0
FE07E0
FFFFE0
FFFFE0
FFFFC0
FFFFC0
7FFF80
3FFF00
0FFE00
ENDCHAR
STARTCHAR Ldot
ENCODING 319
SWIDTH 578 0
DWIDTH 19 0
BBX 19 21 0 0
BITMAP
1FFE00
3E7F80
7E7FC0
FE7FC0
FE7FC0
FE4FE0
FE4FE0
FE7FE0
FE7FE0
FE7FE0
FE7FE0
FE7FE0
FE07E0
FE07E0
FFFFE0
FFFFE0
FFFFC0
FFFFC0
7FFF80
3FFF00
0FFE00
ENDCHAR
STARTCHAR ldot
ENCODING 320
SWIDTH 578 0
DWIDTH 19 0
BBX 19 21 0 0
BITMAP
1FFE00
3E7F80
7E7FC0
FE7FC0
FE7FC0
FE4FE0
FE4FE0
FE7FE0
FE7FE0
FE7FE0
FE7FE0
FE7FE0
FE07E0
FE07E0
FFFFE0
FFFFE0
FFFFC0
FFFFC0
7FFF80
3FFF00
0FFE00
ENDCHAR
STARTCHAR Lslash
ENCODING 321
SWIDTH 578 0
DWIDTH 19 0
BBX 19 21 0 0
BITMAP
1FFE00
3E7F80
7E7FC0
FE7FC0
FE7FC0
FEBFE0
FE3FE0
FC7FE0
FA7FE0
FE7FE0
FE7FE0
FE7FE0
FE07E0
FE07E0
FFFFE0
FFFFE0
FFFFC0
FFFFC0
7FFF80
3FFF00
0FFE00
ENDCHAR
STARTCHAR lslash
ENCODING 322
SWIDTH 578 0
DWIDTH 19 0
BBX 19 21 0 0
BITMAP
1FFE00
3E7F80
7E7FC0
FE7FC0
FE7FC0
FEBFE0
FE3FE0
FC7FE0
FA7FE0
FE7FE0
FE7FE0
FE7FE0
FE07E0
FE07E0
FFFFE0
FFFFE0
FFFFC0
FFFFC0
7FFF80
3FFF00
0FFE00
ENDCHAR
STARTCHAR Nacute
ENCODING 323
SWIDTH 578 0
DWIDTH 19 0
BBX 19 31 0 0
BITMAP
007800
01FE00
01FE00
01CF00
03DE00
03DE00
039C00
03BC00
03F800
03F800
1FFE00
380380
7803C0
F9F9C0
F9F9C0
F9F9E0
F9F9E0
F9F9E0
F9F9E0
F9F9E0
F9F9E0
F9F9E0
F9F9E0
F9F9E0
FFFFE0
FFFFE0
FFFFC0
FFFFC0
7FFF80
3FFF00
0FFE00
ENDCHAR
STARTCHAR nacute
ENCODING 324
SWIDTH 578 0
DWIDTH 19 0
BBX 19 31 0 0
BITMAP
007800
01FE00
01FE00
01CF00
03DE00
03DE00
039C00
03BC00
03F800
03F800
1FFE00
380380
7803C0
F9F9C0
F9F9C0
F9F9E0
F9F9E0
F9F9E0
F9F9E0
F9F9E0
F9F9E0
F9F9E0
F9F9E0
F9F9E0
FFFFE0
FFFFE0
FFFFC0
FFFFC0
7FFF80
3FFF00
0FFE00
ENDCHAR
STARTCHAR Ncommaaccent
ENCODING 325
SWIDTH 578 0
DWIDTH 19 0
BBX 19 21 0 0
BITMAP
1FFE00
380380
7803C0
F9F9C0
F9F9C0
F9F9E0
F9F9E0
F9F9E0
F9F9E0
F9F9E0
F9F9E0
F9F9E0
F9F9E0
F9F9E0
FFFFE0
FF9FE0
FF9FC0
FFDFC0
7FDF80
3FFF00
0FFE00
ENDCHAR
STARTCHAR ncommaaccent
ENCODING 326
SWIDTH 578 0
DWIDTH 19 0
BBX 19 21 0 0
BITMAP
1FFE00
380380
7803C0
F9F9C0
F9F9C0
F9F9E0
F9F9E0
F9F9E0
F9F9E0
F9F9E0
F9F9E0
F9F9E0
F9F9E0
F9F9E0
FFFFE0
FF9FE0
FF9FC0
FFDFC0
7FDF80
3FFF00
0FFE00
ENDCHAR
STARTCHAR Ncaron
ENCODING 327
SWIDTH 578 0
DWIDTH 19 0
BBX 19 31 0 0
BITMAP
001000
0FFC00
0FFE00
1EEE00
0ECE00
0EDE00
0F5C00
0F7C00
07BC00
07FC00
1FFE00
380380
7803C0
F9F9C0
F9F9C0
F9F9E0
F9F9E0
F9F9E0
F9F9E0
F9F9E0
F9F9E0
F9F9E0
F9F9E0
F9F9E0
FFFFE0
FFFFE0
FFFFC0
FFFFC0
7FFF80
3FFF00
0FFE00
ENDCHAR
STARTCHAR ncaron
ENCODING 328
SWIDTH 578 0
DWIDTH 19 0
BBX 19 31 0 0
BITMAP
001000
0FFC00
0FFE00
1EEE00
0ECE00
0EDE00
0F5C00
0F7C00
07BC00
07FC00
1FFE00
380380
7803C0
F9F9C0
F9F9C0
F9F9E0
F9F9E0
F9F9E0
F9F9E0
F9F9E0
F9F9E0
F9F9E0
F9F9E0
F9F9E0
FFFFE0
FFFFE0
FFFFC0
FFFFC0
7FFF80
3FFF00
0FFE00
ENDCHAR
STARTCHAR napostrophe
ENCODING 329
SWIDTH 578 0
DWIDTH 19 0
BBX 19 21 0 0
BITMAP
1FFE00
380380
4803C0
C9F9C0
E9F9C0
C9F9E0
F9F9E0
F9F9E0
F9F9E0
F9F9E0
F9F9E0
F9F9E0
F9F9E0
F9F9E0
FFFFE0
FFFFE0
FFFFC0
FFFFC0
7FFF80
3FFF00
0FFE00
ENDCHAR
STARTCHAR Eng
ENCODING 330
SWIDTH 578 0
DWIDTH 19 0
BBX 19 21 0 0
BITMAP
1FFE00
380380
7803C0
F9F9C0
F9F9C0
F9F9E0
F9F9E0
F9F9E0
F9F9E0
F9F9E0
F9F9E0
F9F9E0
F9F9E0
F9F9E0
FFF9E0
FFF9E0
FFF9C0
FF83C0
7FFF80
3FFF00
0FFE00
ENDCHAR
STARTCHAR eng
ENCODING 331
SWIDTH 578 0
DWIDTH 19 0
BBX 19 21 0 0
BITMAP
1FFE00
380380
7803C0
F9F9C0
F9F9C0
F9F9E0
F9F9E0
F9F9E0
F9F9E0
F9F9E0
F9F9E0
F9F9E0
F9F9E0
F9F9E0
FFF9E0
FFF9E0
FFF9C0
FF83C0
7FFF80
3FFF00
0FFE00
ENDCHAR
STARTCHAR Omacron
ENCODING 332
SWIDTH 578 0
DWIDTH 19 0
BBX 19 29 0 0
BITMAP
03FC00
0FFE00
0FFF00
1FFF80
1E0780
1E0780
1FFF80
0FFF00
1FFE00
3C0380
7801C0
F9F9C0
F9F9C0
F9F9E0
F9F9E0
F9F9E0
F9F9E0
F9F9E0
F9F9E0
F9F9E0
F801E0
FC03E0
FFFFE0
FFFFE0
FFFFC0
FFFFC0
7FFF80
3FFF00
0FFE00
ENDCHAR
STARTCHAR omacron
ENCODING 333
SWIDTH 578 0
DWIDTH 19 0
BBX 19 29 0 0
BITMAP
03FC00
0FFE00
0FFF00
1FFF80
1E0780
1E0780
1FFF80
0FFF00
1FFE00
3C0380
7801C0
F9F9C0
F9F9C0
F9F9E0
F9F9E0
F9F9E0
F9F9E0
F9F9E0
F9F9E0
F9F9E0
F801E0
FC03E0
FFFFE0
FFFFE0
FFFFC0
FFFFC0
7FFF80
3FFF00
0FFE00
ENDCHAR
STARTCHAR Obreve
ENCODING 334
SWIDTH 578 0
DWIDTH 19 0
BBX 19 29 0 0
BITMAP
03FC00
0FFE00
0FFF00
1FFF80
1E6780
1E6780
1F0F80
0FFF00
1FFE00
3C0380
7801C0
F9F9C0
F9F9C0
F9F9E0
F9F9E0
F9F9E0
F9F9E0
F9F9E0
F9F9E0
F9F9E0
F801E0
FC03E0
FFFFE0
FFFFE0
FFFFC0
FFFFC0
7FFF80
3FFF00
0FFE00
ENDCHAR
STARTCHAR obreve
ENCODING 335
SWIDTH 578 0
DWIDTH 19 0
BBX 19 29 0 0
BITMAP
03FC00
0FFE00
0FFF00
1FFF80
1E6780
1E6780
1F0F80
0FFF00
1FFE00
3C0380
7801C0
F9F9C0
F9F9C0
F9F9E0
F9F9E0
F9F9E0
F9F9E0
F9F9E0
F9F9E0
F9F9E0
F801E0
FC03E0
FFFFE0
FFFFE0
FFFFC0
FFFFC0
7FFF80
3FFF00
0FFE00
ENDCHAR
STARTCHAR Ohungarumlaut
ENCODING 336
SWIDTH 578 0
DWIDTH 19 0
BBX 19 31 0 0
BITMAP
007F00
00FF80
00FFC0
01ECC0
01DDE0
03DBC0
07BB80
077780
07FF00
07FE00
1FFE00
3C0380
7801C0
F9F9C0
F9F9C0
F9F9E0
F9F9E0
F9F9E0
F9F9E0
F9F9E0
F9F9E0
F9F9E0
F801E0
FC03E0
FFFFE0
FFFFE0
FFFFC0
FFFFC0
7FFF80
3FFF00
0FFE00
ENDCHAR
STARTCHAR ohungarumlaut
ENCODING 337
SWIDTH 578 0
DWIDTH 19 0
BBX 19 31 0 0
BITMAP
007F00
00FF80
00FFC0
01ECC0
01DDE0
03DBC0
07BB80
077780
07FF00
07FE00
1FFE00
3C0380
7801C0
F9F9C0
F9F9C0
F9F9E0
F9F9E0
F9F9E0
F9F9E0
F9F9E0
F9F9E0
F9F9E0
F801E0
FC03E0
FFFFE0
FFFFE0
FFFFC0
FFFFC0
7FFF80
3FFF00
0FFE00
ENDCHAR
STARTCHAR OE
ENCODING 338
SWIDTH 578 0
DWIDTH 19 0
BBX 19 21 0 0
BITMAP
1FFE00
302180
7001C0
F79FC0
F79FC0
F79FE0
F79FE0
F781E0
F79FE0
F79FE0
F79FE0
F79FE0
F001E0
F821E0
FFFFE0
FFFFE0
FFFFC0
FFFFC0
7FFF80
3FFF00
0FFE00
ENDCHAR
STARTCHAR oe
ENCODING 339
SWIDTH 578 0
DWIDTH 19 0
BBX 19 21 0 0
BITMAP
1FFE00
302180
7001C0
F79FC0
F79FC0
F79FE0
F79FE0
F781E0
F79FE0
F79FE0
F79FE0
F79FE0
F001E0
F821E0
FFFFE0
FFFFE0
FFFFC0
FFFFC0
7FFF80
3FFF00
0FFE00
ENDCHAR
STARTCHAR Racute
ENCODING 340
SWIDTH 578 0
DWIDTH 19 0
BBX 19 31 0 0
BITMAP
007800
01FE00
01FE00
01CF00
03DE00
03DE00
039C00
03BC00
03F800
03F800
1FFE00
380780
7803C0
F9F3C0
F9F3C0
F9F3E0
F9F3E0
F80FE0
F803E0
F9F3E0
F9F3E0
F9F3E0
F9F3E0
F9F3E0
FFFFE0
FFFFE0
FFFFC0
FFFFC0
7FFF80
3FFF00
0FFE00
ENDCHAR
STARTCHAR racute
ENCODING 341
SWIDTH 578 0
DWIDTH 19 0
BBX 19 31 0 0
BITMAP
007800
01FE00
01FE00
01CF00
03DE00
03DE00
039C00
03BC00
03F800
03F800
1FFE00
380780
7803C0
F9F3C0
F9F3C0
F9F3E0
F9F3E0
F80FE0
F803E0
F9F3E0
F9F3E0
F9F3E0
F9F3E0
F9F3E0
FFFFE0
FFFFE0
FFFFC0
FFFFC0
7FFF80
3FFF00
0FFE00
ENDCHAR
STARTCHAR Rcommaaccent
ENCODING 342
SWIDTH 578 0
DWIDTH 19 0
BBX 19 21 0 0
BITMAP
1FFE00
380780
7803C0
F9F3C0
F9F3C0
F9F3E0
F9F3E0
F80FE0
F803E0
F9F3E0
F9F3E0
F9F3E0
F9F3E0
F9F3E0
FFFFE0
FF9FE0
FF9FC0
FFDFC0
7FDF80
3FFF00
0FFE00
ENDCHAR
STARTCHAR rcommaaccent
ENCODING 343
SWIDTH 578 0
DWIDTH 19 0
BBX 19 21 0 0
BITMAP
1FFE00
380780
7803C0
F9F3C0
F9F3C0
F9F3E0
F9F3E0
F80FE0
F803E0
F9F3E0
F9F3E0
F9F3E0
F9F3E0
F9F3E0
FFFFE0
FF9FE0
FF9FC0
FFDFC0
7FDF80
3FFF00
0FFE00
ENDCHAR
STARTCHAR Rcaron
ENCODING 344
SWIDTH 578 0
DWIDTH 19 0
BBX 19 31 0 0
BITMAP
001000
0FFC00
0FFE00
1EEE00
0ECE00
0EDE00
0F5C00
0F7C00
07BC00
07FC00
1FFE00
380780
7803C0
F9F3C0
F9F3C0
F9F3E0
F9F3E0
F80FE0
F803E0
F9F3E0
F9F3E0
F9F3E0
F9F3E0
F9F3E0
FFFFE0
FFFFE0
FFFFC0
FFFFC0
7FFF80
3FFF00
0FFE00
ENDCHAR
STARTCHAR rcaron
ENCODING 345
SWIDTH 578 0
DWIDTH 19 0
BBX 19 31 0 0
BITMAP
001000
0FFC00
0FFE00
1EEE00
0ECE00
0EDE00
0F5C00
0F7C00
07BC00
07FC00
1FFE00
380780
7803C0
F9F3C0
F9F3C0
F9F3E0
F9F3E0
F80FE0
F803E0
F9F3E0
F9F3E0
F9F3E0
F9F3E0
F9F3E0
FFFFE0
FFFFE0
FFFFC0
FFFFC0
7FFF80
3FFF00
0FFE00
ENDCHAR
STARTCHAR Sacute
ENCODING 346
SWIDTH 578 0
DWIDTH 19 0
BBX 19 31 0 0
BITMAP
003800
00FE00
00FF00
01E700
01CF00
01CF00
03DE00
03DC00
03FC00
01F800
1FFE00
3C0380
7C03C0
F9FFC0
F9FFC0
F9FFE0
FCFFE0
FC03E0
FFFBE0
FFF9E0
FFF9E0
FFF9E0
FC03E0
FC03E0
FFFFE0
FFFFE0
FFFFC0
FFFFC0
7FFF80
3FFF00
0FFE00
ENDCHAR
STARTCHAR sacute
ENCODING 347
SWIDTH 578 0
DWIDTH 19 0
BBX 19 31 0 0
BITMAP
003800
00FE00
00FF00
01E700
01CF00
01CF00
03DE00
03DC00
03FC00
01F800
1FFE00
3C0380
7C03C0
F9FFC0
F9FFC0
F9FFE0
FCFFE0
FC03E0
FFFBE0
FFF9E0
FFF9E0
FFF9E0
FC03E0
FC03E0
FFFFE0
FFFFE0
FFFFC0
FFFFC0
7FFF80
3FFF00
0FFE00
ENDCHAR
STARTCHAR Scircumflex
ENCODING 348
SWIDTH 578 0
DWIDTH 19 0
BBX 19 31 0 0
BITMAP
01F800
01FC00
03FC00
03BC00
07AE00
076E00
076F00
0F6700
0FFF00
07FF00
1FFE00
3C0380
7C03C0
F9FFC0
F9FFC0
F9FFE0
FCFFE0
FC03E0
FFFBE0
FFF9E0
FFF9E0
FFF9E0
FC03E0
FC03E0
FFFFE0
FFFFE0
FFFFC0
FFFFC0
7FFF80
3FFF00
0FFE00
ENDCHAR
STARTCHAR scircumflex
ENCODING 349
SWIDTH 578 0
DWIDTH 19 0
BBX 19 31 0 0
BITMAP
01F800
01FC00
03FC00
03BC00
07AE00
076E00
076F00
0F6700
0FFF00
07FF00
1FFE00
3C0380
7C03C0
F9FFC0
F9FFC0
F9FFE0
FCFFE0
FC03E0
FFFBE0
FFF9E0
FFF9E0
FFF9E0
FC03E0
FC03E0
FFFFE0
FFFFE0
FFFFC0
FFFFC0
7FFF80
3FFF00
0FFE00
ENDCHAR
STARTCHAR Scedilla
ENCODING 350
SWIDTH 578 0
DWIDTH 19 0
BBX 19 21 0 0
BITMAP
1FFE00
3C0380
7C03C0
F9FFC0
F9FFC0
F9FFE0
FCFFE0
FC03E0
FFFBE0
FFF9E0
FFF9E0
FFF9E0
FC03E0
FC03E0
FFDFE0
FF1FE0
FF7FC0
FF3FC0
7F1F80
3FFF00
0FFE00
ENDCHAR
STARTCHAR scedilla
ENCODING 351
SWIDTH 578 0
DWIDTH 19 0
BBX 19 21 0 0
BITMAP
1FFE00
3C0380
7C03C0
F9FFC0
F9FFC0
F9FFE0
FCFFE0
FC03E0
FFFBE0
FFF9E0
FFF9E0
FFF9E0
FC03E0
FC03E0
FFDFE0
FF1FE0
FF7FC0
FF3FC0
7F1F80
3FFF00
0FFE00
ENDCHAR
STARTCHAR Scaron
ENCODING 352
SWIDTH 578 0
DWIDTH 19 0
BBX 19 31 0 0
BITMAP
000800
07FE00
07FF00
077700
076700
072F00
07AF00
07BE00
03DE00
03FE00
1FFE00
3C0380
7C03C0
F9FFC0
F9FFC0
F9FFE0
FCFFE0
FC03E0
FFFBE0
FFF9E0
FFF9E0
FFF9E0
FC03E0
FC03E0
FFFFE0
FFFFE0
FFFFC0
FFFFC0
7FFF80
3FFF00
0FFE00
ENDCHAR
STARTCHAR scaron
ENCODING 353
SWIDTH 578 0
DWIDTH 19 0
BBX 19 31 0 0
BITMAP
000800
07FE00
07FF00
077700
076700
072F00
07AF00
07BE00
03DE00
03FE00
1FFE00
3C0380
7C03C0
F9FFC0
F9FFC0
F9FFE0
FCFFE0
FC03E0
FFFBE0
FFF9E0
FFF9E0
FFF9E0
FC03E0
FC03E0
FFFFE0
FFFFE0
FFFFC0
FFFFC0
7FFF80
3FFF00
0FFE00
ENDCHAR
STARTCHAR Tcommaaccent
ENCODING 354
SWIDTH 578 0
DWIDTH 19 0
BBX 19 21 0 0
BITMAP
1FFE00
3C0180
7C01C0
FF9FC0
FF9FC0
FF9FE0
FF9FE0
FF9FE0
FF9FE0
FF9FE0
FF9FE0
FF9FE0
FF9FE0
FF9FE0
FFFFE0
FF9FE0
FF9FC0
FFDFC0
7FDF80
3FFF00
0FFE00
ENDCHAR
STARTCHAR tcommaaccent
ENCODING 355
SWIDTH 578 0
DWIDTH 19 0
BBX 19 21 0 0
BITMAP
1FFE00
3C0180
7C01C0
FF9FC0
FF9FC0
FF9FE0
FF9FE0
FF9FE0
FF9FE0
FF9FE0
FF9FE0
FF9FE0
FF9FE0
FF9FE0
FFFFE0
FF9FE0
FF9FC0
FFDFC0
7FDF80
3FFF00
0FFE00
ENDCHAR
STARTCHAR Tcaron
ENCODING 356
SWIDTH 578 0
DWIDTH 19 0
BBX 19 31 0 0
BITMAP
000800
07FE00
0FFE00
0EE700
0F6F00
0F6E00
075E00
07DE00
079C00
03FC00
1FFE00
3C0180
7C01C0
FF9FC0
FF9FC0
FF9FE0
FF9FE0
FF9FE0
FF9FE0
FF9FE0
FF9FE0
FF9FE0
FF9FE0
FF9FE0
FFFFE0
FFFFE0
FFFFC0
FFFFC0
7FFF80
3FFF00
0FFE00
ENDCHAR
STARTCHAR tcaron
ENCODING 357
SWIDTH 578 0
DWIDTH 19 0
BBX 19 21 0 0
BITMAP
1FFE00
3C0180
7C01C0
FF9FC0
FF91C0
FF91E0
FF9BE0
FF9BE0
FF9FE0
FF9FE0
FF9FE0
FF9FE0
FF9FE0
FF9FE0
FFFFE0
FFFFE0
FFFFC0
FFFFC0
7FFF80
3FFF00
0FFE00
ENDCHAR
STARTCHAR Tbar
ENCODING 358
SWIDTH 578 0
DWIDTH 19 0
BBX 19 21 0 0
BITMAP
1FFE00
3C0180
7C01C0
FF9FC0
FF9FC0
FF9FE0
FF9FE0
FE07E0
FF9FE0
FF9FE0
FF9FE0
FF9FE0
FF9FE0
FF9FE0
FFFFE0
FFFFE0
FFFFC0
FFFFC0
7FFF80
3FFF00
0FFE00
ENDCHAR
STARTCHAR tbar
ENCODING 359
SWIDTH 578 0
DWIDTH 19 0
BBX 19 21 0 0
BITMAP
1FFE00
3C0180
7C01C0
FF9FC0
FF9FC0
FF9FE0
FF9FE0
FE07E0
FF9FE0
FF9FE0
FF9FE0
FF9FE0
FF9FE0
FF9FE0
FFFFE0
FFFFE0
FFFFC0
FFFFC0
7FFF80
3FFF00
0FFE00
ENDCHAR
STARTCHAR Utilde
ENCODING 360
SWIDTH 578 0
DWIDTH 19 0
BBX 19 30 0 0
BITMAP
03FC00
07FE00
0FFF00
0FFF80
1FFF80
1FFF80
1E3780
1CC780
0FFF00
1FFE00
39F980
79F9C0
F9F9C0
F9F9C0
F9F9E0
F9F9E0
F9F9E0
F9F9E0
F9F9E0
F9F9E0
F9F9E0
F801E0
FC03E0
FFFFE0
FFFFE0
FFFFC0
FFFFC0
7FFF80
3FFF00
0FFE00
ENDCHAR
STARTCHAR utilde
ENCODING 361
SWIDTH 578 0
DWIDTH 19 0
BBX 19 30 0 0
BITMAP
03FC00
07FE00
0FFF00
0FFF80
1FFF80
1FFF80
1E3780
1CC780
0FFF00
1FFE00
39F980
79F9C0
F9F9C0
F9F9C0
F9F9E0
F9F9E0
F9F9E0
F9F9E0
F9F9E0
F9F9E0
F9F9E0
F801E0
FC03E0
FFFFE0
FFFFE0
FFFFC0
FFFFC0
7FFF80
3FFF00
0FFE00
ENDCHAR
STARTCHAR Umacron
ENCODING 362
SWIDTH 578 0
DWIDTH 19 0
BBX 19 29 0 0
BITMAP
03FC00
07FF00
0FFF00
1FFF80
1E0780
1E0780
1FFF80
0FFF00
1FFE00
39F980
79F9C0
F9F9C0
F9F9C0
F9F9E0
F9F9E0
F9F9E0
F9F9E0
F9F9E0
F9F9E0
F9F9E0
F801E0
FC03E0
FFFFE0
FFFFE0
FFFFC0
FFFFC0
7FFF80
3FFF00
0FFE00
ENDCHAR
STARTCHAR umacron
ENCODING 363
SWIDTH 578 0
DWIDTH 19 0
BBX 19 29 0 0
BITMAP
03FC00
07FF00
0FFF00
1FFF80
1E0780
1E0780
1FFF80
0FFF00
1FFE00
39F980
79F9C0
F9F9C0
F9F9C0
F9F9E0
F9F9E0
F9F9E0
F9F9E0
F9F9E0
F9F9E0
F9F9E0
F801E0
FC03E0
FFFFE0
FFFFE0
FFFFC0
FFFFC0
7FFF80
3FFF00
0FFE00
ENDCHAR
STARTCHAR Ubreve
ENCODING 364
SWIDTH 578 0
DWIDTH 19 0
BBX 19 29 0 0
BITMAP
03FC00
07FF00
0FFF00
1FFF80
1E7780
1E6780
1F0F80
0FFF00
1FFE00
39F980
79F9C0
F9F9C0
F9F9C0
F9F9E0
F9F9E0
F9F9E0
F9F9E0
F9F9E0
F9F9E0
F9F9E0
F801E0
FC03E0
FFFFE0
FFFFE0
FFFFC0
FFFFC0
7FFF80
3FFF00
0FFE00
ENDCHAR
STARTCHAR ubreve
ENCODING 365
SWIDTH 578 0
DWIDTH 19 0
BBX 19 29 0 0
BITMAP
03FC00
07FF00
0FFF00
1FFF80
1E7780
1E6780
0F0F80
0FFF00
1FFE00
39F980
79F9C0
F9F9C0
F9F9C0
F9F9E0
F9F9E0
F9F9E0
F9F9E0
F9F9E0
F9F9E0
F9F9E0
F801E0
FC03E0
FFFFE0
FFFFE0
FFFFC0
FFFFC0
7FFF80
3FFF00
0FFE00
ENDCHAR
STARTCHAR Uring
ENCODING 366
SWIDTH 578 0
DWIDTH 19 0
BBX 19 30 0 0
BITMAP
01F000
03FC00
07FE00
0F0E00
0E6F00
0EE700
0E6F00
0F0F00
0FFE00
1FFE00
39F980
79F9C0
F9F9C0
F9F9C0
F9F9E0
F9F9E0
F9F9E0
F9F9E0
F9F9E0
F9F9E0
F9F9E0
F801E0
FC03E0
FFFFE0
FFFFE0
FFFFC0
FFFFC0
7FFF80
3FFF00
0FFE00
ENDCHAR
STARTCHAR uring
ENCODING 367
SWIDTH 578 0
DWIDTH 19 0
BBX 19 30 0 0
BITMAP
01F000
03FC00
07FE00
0F0E00
0E6F00
0EE700
0E6F00
0F0F00
0FFE00
1FFE00
39F980
79F9C0
F9F9C0
F9F9C0
F9F9E0
F9F9E0
F9F9E0
F9F9E0
F9F9E0
F9F9E0
F9F9E0
F801E0
FC03E0
FFFFE0
FFFFE0
FFFFC0
FFFFC0
7FFF80
3FFF00
0FFE00
ENDCHAR
STARTCHAR Uhungarumlaut
ENCODING 368
SWIDTH 581 0
DWIDTH 19 0
BBX 19 31 0 0
BITMAP
007F80
00FF80
00FFC0
01ECC0
01DDE0
03DBC0
03BB80
07F780
07FF00
07FE00
1FFE00
39F980
79F9C0
F9F9C0
F9F9C0
F9F9E0
F9F9E0
F9F9E0
F9F9E0
F9F9E0
F9F9E0
F9F9E0
F801E0
FC03E0
FFFFE0
FFFFE0
FFFFC0
FFFFC0
7FFF80
3FFF00
0FFE00
ENDCHAR
STARTCHAR uhungarumlaut
ENCODING 369
SWIDTH 582 0
DWIDTH 19 0
BBX 19 31 0 0
BITMAP
007F80
00FF80
00FFC0
01ECC0
01DDE0
03DBC0
03BB80
07F780
07FF00
07FE00
1FFE00
39F980
79F9C0
F9F9C0
F9F9C0
F9F9E0
F9F9E0
F9F9E0
F9F9E0
F9F9E0
F9F9E0
F9F9E0
F801E0
FC03E0
FFFFE0
FFFFE0
FFFFC0
FFFFC0
7FFF80
3FFF00
0FFE00
ENDCHAR
STARTCHAR Uogonek
ENCODING 370
SWIDTH 578 0
DWIDTH 19 0
BBX 19 21 0 0
BITMAP
1FFE00
39F980
79F9C0
F9F9C0
F9F9C0
F9F9E0
F9F9E0
F9F9E0
F9F9E0
F9F9E0
F9F9E0
F9F9E0
F801E0
FC23E0
FFDFE0
FFBFE0
FFBFC0
FF9FC0
7F8F80
3FFF00
0FFE00
ENDCHAR
STARTCHAR uogonek
ENCODING 371
SWIDTH 578 0
DWIDTH 19 0
BBX 19 21 0 0
BITMAP
1FFE00
39F980
79F9C0
F9F9C0
F9F9C0
F9F9E0
F9F9E0
F9F9E0
F9F9E0
F9F9E0
F9F9E0
F9F9E0
F801E0
FC23E0
FFDFE0
FFBFE0
FFBFC0
FF9FC0
7F8F80
3FFF00
0FFE00
ENDCHAR
STARTCHAR Wcircumflex
ENCODING 372
SWIDTH 578 0
DWIDTH 19 0
BBX 19 31 0 0
BITMAP
01F000
03F800
03F800
07DC00
075C00
0F5E00
0E6E00
0EEE00
0FFE00
0FFE00
1FFF00
27FC80
779CC0
F79CC0
F31CC0
F31DE0
F35DE0
F35DE0
F349E0
F349E0
F249E0
FA69E0
F861E0
F8E3E0
FFFFE0
FFFFE0
FFFFC0
FFFFC0
7FFF80
3FFF00
0FFE00
ENDCHAR
STARTCHAR wcircumflex
ENCODING 373
SWIDTH 578 0
DWIDTH 19 0
BBX 19 31 0 0
BITMAP
01F000
03F800
03F800
07DC00
075C00
0F5E00
0E6E00
0EEE00
0FFE00
0FFE00
1FFF00
27FC80
779CC0
F79CC0
F31CC0
F31DE0
F35DE0
F35DE0
F349E0
F349E0
F249E0
FA69E0
F861E0
F8E3E0
FFFFE0
FFFFE0
FFFFC0
FFFFC0
7FFF80
3FFF00
0FFE00
ENDCHAR
STARTCHAR Ycircumflex
ENCODING 374
SWIDTH 578 0
DWIDTH 19 0
BBX 19 31 0 0
BITMAP
01F800
03F800
03FC00
03DC00
07DE00
076E00
0F6E00
0E6700
0FFF00
0FFE00
1FFE00
39F980
7CF3C0
FCF3C0
FE67C0
FE67E0
FF6FE0
FF4FE0
FF0FE0
FF9FE0
FF9FE0
FF9FE0
FF9FE0
FF9FE0
FFFFE0
FFFFE0
FFFFC0
FFFFC0
7FFF80
3FFF00
0FFE00
ENDCHAR
STARTCHAR ycircumflex
ENCODING 375
SWIDTH 578 0
DWIDTH 19 0
BBX 19 31 0 0
BITMAP
01F800
03F800
03FC00
03DC00
07DE00
076E00
0F6E00
0E6700
0FFF00
0FFE00
1FFE00
39F980
7CF3C0
FCF3C0
FE67C0
FE67E0
FF6FE0
FF4FE0
FF0FE0
FF9FE0
FF9FE0
FF9FE0
FF9FE0
FF9FE0
FFFFE0
FFFFE0
FFFFC0
FFFFC0
7FFF80
3FFF00
0FFE00
ENDCHAR
STARTCHAR Ydieresis
ENCODING 376
SWIDTH 578 0
DWIDTH 19 0
BBX 19 29 0 0
BITMAP
01F800
07FE00
0FFF00
0FFF00
0E6700
0E6700
0FFF00
07FE00
1FFE00
39F980
7CF3C0
FCF3C0
FE67C0
FE67E0
FF6FE0
FF4FE0
FF0FE0
FF9FE0
FF9FE0
FF9FE0
FF9FE0
FF9FE0
FFFFE0
FFFFE0
FFFFC0
FFFFC0
7FFF80
3FFF00
0FFE00
ENDCHAR
STARTCHAR Zacute
ENCODING 377
SWIDTH 578 0
DWIDTH 19 0
BBX 19 31 0 0
BITMAP
00F000
01FC00
03FE00
039E00
039E00
07BC00
07BC00
077800
07F000
07F000
1FFE00
3C0780
7C07C0
FFE7C0
FFCFC0
FFCFE0
FF9FE0
FF9FE0
FF3FE0
FF7FE0
FE7FE0
FEFFE0
FC03E0
FC03E0
FFFFE0
FFFFE0
FFFFC0
FFFFC0
7FFF80
3FFF00
0FFE00
ENDCHAR
STARTCHAR zacute
ENCODING 378
SWIDTH 578 0
DWIDTH 19 0
BBX 19 31 0 0
BITMAP
00F000
01FC00
03FE00
039E00
039E00
07BC00
07BC00
077800
07F000
07F000
1FFE00
3C0780
7C07C0
FFE7C0
FFCFC0
FFCFE0
FF9FE0
FF9FE0
FF3FE0
FF7FE0
FE7FE0
FEFFE0
FC03E0
FC03E0
FFFFE0
FFFFE0
FFFFC0
FFFFC0
7FFF80
3FFF00
0FFE00
ENDCHAR
STARTCHAR Zdotaccent
ENCODING 379
SWIDTH 578 0
DWIDTH 19 0
BBX 19 29 0 0
BITMAP
07F800
0FFE00
1FFF00
3FFF00
3F3F00
3F3F00
1FFF00
1FFF00
1FFE00
3C0780
7C07C0
FFE7C0
FFCFC0
FFCFE0
FF9FE0
FF9FE0
FF3FE0
FF7FE0
FE7FE0
FEFFE0
FC03E0
FC03E0
FFFFE0
FFFFE0
FFFFC0
FFFFC0
7FFF80
3FFF00
0FFE00
ENDCHAR
STARTCHAR zdotaccent
ENCODING 380
SWIDTH 578 0
DWIDTH 19 0
BBX 19 29 0 0
BITMAP
07F800
0FFE00
1FFF00
3FFF00
3F3F00
3F3F00
1FFF00
1FFF00
1FFE00
3C0780
7C07C0
FFE7C0
FFCFC0
FFCFE0
FF9FE0
FF9FE0
FF3FE0
FF7FE0
FE7FE0
FEFFE0
FC03E0
FC03E0
FFFFE0
FFFFE0
FFFFC0
FFFFC0
7FFF80
3FFF00
0FFE00
ENDCHAR
STARTCHAR Zcaron
ENCODING 381
SWIDTH 578 0
DWIDTH 19 0
BBX 19 31 0 0
BITMAP
000800
0FFE00
0FFE00
0EEE00
0EEE00
0F5E00
0F5E00
075C00
07BC00
07FC00
1FFE00
3C0780
7C07C0
FFE7C0
FFCFC0
FFCFE0
FF9FE0
FF9FE0
FF3FE0
FF7FE0
FE7FE0
FEFFE0
FC03E0
FC03E0
FFFFE0
FFFFE0
FFFFC0
FFFFC0
7FFF80
3FFF00
0FFE00
ENDCHAR
STARTCHAR zcaron
ENCODING 382
SWIDTH 578 0
DWIDTH 19 0
BBX 19 31 0 0
BITMAP
000800
0FFE00
0FFE00
0EEE00
0EEE00
0F5E00
0F5E00
075C00
07BC00
07FC00
1FFE00
3C0780
7C07C0
FFE7C0
FFCFC0
FFCFE0
FF9FE0
FF9FE0
FF3FE0
FF7FE0
FE7FE0
FEFFE0
FC03E0
FC03E0
FFFFE0
FFFFE0
FFFFC0
FFFFC0
7FFF80
3FFF00
0FFE00
ENDCHAR
STARTCHAR longs
ENCODING 383
SWIDTH 578 0
DWIDTH 19 0
BBX 19 21 0 0
BITMAP
1FFE00
3FFF80
7E0FC0
FCF7C0
F9FBC0
FBFBE0
FBFDE0
FBB9E0
FBBBE0
FDB3E0
FCA7E0
FFBFE0
FFBFE0
FFFFE0
FFFFE0
FFFFE0
FFFFC0
FFFFC0
7FFF80
3FFF00
0FFE00
ENDCHAR
STARTCHAR florin
ENCODING 402
SWIDTH 578 0
DWIDTH 19 0
BBX 19 21 0 0
BITMAP
1FFE00
3F8F80
7F0FC0
FF7FC0
FF7FC0
FF7FE0
FF7FE0
FC0FE0
FF7FE0
FF7FE0
FF7FE0
FF7FE0
FF7FE0
FF7FE0
FF7FE0
FF7FE0
FCFFC0
FFFFC0
7FFF80
3FFF00
0FFE00
ENDCHAR
STARTCHAR uni01CD
ENCODING 461
SWIDTH 578 0
DWIDTH 19 0
BBX 19 31 0 0
BITMAP
000800
07FE00
0FFE00
0EEF00
0F6E00
0F6E00
075E00
07DE00
079C00
03FC00
1FFE00
3E0780
7C03C0
FDF3C0
FDF3C0
FDF3E0
F9F3E0
F9FBE0
F803E0
F9FBE0
F9F9E0
F9F9E0
F9F9E0
FBF9E0
FFFFE0
FFFFE0
FFFFC0
FFFFC0
7FFF80
3FFF00
0FFE00
ENDCHAR
STARTCHAR uni01CE
ENCODING 462
SWIDTH 578 0
DWIDTH 19 0
BBX 19 31 0 0
BITMAP
000800
07FE00
0FFF00
0E7700
0F6F00
076F00
07AE00
07BE00
039E00
03FC00
1FFE00
3C0780
7C03C0
FFF3C0
FFF3C0
FFF3E0
FFF3E0
FC03E0
F803E0
FBF3E0
FBF3E0
FBF3E0
F803E0
FC03E0
FFFFE0
FFFFE0
FFFFC0
FFFFC0
7FFF80
3FFF00
0FFE00
ENDCHAR
STARTCHAR uni01CF
ENCODING 463
SWIDTH 578 0
DWIDTH 19 0
BBX 19 31 0 0
BITMAP
000800
07FE00
07FF00
0F7700
076700
076F00
07AE00
07BE00
03DE00
03FE00
1FFE00
3C0180
7C01C0
FF9FC0
FF9FC0
FF9FE0
FF9FE0
FF9FE0
FF9FE0
FF9FE0
FF9FE0
FF9FE0
FC01E0
FC01E0
FFFFE0
FFFFE0
FFFFC0
FFFFC0
7FFF80
3FFF00
0FFE00
ENDCHAR
STARTCHAR uni01D0
ENCODING 464
SWIDTH 578 0
DWIDTH 19 0
BBX 19 31 0 0
BITMAP
000800
07FE00
07FF00
0E7700
0F6F00
076F00
07AE00
07BE00
039E00
03FC00
1FFE00
3C0180
7C01C0
FF9FC0
FF9FC0
FF9FE0
FF9FE0
FF9FE0
FF9FE0
FF9FE0
FF9FE0
FF9FE0
FC01E0
FC01E0
FFFFE0
FFFFE0
FFFFC0
FFFFC0
7FFF80
3FFF00
0FFE00
ENDCHAR
STARTCHAR uni01D1
ENCODING 465
SWIDTH 578 0
DWIDTH 19 0
BBX 19 31 0 0
BITMAP
000800
07FE00
0FFF00
0E6700
0F6F00
076E00
07AE00
07BE00
079E00
03FC00
1FFE00
3C0380
7801C0
F9F9C0
F9F9C0
F9F9E0
F9F9E0
F9F9E0
F9F9E0
F9F9E0
F9F9E0
F9F9E0
F801E0
FC03E0
FFFFE0
FFFFE0
FFFFC0
FFFFC0
7FFF80
3FFF00
0FFE00
ENDCHAR
STARTCHAR uni01D3
ENCODING 467
SWIDTH 578 0
DWIDTH 19 0
BBX 19 31 0 0
BITMAP
000800
07FE00
0FFF00
0E7700
0F6F00
076F00
07AE00
07BE00
039E00
03FC00
1FFE00
39F980
79F9C0
F9F9C0
F9F9C0
F9F9E0
F9F9E0
F9F9E0
F9F9E0
F9F9E0
F9F9E0
F9F9E0
F801E0
FC03E0
FFFFE0
FFFFE0
FFFFC0
FFFFC0
7FFF80
3FFF00
0FFE00
ENDCHAR
STARTCHAR uni01D4
ENCODING 468
SWIDTH 578 0
DWIDTH 19 0
BBX 19 31 0 0
BITMAP
000800
07FE00
07FF00
0E7700
0F6F00
076F00
07AE00
07BE00
039E00
03FC00
1FFE00
39F980
79F9C0
F9F9C0
F9F9C0
F9F9E0
F9F9E0
F9F9E0
F9F9E0
F9F9E0
F9F9E0
F9F9E0
F801E0
FC03E0
FFFFE0
FFFFE0
FFFFC0
FFFFC0
7FFF80
3FFF00
0FFE00
ENDCHAR
STARTCHAR uni0200
ENCODING 512
SWIDTH 578 0
DWIDTH 19 0
BBX 19 31 0 0
BITMAP
1FE000
1FF000
3FF000
337800
7BB800
3DBC00
1DDC00
1EFE00
0FFE00
07FE00
1FFE00
3E0780
7C03C0
FDF3C0
FDF3C0
FDF3E0
F9F3E0
F9FBE0
F803E0
F9FBE0
F9F9E0
F9F9E0
F9F9E0
FBF9E0
FFFFE0
FFFFE0
FFFFC0
FFFFC0
7FFF80
3FFF00
0FFE00
ENDCHAR
STARTCHAR uni0201
ENCODING 513
SWIDTH 578 0
DWIDTH 19 0
BBX 19 31 0 0
BITMAP
1FE000
1FF000
3FF000
337800
7BB800
3DBC00
1DDC00
1EFE00
0FFE00
07FE00
1FFE00
3C0780
7C03C0
FFF3C0
FFF3C0
FFF3E0
FFF3E0
FC03E0
F803E0
FBF3E0
FBF3E0
FBF3E0
F803E0
FC03E0
FFFFE0
FFFFE0
FFFFC0
FFFFC0
7FFF80
3FFF00
0FFE00
ENDCHAR
STARTCHAR uni0202
ENCODING 514
SWIDTH 578 0
DWIDTH 19 0
BBX 19 30 0 0
BITMAP
006000
07FC00
0FFF00
1FFF00
1FFF80
1E0F80
1EE780
1FFF00
0FFE00
1FFE00
3E0780
7C03C0
FDF3C0
FDF3C0
FDF3E0
F9F3E0
F9FBE0
F803E0
F9FBE0
F9F9E0
F9F9E0
F9F9E0
FBF9E0
FFFFE0
FFFFE0
FFFFC0
FFFFC0
7FFF80
3FFF00
0FFE00
ENDCHAR
STARTCHAR uni0203
ENCODING 515
SWIDTH 578 0
DWIDTH 19 0
BBX 19 30 0 0
BITMAP
006000
07FC00
0FFF00
1FFF00
1FFF80
1E0F80
1EE780
1FFF00
0FFE00
1FFE00
3C0780
7C03C0
FFF3C0
FFF3C0
FFF3E0
FFF3E0
FC03E0
F803E0
FBF3E0
FBF3E0
FBF3E0
F803E0
FC03E0
FFFFE0
FFFFE0
FFFFC0
FFFFC0
7FFF80
3FFF00
0FFE00
ENDCHAR
STARTCHAR uni0204
ENCODING 516
SWIDTH 578 0
DWIDTH 19 0
BBX 19 31 0 0
BITMAP
1FE000
1FF000
3FF000
337800
7BB800
3DBC00
1DDC00
1EFE00
0FFE00
07FE00
1FFE00
3C0380
7C03C0
FCFFC0
FCFFC0
FCFFE0
FCFFE0
FC07E0
FCFFE0
FCFFE0
FCFFE0
FCFFE0
FC03E0
FC03E0
FFFFE0
FFFFE0
FFFFC0
FFFFC0
7FFF80
3FFF00
0FFE00
ENDCHAR
STARTCHAR uni0205
ENCODING 517
SWIDTH 578 0
DWIDTH 19 0
BBX 19 31 0 0
BITMAP
1FE000
1FF000
3FF000
337800
7BB800
3DBC00
1DDC00
1EFE00
0FFE00
07FE00
1FFE00
3C0780
7803C0
FBF3C0
FBF3C0
FBF3E0
F803E0
FBFFE0
FBFFE0
FBFFE0
FBFFE0
F9FFE0
F807E0
FFFFE0
FFFFE0
FFFFE0
FFFFC0
FFFFC0
7FFF80
3FFF00
0FFE00
ENDCHAR
STARTCHAR uni0206
ENCODING 518
SWIDTH 578 0
DWIDTH 19 0
BBX 19 30 0 0
BITMAP
006000
07FC00
0FFF00
1FFF00
1FFF80
1E0F80
1EE780
1FFF00
0FFE00
1FFE00
3C0380
7C03C0
FCFFC0
FCFFC0
FCFFE0
FCFFE0
FC07E0
FCFFE0
FCFFE0
FCFFE0
FCFFE0
FC03E0
FC03E0
FFFFE0
FFFFE0
FFFFC0
FFFFC0
7FFF80
3FFF00
0FFE00
ENDCHAR
STARTCHAR uni0207
ENCODING 519
SWIDTH 578 0
DWIDTH 19 0
BBX 19 30 0 0
BITMAP
006000
07FC00
0FFF00
1FFF00
1FFF80
1E0F80
1EE780
1FFF00
0FFE00
1FFE00
3C0780
7803C0
FBF3C0
FBF3C0
FBF3E0
F803E0
FBFFE0
FBFFE0
FBFFE0
FBFFE0
F9FFE0
F807E0
FFFFE0
FFFFE0
FFFFE0
FFFFC0
FFFFC0
7FFF80
3FFF00
0FFE00
ENDCHAR
STARTCHAR uni0208
ENCODING 520
SWIDTH 578 0
DWIDTH 19 0
BBX 19 31 0 0
BITMAP
1FE000
1FF000
3FF000
337800
7BB800
3DBC00
1DDC00
1EFE00
0FFE00
07FE00
1FFE00
3C0180
7C01C0
FF9FC0
FF9FC0
FF9FE0
FF9FE0
FF9FE0
FF9FE0
FF9FE0
FF9FE0
FF9FE0
FC01E0
FC01E0
FFFFE0
FFFFE0
FFFFC0
FFFFC0
7FFF80
3FFF00
0FFE00
ENDCHAR
STARTCHAR uni0209
ENCODING 521
SWIDTH 578 0
DWIDTH 19 0
BBX 19 31 0 0
BITMAP
1FE000
1FF000
3FF000
337800
7BB800
3DBC00
1DDC00
1EFE00
0FFE00
07FE00
1FFE00
3C0180
7C01C0
FF9FC0
FF9FC0
FF9FE0
FF9FE0
FF9FE0
FF9FE0
FF9FE0
FF9FE0
FF9FE0
FC01E0
FC01E0
FFFFE0
FFFFE0
FFFFC0
FFFFC0
7FFF80
3FFF00
0FFE00
ENDCHAR
STARTCHAR uni020A
ENCODING 522
SWIDTH 578 0
DWIDTH 19 0
BBX 19 30 0 0
BITMAP
006000
07FC00
0FFF00
1FFF00
1FFF80
1E0F80
1EE780
1FFF00
0FFE00
1FFE00
3C0180
7C01C0
FF9FC0
FF9FC0
FF9FE0
FF9FE0
FF9FE0
FF9FE0
FF9FE0
FF9FE0
FF9FE0
FC01E0
FC01E0
FFFFE0
FFFFE0
FFFFC0
FFFFC0
7FFF80
3FFF00
0FFE00
ENDCHAR
STARTCHAR uni020B
ENCODING 523
SWIDTH 578 0
DWIDTH 19 0
BBX 19 30 0 0
BITMAP
006000
07FC00
0FFF00
1FFF00
1FFF80
1E0F80
1EE780
1FFF00
0FFE00
1FFE00
3C0180
7C01C0
FF9FC0
FF9FC0
FF9FE0
FF9FE0
FF9FE0
FF9FE0
FF9FE0
FF9FE0
FF9FE0
FC01E0
FC01E0
FFFFE0
FFFFE0
FFFFC0
FFFFC0
7FFF80
3FFF00
0FFE00
ENDCHAR
STARTCHAR uni020C
ENCODING 524
SWIDTH 578 0
DWIDTH 19 0
BBX 19 31 0 0
BITMAP
1FE000
1FF000
3FF000
337800
7BB800
3DBC00
1DDC00
1EFE00
0FFE00
07FE00
1FFE00
3C0380
7801C0
F9F9C0
F9F9C0
F9F9E0
F9F9E0
F9F9E0
F9F9E0
F9F9E0
F9F9E0
F9F9E0
F801E0
FC03E0
FFFFE0
FFFFE0
FFFFC0
FFFFC0
7FFF80
3FFF00
0FFE00
ENDCHAR
STARTCHAR uni020D
ENCODING 525
SWIDTH 578 0
DWIDTH 19 0
BBX 19 31 0 0
BITMAP
1FE000
1FF000
3FF000
337800
7BB800
3DBC00
1DDC00
1EFE00
0FFE00
07FE00
1FFE00
3C0380
7801C0
F9F9C0
F9F9C0
F9F9E0
F9F9E0
F9F9E0
F9F9E0
F9F9E0
F9F9E0
F9F9E0
F801E0
FC03E0
FFFFE0
FFFFE0
FFFFC0
FFFFC0
7FFF80
3FFF00
0FFE00
ENDCHAR
STARTCHAR uni020E
ENCODING 526
SWIDTH 578 0
DWIDTH 19 0
BBX 19 30 0 0
BITMAP
006000
07FC00
0FFF00
1FFF00
1FFF80
1E0F80
1EE780
1FFF00
0FFE00
1FFE00
3C0380
7801C0
F9F9C0
F9F9C0
F9F9E0
F9F9E0
F9F9E0
F9F9E0
F9F9E0
F9F9E0
F9F9E0
F801E0
FC03E0
FFFFE0
FFFFE0
FFFFC0
FFFFC0
7FFF80
3FFF00
0FFE00
ENDCHAR
STARTCHAR uni020F
ENCODING 527
SWIDTH 578 0
DWIDTH 19 0
BBX 19 30 0 0
BITMAP
006000
07FC00
0FFF00
1FFF00
1FFF80
1E0F80
1EE780
1FFF00
0FFE00
1FFE00
3C0380
7801C0
F9F9C0
F9F9C0
F9F9E0
F9F9E0
F9F9E0
F9F9E0
F9F9E0
F9F9E0
F9F9E0
F801E0
FC03E0
FFFFE0
FFFFE0
FFFFC0
FFFFC0
7FFF80
3FFF00
0FFE00
ENDCHAR
STARTCHAR uni0210
ENCODING 528
SWIDTH 578 0
DWIDTH 19 0
BBX 19 31 0 0
BITMAP
1FE000
1FF000
3FF000
337800
7BB800
3DBC00
1DDC00
1EFE00
0FFE00
07FE00
1FFE00
380780
7803C0
F9F3C0
F9F3C0
F9F3E0
F9F3E0
F80FE0
F803E0
F9F3E0
F9F3E0
F9F3E0
F9F3E0
F9F3E0
FFFFE0
FFFFE0
FFFFC0
FFFFC0
7FFF80
3FFF00
0FFE00
ENDCHAR
STARTCHAR uni0211
ENCODING 529
SWIDTH 578 0
DWIDTH 19 0
BBX 19 31 0 0
BITMAP
1FE000
1FF000
3FF000
337800
7BB800
3DBC00
1DDC00
1EFE00
0FFE00
07FE00
1FFE00
380780
7803C0
F9F3C0
F9F3C0
F9F3E0
F9F3E0
F80FE0
F803E0
F9F3E0
F9F3E0
F9F3E0
F9F3E0
F9F3E0
FFFFE0
FFFFE0
FFFFC0
FFFFC0
7FFF80
3FFF00
0FFE00
ENDCHAR
STARTCHAR uni0212
ENCODING 530
SWIDTH 578 0
DWIDTH 19 0
BBX 19 30 0 0
BITMAP
006000
07FC00
0FFF00
1FFF00
1FFF80
1E0F80
1EE780
1FFF00
0FFE00
1FFE00
380780
7803C0
F9F3C0
F9F3C0
F9F3E0
F9F3E0
F80FE0
F803E0
F9F3E0
F9F3E0
F9F3E0
F9F3E0
F9F3E0
FFFFE0
FFFFE0
FFFFC0
FFFFC0
7FFF80
3FFF00
0FFE00
ENDCHAR
STARTCHAR uni0213
ENCODING 531
SWIDTH 578 0
DWIDTH 19 0
BBX 19 30 0 0
BITMAP
006000
07FC00
0FFF00
1FFF00
1FFF80
1E0F80
1EE780
1FFF00
0FFE00
1FFE00
380780
7803C0
F9F3C0
F9F3C0
F9F3E0
F9F3E0
F80FE0
F803E0
F9F3E0
F9F3E0
F9F3E0
F9F3E0
F9F3E0
FFFFE0
FFFFE0
FFFFC0
FFFFC0
7FFF80
3FFF00
0FFE00
ENDCHAR
STARTCHAR uni0214
ENCODING 532
SWIDTH 578 0
DWIDTH 19 0
BBX 19 31 0 0
BITMAP
1FE000
1FF000
3FF000
337800
7BB800
3DBC00
1DDC00
1EFE00
0FFE00
07FE00
1FFE00
39F980
79F9C0
F9F9C0
F9F9C0
F9F9E0
F9F9E0
F9F9E0
F9F9E0
F9F9E0
F9F9E0
F9F9E0
F801E0
FC03E0
FFFFE0
FFFFE0
FFFFC0
FFFFC0
7FFF80
3FFF00
0FFE00
ENDCHAR
STARTCHAR uni0215
ENCODING 533
SWIDTH 578 0
DWIDTH 19 0
BBX 19 31 0 0
BITMAP
1FE000
1FF000
3FF000
337800
7BB800
3DBC00
1DDC00
1EFE00
0FFE00
07FE00
1FFE00
39F980
79F9C0
F9F9C0
F9F9C0
F9F9E0
F9F9E0
F9F9E0
F9F9E0
F9F9E0
F9F9E0
F9F9E0
F801E0
FC03E0
FFFFE0
FFFFE0
FFFFC0
FFFFC0
7FFF80
3FFF00
0FFE00
ENDCHAR
STARTCHAR uni0216
ENCODING 534
SWIDTH 578 0
DWIDTH 19 0
BBX 19 30 0 0
BITMAP
006000
07FC00
0FFF00
1FFF00
1FFF80
1E0F80
1EE780
1FFF00
0FFE00
1FFE00
39F980
79F9C0
F9F9C0
F9F9C0
F9F9E0
F9F9E0
F9F9E0
F9F9E0
F9F9E0
F9F9E0
F9F9E0
F801E0
FC03E0
FFFFE0
FFFFE0
FFFFC0
FFFFC0
7FFF80
3FFF00
0FFE00
ENDCHAR
STARTCHAR uni0217
ENCODING 535
SWIDTH 578 0
DWIDTH 19 0
BBX 19 30 0 0
BITMAP
006000
07FC00
0FFF00
1FFF00
1FFF80
1E0F80
1EE780
1FFF00
0FFE00
1FFE00
39F980
79F9C0
F9F9C0
F9F9C0
F9F9E0
F9F9E0
F9F9E0
F9F9E0
F9F9E0
F9F9E0
F9F9E0
F801E0
FC03E0
FFFFE0
FFFFE0
FFFFC0
FFFFC0
7FFF80
3FFF00
0FFE00
ENDCHAR
STARTCHAR uni0218
ENCODING 536
SWIDTH 578 0
DWIDTH 19 0
BBX 19 21 0 0
BITMAP
1FFE00
3C0380
7C03C0
F9FFC0
F9FFC0
F9FFE0
FCFFE0
FC03E0
FFFBE0
FFF9E0
FFF9E0
FFF9E0
FC03E0
FC03E0
FFFFE0
FF9FE0
FF9FC0
FFDFC0
7FBF80
3FFF00
0FFE00
ENDCHAR
STARTCHAR uni0219
ENCODING 537
SWIDTH 578 0
DWIDTH 19 0
BBX 19 21 0 0
BITMAP
1FFE00
3C0380
7C03C0
F9FFC0
F9FFC0
F9FFE0
FCFFE0
FC03E0
FFFBE0
FFF9E0
FFF9E0
FFF9E0
FC03E0
FC03E0
FFFFE0
FF9FE0
FF9FC0
FFDFC0
7FBF80
3FFF00
0FFE00
ENDCHAR
STARTCHAR uni021A
ENCODING 538
SWIDTH 578 0
DWIDTH 19 0
BBX 19 21 0 0
BITMAP
1FFE00
3C0180
7C01C0
FF9FC0
FF9FC0
FF9FE0
FF9FE0
FF9FE0
FF9FE0
FF9FE0
FF9FE0
FF9FE0
FF9FE0
FF9FE0
FFFFE0
FF9FE0
FF9FC0
FFDFC0
7FDF80
3FFF00
0FFE00
ENDCHAR
STARTCHAR uni021B
ENCODING 539
SWIDTH 578 0
DWIDTH 19 0
BBX 19 21 0 0
BITMAP
1FFE00
3C0180
7C01C0
FF9FC0
FF9FC0
FF9FE0
FF9FE0
FF9FE0
FF9FE0
FF9FE0
FF9FE0
FF9FE0
FF9FE0
FF9FE0
FFFFE0
FF9FE0
FF9FC0
FFDFC0
7FDF80
3FFF00
0FFE00
ENDCHAR
STARTCHAR circumflex
ENCODING 710
SWIDTH 355 0
DWIDTH 11 0
BBX 11 10 0 1
BITMAP
1F00
3F80
3FC0
7DC0
75C0
74E0
F6E0
EEE0
FFE0
FFE0
ENDCHAR
STARTCHAR caron
ENCODING 711
SWIDTH 355 0
DWIDTH 11 0
BBX 11 10 0 1
BITMAP
0080
7FE0
FFE0
EEE0
E6E0
F4E0
75E0
7DE0
7BC0
7FC0
ENDCHAR
STARTCHAR breve
ENCODING 728
SWIDTH 428 0
DWIDTH 14 0
BBX 14 9 0 0
BITMAP
1FE0
7FF0
7FF8
FFFC
F73C
F33C
F878
7FF8
3FF0
ENDCHAR
STARTCHAR dotaccent
ENCODING 729
SWIDTH 428 0
DWIDTH 14 0
BBX 14 9 0 0
BITMAP
1FE0
7FF0
7FF8
FFFC
FCFC
FCFC
FFFC
7FF8
7FF0
ENDCHAR
STARTCHAR ring
ENCODING 730
SWIDTH 368 0
DWIDTH 12 0
BBX 12 10 0 0
BITMAP
1F00
3FC0
7FE0
F0E0
E6F0
EE70
E6F0
F0F0
FFE0
7FE0
ENDCHAR
STARTCHAR ogonek
ENCODING 731
SWIDTH 101 0
DWIDTH 3 0
BBX 3 5 0 -5
BITMAP
60
C0
80
E0
60
ENDCHAR
STARTCHAR tilde
ENCODING 732
SWIDTH 428 0
DWIDTH 14 0
BBX 14 10 0 0
BITMAP
1FC0
3FF0
7FF8
FFF8
FFFC
FFFC
E13C
E438
7FF8
7FF0
ENDCHAR
STARTCHAR hungarumlaut
ENCODING 733
SWIDTH 419 0
DWIDTH 13 0
BBX 14 10 0 1
BITMAP
0FE0
1FF0
1FF0
3DB8
3BBC
7378
F770
EEE0
FFE0
FFC0
ENDCHAR
STARTCHAR uni030F
ENCODING 783
SWIDTH 419 0
DWIDTH 13 0
BBX 14 10 0 1
BITMAP
3F80
3FC0
7FE0
EEE0
F6F0
7770
7BB8
3FB8
1FFC
1FF8
ENDCHAR
STARTCHAR mu
ENCODING 956
SWIDTH 578 0
DWIDTH 19 0
BBX 19 21 0 0
BITMAP
1FFE00
39F980
79F9C0
F9F9C0
F9F9C0
F9F9E0
F9F9E0
F9F9E0
F9F9E0
F9F9E0
F9F9E0
F9F9E0
F801E0
F803E0
F9FFE0
FFFFE0
FFFFC0
FFFFC0
7FFF80
3FFF00
0FFE00
ENDCHAR
STARTCHAR pi
ENCODING 960
SWIDTH 578 0
DWIDTH 19 0
BBX 19 21 0 0
BITMAP
1FFE00
3E0F80
79F3C0
F30DC0
E66EC0
EEEEE0
CEE760
DEE760
DC0760
DDF760
EDF760
EDF6E0
F7FCE0
F3F9E0
FCE3E0
FF1FE0
FFFFC0
FFFFC0
7FFF80
3FFF00
0FFE00
ENDCHAR
STARTCHAR uni1E60
ENCODING 7776
SWIDTH 578 0
DWIDTH 19 0
BBX 19 29 0 0
BITMAP
03FC00
07FF00
0FFF80
1FFF80
1F9F80
1F9F80
0FFF80
0FFF00
1FFF00
3C0380
7C03C0
F9FFC0
F9FFC0
F9FFE0
FCFFE0
FC03E0
FFFBE0
FFF9E0
FFF9E0
FFF9E0
FC03E0
FC03E0
FFFFE0
FFFFE0
FFFFC0
FFFFC0
7FFF80
3FFF00
0FFE00
ENDCHAR
STARTCHAR uni1E8E
ENCODING 7822
SWIDTH 578 0
DWIDTH 19 0
BBX 19 29 0 0
BITMAP
03FC00
0FFE00
0FFF00
1FFF80
1F9F80
1F9F80
1FFF80
0FFF00
1FFF00
39F980
7CF3C0
FCF3C0
FE67C0
FE67E0
FF6FE0
FF4FE0
FF0FE0
FF9FE0
FF9FE0
FF9FE0
FF9FE0
FF9FE0
FFFFE0
FFFFE0
FFFFC0
FFFFC0
7FFF80
3FFF00
0FFE00
ENDCHAR
STARTCHAR uni1E8F
ENCODING 7823
SWIDTH 578 0
DWIDTH 19 0
BBX 19 29 0 0
BITMAP
03FC00
0FFE00
0FFF00
1FFF80
1F9F80
1F9F80
1FFF80
0FFF00
1FFF00
39F980
7CF3C0
FCF3C0
FE67C0
FE67E0
FF6FE0
FF4FE0
FF0FE0
FF9FE0
FF9FE0
FF9FE0
FF9FE0
FF9FE0
FFFFE0
FFFFE0
FFFFC0
FFFFC0
7FFF80
3FFF00
0FFE00
ENDCHAR
STARTCHAR uni1EBC
ENCODING 7868
SWIDTH 578 0
DWIDTH 19 0
BBX 19 30 0 0
BITMAP
03FC00
07FE00
0FFF00
0FFF80
1FFF80
1FFF80
1E3780
1CC780
0FFF00
1FFE00
3C0380
7C03C0
FCFFC0
FCFFC0
FCFFE0
FCFFE0
FC07E0
FCFFE0
FCFFE0
FCFFE0
FCFFE0
FC03E0
FC03E0
FFFFE0
FFFFE0
FFFFC0
FFFFC0
7FFF80
3FFF00
0FFE00
ENDCHAR
STARTCHAR uni1EF8
ENCODING 7928
SWIDTH 578 0
DWIDTH 19 0
BBX 19 30 0 0
BITMAP
03FC00
07FE00
0FFF00
1FFF00
1FFF80
1FFF80
1E2780
1C8780
0FFF00
1FFE00
39F980
7CF3C0
FCF3C0
FE67C0
FE67E0
FF6FE0
FF4FE0
FF0FE0
FF9FE0
FF9FE0
FF9FE0
FF9FE0
FF9FE0
FFFFE0
FFFFE0
FFFFC0
FFFFC0
7FFF80
3FFF00
0FFE00
ENDCHAR
STARTCHAR uni1EF9
ENCODING 7929
SWIDTH 578 0
DWIDTH 19 0
BBX 19 30 0 0
BITMAP
03FC00
07FE00
0FFF00
1FFF00
1FFF80
1FFF80
1E2780
1C8780
0FFF00
1FFE00
39F980
7CF3C0
FCF3C0
FE67C0
FE67E0
FF6FE0
FF4FE0
FF0FE0
FF9FE0
FF9FE0
FF9FE0
FF9FE0
FF9FE0
FFFFE0
FFFFE0
FFFFC0
FFFFC0
7FFF80
3FFF00
0FFE00
ENDCHAR
STARTCHAR endash
ENCODING 8211
SWIDTH 428 0
DWIDTH 14 0
BBX 14 21 0 0
BITMAP
1FE0
3FF0
7FF8
FFF8
FFFC
F03C
F03C
FFFC
FFFC
FFFC
FFFC
FFFC
FFFC
FFFC
FFFC
FFFC
FFFC
FFF8
7FF8
3FF0
0FC0
ENDCHAR
STARTCHAR emdash
ENCODING 8212
SWIDTH 428 0
DWIDTH 14 0
BBX 14 21 0 0
BITMAP
1FE0
3FF0
7FF8
FFF8
FFFC
0000
0000
FFFC
FFFC
FFFC
FFFC
FFFC
FFFC
FFFC
FFFC
FFFC
FFFC
FFF8
7FF8
3FF0
0FC0
ENDCHAR
STARTCHAR quoteleft
ENCODING 8216
SWIDTH 428 0
DWIDTH 14 0
BBX 14 21 0 0
BITMAP
1FE0
3EF0
7DF8
FCF8
FCFC
FFFC
FFFC
FFFC
FFFC
FFFC
FFFC
FFFC
FFFC
FFFC
FFFC
FFFC
FFFC
FFF8
7FF8
3FF0
0FC0
ENDCHAR
STARTCHAR quoteright
ENCODING 8217
SWIDTH 428 0
DWIDTH 14 0
BBX 14 21 0 0
BITMAP
1FE0
3CF0
7CF8
FEF8
FDFC
FFFC
FFFC
FFFC
FFFC
FFFC
FFFC
FFFC
FFFC
FFFC
FFFC
FFFC
FFFC
FFF8
7FF8
3FF0
0FC0
ENDCHAR
STARTCHAR quotesinglbase
ENCODING 8218
SWIDTH 428 0
DWIDTH 14 0
BBX 14 21 0 0
BITMAP
1FE0
3FF0
7FF8
FFF8
FFFC
FFFC
FFFC
FFFC
FFFC
FFFC
FFFC
FFFC
FCFC
FCFC
FEFC
FDFC
FFFC
FFF8
7FF8
3FF0
0FC0
ENDCHAR
STARTCHAR quotedblleft
ENCODING 8220
SWIDTH 428 0
DWIDTH 14 0
BBX 14 21 0 0
BITMAP
1FE0
3B70
7AF8
F278
F27C
FFFC
FFFC
FFFC
FFFC
FFFC
FFFC
FFFC
FFFC
FFFC
FFFC
FFFC
FFFC
FFF8
7FF8
3FF0
0FC0
ENDCHAR
STARTCHAR quotedblright
ENCODING 8221
SWIDTH 428 0
DWIDTH 14 0
BBX 14 21 0 0
BITMAP
1FE0
3930
7938
FD38
FB7C
FFFC
FFFC
FFFC
FFFC
FFFC
FFFC
FFFC
FFFC
FFFC
FFFC
FFFC
FFFC
FFF8
7FF8
3FF0
0FC0
ENDCHAR
STARTCHAR quotedblbase
ENCODING 8222
SWIDTH 428 0
DWIDTH 14 0
BBX 14 21 0 0
BITMAP
1FE0
3FF0
7FF8
FFF8
FFFC
FFFC
FFFC
FFFC
FFFC
FFFC
FFFC
FFFC
F93C
F93C
FD3C
FB7C
FFFC
FFF8
7FF8
3FF0
0FC0
ENDCHAR
STARTCHAR dagger
ENCODING 8224
SWIDTH 578 0
DWIDTH 19 0
BBX 19 21 0 0
BITMAP
1FFE00
3F9F80
7F9FC0
FF9FC0
FE07C0
FF9FE0
FF9FE0
FF9FE0
FF9FE0
FF9FE0
FF9FE0
FF9FE0
FF9FE0
FF9FE0
FFFFE0
FFFFE0
FFFFC0
FFFFC0
7FFF80
3FFF00
0FFE00
ENDCHAR
STARTCHAR daggerdbl
ENCODING 8225
SWIDTH 578 0
DWIDTH 19 0
BBX 19 21 0 0
BITMAP
1FFE00
3F9F80
7F9FC0
FF9FC0
FE07C0
FF9FE0
FF9FE0
FF9FE0
FF9FE0
FF9FE0
FE07E0
FE07E0
FF9FE0
FF9FE0
FFFFE0
FFFFE0
FFFFC0
FFFFC0
7FFF80
3FFF00
0FFE00
ENDCHAR
STARTCHAR bullet
ENCODING 8226
SWIDTH 578 0
DWIDTH 19 0
BBX 19 21 0 0
BITMAP
1FFE00
3FFF80
7F1FC0
FC03C0
F803C0
F801E0
F801E0
F801E0
F801E0
F801E0
F801E0
F803E0
FC07E0
FFFFE0
FFFFE0
FFFFE0
FFFFC0
FFFFC0
7FFF80
3FFF00
0FFE00
ENDCHAR
STARTCHAR ellipsis
ENCODING 8230
SWIDTH 578 0
DWIDTH 19 0
BBX 19 21 0 0
BITMAP
1FFE00
3FFF80
7FFFC0
FFFFC0
FFFFC0
FFFFE0
FFFFE0
FFFFE0
FFFFE0
FFFFE0
FFFFE0
FFFFE0
F333E0
F333E0
FFFFE0
FFFFE0
FFFFC0
FFFFC0
7FFF80
3FFF00
0FFE00
ENDCHAR
STARTCHAR perthousand
ENCODING 8240
SWIDTH 640 0
DWIDTH 20 0
BBX 21 21 0 0
BITMAP
1FFF80
3FFFE0
433FF0
933FF0
9B7FF0
827FF8
C27FF8
FEFFF8
FC8718
FC8208
FDB2C8
F9B2C8
F98618
FFFFF8
FFFFF8
FFFFF8
FFFFF0
FFFFF0
7FFFE0
3FFFC0
0FFF80
ENDCHAR
STARTCHAR guilsinglleft
ENCODING 8249
SWIDTH 578 0
DWIDTH 19 0
BBX 19 21 0 0
BITMAP
1FFE00
3FFF80
7FEFC0
FFEFC0
FFCFC0
FF9FE0
FF3FE0
FF7FE0
FE7FE0
FF7FE0
FF3FE0
FF9FE0
FFCFE0
FFEFE0
FFEFE0
FFFFE0
FFFFC0
FFFFC0
7FFF80
3FFF00
0FFE00
ENDCHAR
STARTCHAR guilsinglright
ENCODING 8250
SWIDTH 578 0
DWIDTH 19 0
BBX 19 21 0 0
BITMAP
1FFE00
3FFF80
7FFFC0
FE7FC0
FF3FC0
FFBFE0
FFDFE0
FFCFE0
FFEFE0
FFCFE0
FFDFE0
FF9FE0
FF3FE0
FF7FE0
FFFFE0
FFFFE0
FFFFC0
FFFFC0
7FFF80
3FFF00
0FFE00
ENDCHAR
STARTCHAR fraction
ENCODING 8260
SWIDTH 428 0
DWIDTH 14 0
BBX 14 21 0 0
BITMAP
1FE0
3E70
7EF8
FEF8
FEFC
FCFC
FCFC
FCFC
FCFC
FDFC
FDFC
F9FC
F9FC
F9FC
FFFC
FFFC
FFFC
FFF8
7FF8
3FF0
0FC0
ENDCHAR
STARTCHAR Euro
ENCODING 8364
SWIDTH 578 0
DWIDTH 19 0
BBX 19 21 0 0
BITMAP
1FFE00
3C0780
7807C0
F9FFC0
F9FFC0
E03FE0
E03FE0
F9FFE0
E03FE0
F9FFE0
F9FFE0
F9FFE0
F807E0
FC07E0
FFFFE0
FFFFE0
FFFFC0
FFFFC0
7FFF80
3FFF00
0FFE00
ENDCHAR
STARTCHAR trademark
ENCODING 8482
SWIDTH 578 0
DWIDTH 19 0
BBX 19 21 0 0
BITMAP
1FFE00
3FFF80
7FFFC0
FFFFC0
FFFFC0
FFFFE0
F0B3E0
FDB3E0
FDCBE0
FDCBE0
FDABE0
FFFFE0
FFFFE0
FFFFE0
FFFFE0
FFFFE0
FFFFC0
FFFFC0
7FFF80
3FFF00
0FFE00
ENDCHAR
STARTCHAR product
ENCODING 8719
SWIDTH 578 0
DWIDTH 19 0
BBX 19 21 0 0
BITMAP
1FFE00
3E0F80
79F3C0
F3FDC0
E606C0
EEF6E0
CEF760
DEF760
DEF760
DE0F60
EEFF60
EEFEE0
F6FCE0
F3F9E0
FCE3E0
FF1FE0
FFFFC0
FFFFC0
7FFF80
3FFF00
0FFE00
ENDCHAR
STARTCHAR minus
ENCODING 8722
SWIDTH 428 0
DWIDTH 14 0
BBX 14 21 0 0
BITMAP
1FE0
3FF0
7FF8
FFF8
FFFC
F03C
F03C
FFFC
FFFC
FFFC
FFFC
FFFC
FFFC
FFFC
FFFC
FFFC
FFFC
FFF8
7FF8
3FF0
0FC0
ENDCHAR
STARTCHAR notequal
ENCODING 8800
SWIDTH 578 0
DWIDTH 19 0
BBX 19 21 0 0
BITMAP
1FFE00
3FFF80
7FCFC0
FFDFC0
F803C0
F803E0
FFBFE0
F803E0
F803E0
FE7FE0
FEFFE0
FFFFE0
FFFFE0
FFFFE0
FFFFE0
FFFFE0
FFFFC0
FFFFC0
7FFF80
3FFF00
0FFE00
ENDCHAR
STARTCHAR uni2706
ENCODING 9990
SWIDTH 578 0
DWIDTH 19 0
BBX 19 21 0 0
BITMAP
1FFE00
3F9F80
7FEFC0
FFD7C0
FF77C0
FCAFE0
FA6FE0
F97FE0
F8FFE0
FCFFE0
FCFFE0
FE7FE0
FE27E0
FF17E0
FFCFE0
FFFFE0
FFFFC0
FFFFC0
7FFF80
3FFF00
0FFE00
ENDCHAR
STARTCHAR uni2708
ENCODING 9992
SWIDTH 578 0
DWIDTH 19 0
BBX 19 21 0 0
BITMAP
1FFF00
211080
40E040
804040
804020
8C4620
875C20
83F820
80F020
804020
804020
804020
804020
804020
800020
800020
80E020
80E040
40E080
300100
0FFE00
ENDCHAR
STARTCHAR uniF6D6
ENCODING 63190
SWIDTH 419 0
DWIDTH 13 0
BBX 14 10 0 1
BITMAP
3F80
3FC0
7FE0
EEE0
F6F0
7770
7BB8
3FB8
1FFC
1FF8
ENDCHAR
STARTCHAR uFFFF2
ENCODING 1048562
SWIDTH 578 0
DWIDTH 19 0
BBX 19 21 0 0
BITMAP
1FFF00
204080
404040
804040
804020
804020
80E020
81F020
83D820
844620
884220
804020
80E020
81B020
800020
800020
80E020
80E040
40E080
300100
0FFE00
ENDCHAR
STARTCHAR uFFFF3
ENCODING 1048563
SWIDTH 578 0
DWIDTH 19 0
BBX 19 21 0 0
BITMAP
1FFF00
204080
406040
807040
827820
836C20
81F820
80F020
806020
80F020
81F820
836C20
807820
807020
806020
804020
800020
800040
400080
300100
0FFE00
ENDCHAR
STARTCHAR uFFFF4
ENCODING 1048564
SWIDTH 578 0
DWIDTH 19 0
BBX 19 21 0 0
BITMAP
1FFE00
3FFF80
7FBFC0
FFBFC0
FEB7C0
FDB3E0
FBBBE0
FBB9E0
FBFDE0
FBF9E0
F9FBE0
FCF3E0
FE07E0
FFFFE0
FFFFE0
FFFFE0
FFFFC0
FFFFC0
7FFF80
3FFF00
0FFE00
ENDCHAR
STARTCHAR uFFFF5
ENCODING 1048565
SWIDTH 578 0
DWIDTH 19 0
BBX 19 21 0 0
BITMAP
1FFE00
3EEF80
7F1FC0
FFBFC0
FFBFC0
F3B9E0
F8A3E0
FE07E0
FF1FE0
FFBFE0
FFBFE0
FFBFE0
FFBFE0
FFBFE0
FFFFE0
FFFFE0
FF1FC0
FF1FC0
7F1F80
3FFF00
0FFE00
ENDCHAR
STARTCHAR uFFFF6
ENCODING 1048566
SWIDTH 578 0
DWIDTH 19 0
BBX 19 21 0 0
BITMAP
1FFE00
3FBF80
7FBFC0
FFBFC0
FFBFC0
FFBFE0
FF1FE0
FE0FE0
FCA7E0
FBBBE0
FFBFE0
FFBFE0
FF1FE0
FE4FE0
FFFFE0
FFFFE0
FF1FC0
FF1FC0
7F1F80
3FFF00
0FFE00
ENDCHAR
STARTCHAR uFFFF8
ENCODING 1048568
SWIDTH 578 0
DWIDTH 19 0
BBX 19 21 0 0
BITMAP
1FFE00
3FFF80
7F3FC0
FECFC0
FF3FC0
FE0FE0
FC47E0
FD57E0
FBBBE0
FB13E0
F803E0
F803E0
F803E0
FC07E0
FE0FE0
FFFFE0
FF1FC0
FF1FC0
7F1F80
3FFF00
0FFE00
ENDCHAR
STARTCHAR uFFFF9
ENCODING 1048569
SWIDTH 578 0
DWIDTH 19 0
BBX 19 21 0 0
BITMAP
1FFF00
200080
404040
804040
815820
824C20
844420
844620
844620
840620
860420
830C20
81F820
800020
800020
800020
800020
800040
400080
300100
0FFE00
ENDCHAR
STARTCHAR uFFFFB
ENCODING 1048571
SWIDTH 578 0
DWIDTH 19 0
BBX 19 21 0 0
BITMAP
1FFE00
3FBF80
7F9FC0
FFAFC0
F9A7C0
FCA7E0
FE0FE0
FF3FE0
FF1FE0
FE0FE0
FCA7E0
FDA7E0
FF8FE0
FF9FE0
FFFFE0
FFFFE0
FFFFC0
FFFFC0
7FFF80
3FFF00
0FFE00
ENDCHAR
STARTCHAR uFFFFC
ENCODING 1048572
SWIDTH 578 0
DWIDTH 19 0
BBX 19 21 0 0
BITMAP
1FFE00
3FFF80
7C07C0
F1F1C0
E71CC0
EC02E0
FBF9E0
FE0FE0
FCE7E0
FFBFE0
FF1FE0
FF9FE0
FFFFE0
FFFFE0
FFFFE0
FFFFE0
FFFFC0
FFFFC0
7FFF80
3FFF00
0FFE00
ENDCHAR
STARTCHAR uFFFFD
ENCODING 1048573
SWIDTH 578 0
DWIDTH 19 0
BBX 19 21 0 0
BITMAP
1FFE00
3FFF80
7E0FC0
FC07C0
F803C0
F803E0
F803E0
FB13E0
FBBBE0
FD57E0
FC47E0
FE0FE0
FF3FE0
FECFE0
FF3FE0
FFFFE0
FF1FC0
FF1FC0
7F1F80
3FFF00
0FFE00
ENDCHAR
STARTCHAR uFFFFE
ENCODING 1048574
SWIDTH 578 0
DWIDTH 19 0
BBX 19 21 0 0
BITMAP
1FFE00
3FFF80
70E1C0
E64CC0
EF5EC0
EF5EE0
F0DEE0
E65EE0
EF5EE0
EF5EE0
E040E0
F0E1E0
FFFFE0
FFFFE0
FFFFE0
FFFFE0
FFFFC0
FFFFC0
7FFF80
3FFF00
0FFE00
ENDCHAR
STARTCHAR uFFFFF
ENCODING 1048575
SWIDTH 578 0
DWIDTH 19 0
BBX 19 21 0 0
BITMAP
1FFF00
200080
41F040
83F840
87FC20
87FC20
87FC20
84EC20
844420
82E820
83B820
81F020
81F020
81B020
80C020
800020
80E020
80E040
40E080
300100
0FFE00
ENDCHAR
STARTCHAR .notdef
ENCODING -1
SWIDTH 1000 0
DWIDTH 32 0
BBX 1 1 0 0
BITMAP
00
ENDCHAR
STARTCHAR glyph1
ENCODING -1
SWIDTH 0 0
DWIDTH 0 0
BBX 1 1 0 0
BITMAP
00
ENDCHAR
ENDFONT
